%TF.GenerationSoftware,KiCad,Pcbnew,8.0.5*%
%TF.CreationDate,2024-10-20T14:37:55+01:00*%
%TF.ProjectId,Matrix pcb,4d617472-6978-4207-9063-622e6b696361,rev?*%
%TF.SameCoordinates,Original*%
%TF.FileFunction,Copper,L2,Bot*%
%TF.FilePolarity,Positive*%
%FSLAX46Y46*%
G04 Gerber Fmt 4.6, Leading zero omitted, Abs format (unit mm)*
G04 Created by KiCad (PCBNEW 8.0.5) date 2024-10-20 14:37:55*
%MOMM*%
%LPD*%
G01*
G04 APERTURE LIST*
%TA.AperFunction,ComponentPad*%
%ADD10R,1.700000X1.700000*%
%TD*%
%TA.AperFunction,ComponentPad*%
%ADD11O,1.700000X1.700000*%
%TD*%
%TA.AperFunction,ComponentPad*%
%ADD12C,1.600000*%
%TD*%
%TA.AperFunction,ComponentPad*%
%ADD13O,1.600000X1.600000*%
%TD*%
%TA.AperFunction,ComponentPad*%
%ADD14O,2.400000X1.600000*%
%TD*%
%TA.AperFunction,ComponentPad*%
%ADD15R,2.400000X1.600000*%
%TD*%
%TA.AperFunction,Conductor*%
%ADD16C,0.200000*%
%TD*%
G04 APERTURE END LIST*
D10*
%TO.P,J2,1,Pin_1*%
%TO.N,Net-(J2-Pin_1)*%
X146500000Y-121224100D03*
D11*
%TO.P,J2,2,Pin_2*%
%TO.N,Net-(J2-Pin_2)*%
X146500000Y-123764100D03*
%TO.P,J2,3,Pin_3*%
%TO.N,Net-(J2-Pin_3)*%
X146500000Y-126304100D03*
%TO.P,J2,4,Pin_4*%
%TO.N,Net-(J2-Pin_4)*%
X146500000Y-128844100D03*
%TO.P,J2,5,Pin_5*%
%TO.N,Net-(J2-Pin_5)*%
X146500000Y-131384100D03*
%TO.P,J2,6,Pin_6*%
%TO.N,Net-(J2-Pin_6)*%
X146500000Y-133924100D03*
%TO.P,J2,7,Pin_7*%
%TO.N,Net-(J2-Pin_7)*%
X146500000Y-136464100D03*
%TO.P,J2,8,Pin_8*%
%TO.N,Net-(J2-Pin_8)*%
X146500000Y-139004100D03*
%TD*%
D12*
%TO.P,R3,1*%
%TO.N,Net-(J3-Pin_6)*%
X113310000Y-134724100D03*
D13*
%TO.P,R3,2*%
%TO.N,Net-(Columns1-QF)*%
X105690000Y-134724100D03*
%TD*%
D12*
%TO.P,R5,1*%
%TO.N,Net-(J3-Pin_4)*%
X113310000Y-126624100D03*
D13*
%TO.P,R5,2*%
%TO.N,Net-(Columns1-QD)*%
X105690000Y-126624100D03*
%TD*%
D12*
%TO.P,R2,1*%
%TO.N,Net-(J3-Pin_7)*%
X113310000Y-138774100D03*
D13*
%TO.P,R2,2*%
%TO.N,Net-(Columns1-QG)*%
X105690000Y-138774100D03*
%TD*%
D12*
%TO.P,R6,1*%
%TO.N,Net-(J3-Pin_3)*%
X113310000Y-122574100D03*
D13*
%TO.P,R6,2*%
%TO.N,Net-(Columns1-QC)*%
X105690000Y-122574100D03*
%TD*%
D14*
%TO.P,Rows1,16,VCC*%
%TO.N,+5V*%
X84620000Y-119644100D03*
%TO.P,Rows1,15,QA*%
%TO.N,Net-(J2-Pin_1)*%
X84620000Y-122184100D03*
%TO.P,Rows1,14,SER*%
%TO.N,Net-(J1-Pin_3)*%
X84620000Y-124724100D03*
%TO.P,Rows1,13,~{OE}*%
%TO.N,GND*%
X84620000Y-127264100D03*
%TO.P,Rows1,12,RCLK*%
%TO.N,Net-(Columns1-RCLK)*%
X84620000Y-129804100D03*
%TO.P,Rows1,11,SRCLK*%
%TO.N,Net-(Columns1-SRCLK)*%
X84620000Y-132344100D03*
%TO.P,Rows1,10,~{SRCLR}*%
%TO.N,GND*%
X84620000Y-134884100D03*
%TO.P,Rows1,9,QH'*%
%TO.N,Net-(Columns1-SER)*%
X84620000Y-137424100D03*
%TO.P,Rows1,8,GND*%
%TO.N,GND*%
X77000000Y-137424100D03*
%TO.P,Rows1,7,QH*%
%TO.N,Net-(J2-Pin_8)*%
X77000000Y-134884100D03*
%TO.P,Rows1,6,QG*%
%TO.N,Net-(J2-Pin_7)*%
X77000000Y-132344100D03*
%TO.P,Rows1,5,QF*%
%TO.N,Net-(J2-Pin_6)*%
X77000000Y-129804100D03*
%TO.P,Rows1,4,QE*%
%TO.N,Net-(J2-Pin_5)*%
X77000000Y-127264100D03*
%TO.P,Rows1,3,QD*%
%TO.N,Net-(J2-Pin_4)*%
X77000000Y-124724100D03*
%TO.P,Rows1,2,QC*%
%TO.N,Net-(J2-Pin_3)*%
X77000000Y-122184100D03*
D15*
%TO.P,Rows1,1,QB*%
%TO.N,Net-(J2-Pin_2)*%
X77000000Y-119644100D03*
%TD*%
D11*
%TO.P,J1,5,Pin_5*%
%TO.N,Net-(Columns1-SRCLK)*%
X67500000Y-133479100D03*
%TO.P,J1,4,Pin_4*%
%TO.N,Net-(Columns1-RCLK)*%
X67500000Y-130939100D03*
%TO.P,J1,3,Pin_3*%
%TO.N,Net-(J1-Pin_3)*%
X67500000Y-128399100D03*
%TO.P,J1,2,Pin_2*%
%TO.N,GND*%
X67500000Y-125859100D03*
D10*
%TO.P,J1,1,Pin_1*%
%TO.N,+5V*%
X67500000Y-123319100D03*
%TD*%
D12*
%TO.P,R8,1*%
%TO.N,Net-(J3-Pin_1)*%
X113310000Y-114474100D03*
D13*
%TO.P,R8,2*%
%TO.N,Net-(Columns1-QA)*%
X105690000Y-114474100D03*
%TD*%
D15*
%TO.P,Columns1,1,QB*%
%TO.N,Net-(Columns1-QB)*%
X90000000Y-119604100D03*
D14*
%TO.P,Columns1,2,QC*%
%TO.N,Net-(Columns1-QC)*%
X90000000Y-122144100D03*
%TO.P,Columns1,3,QD*%
%TO.N,Net-(Columns1-QD)*%
X90000000Y-124684100D03*
%TO.P,Columns1,4,QE*%
%TO.N,Net-(Columns1-QE)*%
X90000000Y-127224100D03*
%TO.P,Columns1,5,QF*%
%TO.N,Net-(Columns1-QF)*%
X90000000Y-129764100D03*
%TO.P,Columns1,6,QG*%
%TO.N,Net-(Columns1-QG)*%
X90000000Y-132304100D03*
%TO.P,Columns1,7,QH*%
%TO.N,Net-(Columns1-QH)*%
X90000000Y-134844100D03*
%TO.P,Columns1,8,GND*%
%TO.N,GND*%
X90000000Y-137384100D03*
%TO.P,Columns1,9,QH'*%
%TO.N,unconnected-(Columns1-QH'-Pad9)*%
X97620000Y-137384100D03*
%TO.P,Columns1,10,~{SRCLR}*%
%TO.N,GND*%
X97620000Y-134844100D03*
%TO.P,Columns1,11,SRCLK*%
%TO.N,Net-(Columns1-SRCLK)*%
X97620000Y-132304100D03*
%TO.P,Columns1,12,RCLK*%
%TO.N,Net-(Columns1-RCLK)*%
X97620000Y-129764100D03*
%TO.P,Columns1,13,~{OE}*%
%TO.N,GND*%
X97620000Y-127224100D03*
%TO.P,Columns1,14,SER*%
%TO.N,Net-(Columns1-SER)*%
X97620000Y-124684100D03*
%TO.P,Columns1,15,QA*%
%TO.N,Net-(Columns1-QA)*%
X97620000Y-122144100D03*
%TO.P,Columns1,16,VCC*%
%TO.N,+5V*%
X97620000Y-119604100D03*
%TD*%
D10*
%TO.P,J3,1,Pin_1*%
%TO.N,Net-(J3-Pin_1)*%
X122540000Y-121224100D03*
D11*
%TO.P,J3,2,Pin_2*%
%TO.N,Net-(J3-Pin_2)*%
X122540000Y-123764100D03*
%TO.P,J3,3,Pin_3*%
%TO.N,Net-(J3-Pin_3)*%
X122540000Y-126304100D03*
%TO.P,J3,4,Pin_4*%
%TO.N,Net-(J3-Pin_4)*%
X122540000Y-128844100D03*
%TO.P,J3,5,Pin_5*%
%TO.N,Net-(J3-Pin_5)*%
X122540000Y-131384100D03*
%TO.P,J3,6,Pin_6*%
%TO.N,Net-(J3-Pin_6)*%
X122540000Y-133924100D03*
%TO.P,J3,7,Pin_7*%
%TO.N,Net-(J3-Pin_7)*%
X122540000Y-136464100D03*
%TO.P,J3,8,Pin_8*%
%TO.N,Net-(J3-Pin_8)*%
X122540000Y-139004100D03*
%TD*%
D12*
%TO.P,R4,1*%
%TO.N,Net-(J3-Pin_5)*%
X113310000Y-130674100D03*
D13*
%TO.P,R4,2*%
%TO.N,Net-(Columns1-QE)*%
X105690000Y-130674100D03*
%TD*%
D12*
%TO.P,R7,1*%
%TO.N,Net-(J3-Pin_2)*%
X113310000Y-118524100D03*
D13*
%TO.P,R7,2*%
%TO.N,Net-(Columns1-QB)*%
X105690000Y-118524100D03*
%TD*%
D12*
%TO.P,R1,1*%
%TO.N,Net-(J3-Pin_8)*%
X113310000Y-142824100D03*
D13*
%TO.P,R1,2*%
%TO.N,Net-(Columns1-QH)*%
X105690000Y-142824100D03*
%TD*%
D16*
%TO.N,GND*%
X83215000Y-125859100D02*
X67500000Y-125859100D01*
X84620000Y-127264100D02*
X83215000Y-125859100D01*
X75500000Y-135924100D02*
X75500000Y-133859100D01*
X75500000Y-133859100D02*
X67500000Y-125859100D01*
X77000000Y-137424100D02*
X75500000Y-135924100D01*
X87384100Y-134884100D02*
X84620000Y-134884100D01*
X89884100Y-137384100D02*
X87384100Y-134884100D01*
X90000000Y-137384100D02*
X89884100Y-137384100D01*
X95080000Y-137384100D02*
X90000000Y-137384100D01*
X97620000Y-134844100D02*
X95080000Y-137384100D01*
%TO.N,Net-(J3-Pin_4)*%
X119168300Y-126624100D02*
X121388300Y-128844100D01*
X113310000Y-126624100D02*
X119168300Y-126624100D01*
X122540000Y-128844100D02*
X121388300Y-128844100D01*
%TO.N,Net-(J2-Pin_1)*%
X137450100Y-113325900D02*
X145348300Y-121224100D01*
X93836100Y-113325900D02*
X137450100Y-113325900D01*
X86121700Y-121040300D02*
X93836100Y-113325900D01*
X86121700Y-122184100D02*
X86121700Y-121040300D01*
X84620000Y-122184100D02*
X86121700Y-122184100D01*
X146500000Y-121224100D02*
X145348300Y-121224100D01*
%TO.N,Net-(J2-Pin_5)*%
X144078300Y-132654100D02*
X145348300Y-131384100D01*
X121910000Y-132654100D02*
X144078300Y-132654100D01*
X118308500Y-136255600D02*
X121910000Y-132654100D01*
X101387000Y-136255600D02*
X118308500Y-136255600D01*
X99102200Y-138540400D02*
X101387000Y-136255600D01*
X83623400Y-138540400D02*
X99102200Y-138540400D01*
X78501700Y-133418700D02*
X83623400Y-138540400D01*
X78501700Y-127264100D02*
X78501700Y-133418700D01*
X77000000Y-127264100D02*
X78501700Y-127264100D01*
X146500000Y-131384100D02*
X145348300Y-131384100D01*
%TO.N,Net-(J2-Pin_8)*%
X77000000Y-134884100D02*
X78501700Y-134884100D01*
X146500000Y-139004100D02*
X145348300Y-139004100D01*
X144078300Y-137734100D02*
X145348300Y-139004100D01*
X113828100Y-137734100D02*
X144078300Y-137734100D01*
X113708300Y-137614300D02*
X113828100Y-137734100D01*
X103328000Y-137614300D02*
X113708300Y-137614300D01*
X101944000Y-138998300D02*
X103328000Y-137614300D01*
X82615900Y-138998300D02*
X101944000Y-138998300D01*
X78501700Y-134884100D02*
X82615900Y-138998300D01*
%TO.N,Net-(Columns1-QA)*%
X99121700Y-122144100D02*
X105690000Y-115575800D01*
X97620000Y-122144100D02*
X99121700Y-122144100D01*
X105690000Y-114474100D02*
X105690000Y-115575800D01*
%TO.N,Net-(Columns1-SER)*%
X83118300Y-131882400D02*
X83118300Y-137424100D01*
X83926600Y-131074100D02*
X83118300Y-131882400D01*
X86656800Y-131074100D02*
X83926600Y-131074100D01*
X89236800Y-128494100D02*
X86656800Y-131074100D01*
X92308300Y-128494100D02*
X89236800Y-128494100D01*
X96118300Y-124684100D02*
X92308300Y-128494100D01*
X97620000Y-124684100D02*
X96118300Y-124684100D01*
X84620000Y-137424100D02*
X83118300Y-137424100D01*
%TO.N,Net-(Columns1-QF)*%
X100756700Y-130892500D02*
X104588300Y-134724100D01*
X92630100Y-130892500D02*
X100756700Y-130892500D01*
X91501700Y-129764100D02*
X92630100Y-130892500D01*
X90000000Y-129764100D02*
X91501700Y-129764100D01*
X105690000Y-134724100D02*
X104588300Y-134724100D01*
%TO.N,Net-(Columns1-QE)*%
X104588300Y-129653000D02*
X104588300Y-130674100D01*
X98499300Y-123564000D02*
X104588300Y-129653000D01*
X95161800Y-123564000D02*
X98499300Y-123564000D01*
X91501700Y-127224100D02*
X95161800Y-123564000D01*
X90000000Y-127224100D02*
X91501700Y-127224100D01*
X105690000Y-130674100D02*
X104588300Y-130674100D01*
%TO.N,Net-(Columns1-SRCLK)*%
X87228600Y-133451000D02*
X86121700Y-132344100D01*
X94971400Y-133451000D02*
X87228600Y-133451000D01*
X96118300Y-132304100D02*
X94971400Y-133451000D01*
X97620000Y-132304100D02*
X96118300Y-132304100D01*
X84620000Y-132344100D02*
X86121700Y-132344100D01*
%TO.N,+5V*%
X79443300Y-123319100D02*
X67500000Y-123319100D01*
X83118300Y-119644100D02*
X79443300Y-123319100D01*
X84620000Y-119644100D02*
X83118300Y-119644100D01*
%TD*%
%TA.AperFunction,Conductor*%
%TO.N,GND*%
G36*
X86109159Y-133196640D02*
G01*
X86153506Y-133225141D01*
X86743739Y-133815374D01*
X86743749Y-133815385D01*
X86748079Y-133819715D01*
X86748080Y-133819716D01*
X86859884Y-133931520D01*
X86940747Y-133978206D01*
X86996815Y-134010577D01*
X87149543Y-134051501D01*
X87149546Y-134051501D01*
X87315253Y-134051501D01*
X87315269Y-134051500D01*
X88341915Y-134051500D01*
X88408954Y-134071185D01*
X88454709Y-134123989D01*
X88464653Y-134193147D01*
X88452400Y-134231795D01*
X88394781Y-134344876D01*
X88331522Y-134539565D01*
X88302295Y-134724100D01*
X88299500Y-134741748D01*
X88299500Y-134946452D01*
X88300188Y-134950797D01*
X88331522Y-135148634D01*
X88394781Y-135343323D01*
X88487715Y-135525713D01*
X88608028Y-135691313D01*
X88752786Y-135836071D01*
X88907749Y-135948656D01*
X88918390Y-135956387D01*
X88990424Y-135993090D01*
X89011629Y-136003895D01*
X89062425Y-136051870D01*
X89079220Y-136119691D01*
X89056682Y-136185826D01*
X89011629Y-136224865D01*
X88918650Y-136272240D01*
X88753105Y-136392517D01*
X88753104Y-136392517D01*
X88608417Y-136537204D01*
X88608417Y-136537205D01*
X88488140Y-136702750D01*
X88395244Y-136885070D01*
X88332009Y-137079686D01*
X88323391Y-137134100D01*
X89684314Y-137134100D01*
X89679920Y-137138494D01*
X89627259Y-137229706D01*
X89600000Y-137331439D01*
X89600000Y-137436761D01*
X89627259Y-137538494D01*
X89679920Y-137629706D01*
X89684314Y-137634100D01*
X88323391Y-137634100D01*
X88332009Y-137688513D01*
X88332009Y-137688514D01*
X88360949Y-137777582D01*
X88362944Y-137847423D01*
X88326863Y-137907256D01*
X88264162Y-137938084D01*
X88243018Y-137939900D01*
X86390504Y-137939900D01*
X86323465Y-137920215D01*
X86277710Y-137867411D01*
X86267766Y-137798253D01*
X86272573Y-137777581D01*
X86288477Y-137728634D01*
X86320500Y-137526451D01*
X86320500Y-137321748D01*
X86288477Y-137119565D01*
X86257458Y-137024100D01*
X86225220Y-136924881D01*
X86225218Y-136924878D01*
X86225218Y-136924876D01*
X86169322Y-136815176D01*
X86132287Y-136742490D01*
X86124556Y-136731849D01*
X86011971Y-136576886D01*
X85867213Y-136432128D01*
X85701611Y-136311813D01*
X85608369Y-136264303D01*
X85557574Y-136216329D01*
X85540779Y-136148507D01*
X85563317Y-136082373D01*
X85608371Y-136043334D01*
X85701347Y-135995961D01*
X85866894Y-135875682D01*
X85866895Y-135875682D01*
X86011582Y-135730995D01*
X86011582Y-135730994D01*
X86131859Y-135565449D01*
X86224755Y-135383129D01*
X86287990Y-135188513D01*
X86296609Y-135134100D01*
X84935686Y-135134100D01*
X84940080Y-135129706D01*
X84992741Y-135038494D01*
X85020000Y-134936761D01*
X85020000Y-134831439D01*
X84992741Y-134729706D01*
X84940080Y-134638494D01*
X84935686Y-134634100D01*
X86296609Y-134634100D01*
X86287990Y-134579686D01*
X86224755Y-134385070D01*
X86131859Y-134202750D01*
X86011582Y-134037205D01*
X86011582Y-134037204D01*
X85866895Y-133892517D01*
X85701349Y-133772240D01*
X85608370Y-133724865D01*
X85557574Y-133676890D01*
X85540779Y-133609069D01*
X85563316Y-133542935D01*
X85608370Y-133503895D01*
X85608920Y-133503615D01*
X85701610Y-133456387D01*
X85756670Y-133416384D01*
X85867213Y-133336071D01*
X85867215Y-133336068D01*
X85867219Y-133336066D01*
X85978144Y-133225141D01*
X86039467Y-133191656D01*
X86109159Y-133196640D01*
G37*
%TD.AperFunction*%
%TA.AperFunction,Conductor*%
G36*
X96217508Y-133156639D02*
G01*
X96261855Y-133185140D01*
X96372786Y-133296071D01*
X96463434Y-133361929D01*
X96538390Y-133416387D01*
X96610424Y-133453090D01*
X96631629Y-133463895D01*
X96682425Y-133511870D01*
X96699220Y-133579691D01*
X96676682Y-133645826D01*
X96631629Y-133684865D01*
X96538650Y-133732240D01*
X96373105Y-133852517D01*
X96373104Y-133852517D01*
X96228417Y-133997204D01*
X96228417Y-133997205D01*
X96108140Y-134162750D01*
X96015244Y-134345070D01*
X95952009Y-134539686D01*
X95943391Y-134594100D01*
X97304314Y-134594100D01*
X97299920Y-134598494D01*
X97247259Y-134689706D01*
X97220000Y-134791439D01*
X97220000Y-134896761D01*
X97247259Y-134998494D01*
X97299920Y-135089706D01*
X97304314Y-135094100D01*
X95943391Y-135094100D01*
X95952009Y-135148513D01*
X96015244Y-135343129D01*
X96108140Y-135525449D01*
X96228417Y-135690994D01*
X96228417Y-135690995D01*
X96373104Y-135835682D01*
X96538652Y-135955961D01*
X96631628Y-136003334D01*
X96682425Y-136051308D01*
X96699220Y-136119129D01*
X96676683Y-136185264D01*
X96631630Y-136224303D01*
X96538388Y-136271813D01*
X96372786Y-136392128D01*
X96228028Y-136536886D01*
X96107715Y-136702486D01*
X96014781Y-136884876D01*
X95951522Y-137079565D01*
X95919500Y-137281748D01*
X95919500Y-137486451D01*
X95951522Y-137688634D01*
X95969571Y-137744180D01*
X95973606Y-137756600D01*
X95980424Y-137777581D01*
X95982419Y-137847422D01*
X95946339Y-137907255D01*
X95883639Y-137938084D01*
X95862493Y-137939900D01*
X91756982Y-137939900D01*
X91689943Y-137920215D01*
X91644188Y-137867411D01*
X91634244Y-137798253D01*
X91639051Y-137777582D01*
X91667990Y-137688514D01*
X91667990Y-137688513D01*
X91676609Y-137634100D01*
X90315686Y-137634100D01*
X90320080Y-137629706D01*
X90372741Y-137538494D01*
X90400000Y-137436761D01*
X90400000Y-137331439D01*
X90372741Y-137229706D01*
X90320080Y-137138494D01*
X90315686Y-137134100D01*
X91676609Y-137134100D01*
X91667990Y-137079686D01*
X91604755Y-136885070D01*
X91511859Y-136702750D01*
X91391582Y-136537205D01*
X91391582Y-136537204D01*
X91246895Y-136392517D01*
X91081349Y-136272240D01*
X90988370Y-136224865D01*
X90937574Y-136176890D01*
X90920779Y-136109069D01*
X90943316Y-136042935D01*
X90988370Y-136003895D01*
X90995161Y-136000435D01*
X91081610Y-135956387D01*
X91177271Y-135886886D01*
X91247213Y-135836071D01*
X91247215Y-135836068D01*
X91247219Y-135836066D01*
X91391966Y-135691319D01*
X91391968Y-135691315D01*
X91391971Y-135691313D01*
X91483223Y-135565713D01*
X91512287Y-135525710D01*
X91605220Y-135343319D01*
X91668477Y-135148634D01*
X91700500Y-134946452D01*
X91700500Y-134741748D01*
X91678355Y-134601930D01*
X91668477Y-134539565D01*
X91637458Y-134444100D01*
X91605220Y-134344881D01*
X91605218Y-134344878D01*
X91605218Y-134344876D01*
X91547600Y-134231795D01*
X91534704Y-134163126D01*
X91560980Y-134098385D01*
X91618087Y-134058128D01*
X91658085Y-134051500D01*
X94884731Y-134051500D01*
X94884747Y-134051501D01*
X94892343Y-134051501D01*
X95050454Y-134051501D01*
X95050457Y-134051501D01*
X95203185Y-134010577D01*
X95259253Y-133978206D01*
X95340116Y-133931520D01*
X95451920Y-133819716D01*
X95451920Y-133819714D01*
X95462124Y-133809511D01*
X95462128Y-133809506D01*
X96086495Y-133185138D01*
X96147816Y-133151655D01*
X96217508Y-133156639D01*
G37*
%TD.AperFunction*%
%TA.AperFunction,Conductor*%
G36*
X100523642Y-131512685D02*
G01*
X100544283Y-131529318D01*
X104219584Y-135204620D01*
X104219586Y-135204621D01*
X104219590Y-135204624D01*
X104310034Y-135256841D01*
X104356516Y-135283677D01*
X104483332Y-135317658D01*
X104542989Y-135354021D01*
X104558619Y-135375426D01*
X104559430Y-135376830D01*
X104559432Y-135376834D01*
X104617649Y-135459977D01*
X104639976Y-135526183D01*
X104622966Y-135593951D01*
X104572017Y-135641763D01*
X104516074Y-135655100D01*
X101307943Y-135655100D01*
X101155213Y-135696023D01*
X101131017Y-135709994D01*
X101131016Y-135709994D01*
X101018287Y-135775077D01*
X101018282Y-135775081D01*
X99518714Y-137274650D01*
X99457391Y-137308135D01*
X99387699Y-137303151D01*
X99331766Y-137261279D01*
X99308560Y-137206366D01*
X99298354Y-137141930D01*
X99288477Y-137079566D01*
X99274620Y-137036920D01*
X99248716Y-136957194D01*
X99225220Y-136884881D01*
X99225218Y-136884878D01*
X99225218Y-136884876D01*
X99174959Y-136786239D01*
X99132287Y-136702490D01*
X99068074Y-136614107D01*
X99011971Y-136536886D01*
X98867213Y-136392128D01*
X98701611Y-136271813D01*
X98608369Y-136224303D01*
X98557574Y-136176329D01*
X98540779Y-136108507D01*
X98563317Y-136042373D01*
X98608371Y-136003334D01*
X98701347Y-135955961D01*
X98866894Y-135835682D01*
X98866895Y-135835682D01*
X99011582Y-135690995D01*
X99011582Y-135690994D01*
X99131859Y-135525449D01*
X99224755Y-135343129D01*
X99287990Y-135148513D01*
X99296609Y-135094100D01*
X97935686Y-135094100D01*
X97940080Y-135089706D01*
X97992741Y-134998494D01*
X98020000Y-134896761D01*
X98020000Y-134791439D01*
X97992741Y-134689706D01*
X97940080Y-134598494D01*
X97935686Y-134594100D01*
X99296609Y-134594100D01*
X99287990Y-134539686D01*
X99224755Y-134345070D01*
X99131859Y-134162750D01*
X99011582Y-133997205D01*
X99011582Y-133997204D01*
X98866895Y-133852517D01*
X98701349Y-133732240D01*
X98608370Y-133684865D01*
X98557574Y-133636890D01*
X98540779Y-133569069D01*
X98563316Y-133502935D01*
X98608370Y-133463895D01*
X98615161Y-133460435D01*
X98701610Y-133416387D01*
X98776566Y-133361929D01*
X98867213Y-133296071D01*
X98867215Y-133296068D01*
X98867219Y-133296066D01*
X99011966Y-133151319D01*
X99011968Y-133151315D01*
X99011971Y-133151313D01*
X99103223Y-133025713D01*
X99132287Y-132985710D01*
X99225220Y-132803319D01*
X99288477Y-132608634D01*
X99320500Y-132406452D01*
X99320500Y-132201748D01*
X99297035Y-132053600D01*
X99288477Y-131999565D01*
X99244292Y-131863580D01*
X99225220Y-131804881D01*
X99225218Y-131804878D01*
X99225218Y-131804876D01*
X99171441Y-131699334D01*
X99158172Y-131673293D01*
X99145277Y-131604626D01*
X99171553Y-131539886D01*
X99228659Y-131499628D01*
X99268658Y-131493000D01*
X100456603Y-131493000D01*
X100523642Y-131512685D01*
G37*
%TD.AperFunction*%
%TA.AperFunction,Conductor*%
G36*
X83217508Y-120496639D02*
G01*
X83261855Y-120525140D01*
X83372786Y-120636071D01*
X83483330Y-120716384D01*
X83538390Y-120756387D01*
X83627212Y-120801644D01*
X83631080Y-120803615D01*
X83681876Y-120851590D01*
X83698671Y-120919411D01*
X83676134Y-120985546D01*
X83631080Y-121024585D01*
X83538386Y-121071815D01*
X83372786Y-121192128D01*
X83228028Y-121336886D01*
X83107715Y-121502486D01*
X83014781Y-121684876D01*
X82951522Y-121879565D01*
X82919500Y-122081748D01*
X82919500Y-122286451D01*
X82951522Y-122488634D01*
X83014781Y-122683323D01*
X83074636Y-122800792D01*
X83100663Y-122851874D01*
X83107715Y-122865713D01*
X83228028Y-123031313D01*
X83372786Y-123176071D01*
X83483330Y-123256384D01*
X83538390Y-123296387D01*
X83629196Y-123342655D01*
X83631080Y-123343615D01*
X83681876Y-123391590D01*
X83698671Y-123459411D01*
X83676134Y-123525546D01*
X83631080Y-123564585D01*
X83538386Y-123611815D01*
X83372786Y-123732128D01*
X83228028Y-123876886D01*
X83107715Y-124042486D01*
X83014781Y-124224876D01*
X82951522Y-124419565D01*
X82919500Y-124621748D01*
X82919500Y-124826451D01*
X82951522Y-125028634D01*
X83014781Y-125223323D01*
X83036326Y-125265606D01*
X83103457Y-125397358D01*
X83107715Y-125405713D01*
X83228028Y-125571313D01*
X83372786Y-125716071D01*
X83483330Y-125796384D01*
X83538390Y-125836387D01*
X83610424Y-125873090D01*
X83631629Y-125883895D01*
X83682425Y-125931870D01*
X83699220Y-125999691D01*
X83676682Y-126065826D01*
X83631629Y-126104865D01*
X83538650Y-126152240D01*
X83373105Y-126272517D01*
X83373104Y-126272517D01*
X83228417Y-126417204D01*
X83228417Y-126417205D01*
X83108140Y-126582750D01*
X83015244Y-126765070D01*
X82952009Y-126959686D01*
X82943391Y-127014100D01*
X84304314Y-127014100D01*
X84299920Y-127018494D01*
X84247259Y-127109706D01*
X84220000Y-127211439D01*
X84220000Y-127316761D01*
X84247259Y-127418494D01*
X84299920Y-127509706D01*
X84304314Y-127514100D01*
X82943391Y-127514100D01*
X82952009Y-127568513D01*
X83015244Y-127763129D01*
X83108140Y-127945449D01*
X83228417Y-128110994D01*
X83228417Y-128110995D01*
X83373104Y-128255682D01*
X83538652Y-128375961D01*
X83631628Y-128423334D01*
X83682425Y-128471308D01*
X83699220Y-128539129D01*
X83676683Y-128605264D01*
X83631630Y-128644303D01*
X83538388Y-128691813D01*
X83372786Y-128812128D01*
X83228028Y-128956886D01*
X83107715Y-129122486D01*
X83014781Y-129304876D01*
X82951522Y-129499565D01*
X82919500Y-129701748D01*
X82919500Y-129906451D01*
X82951522Y-130108634D01*
X83014781Y-130303323D01*
X83070146Y-130411981D01*
X83102482Y-130475444D01*
X83107715Y-130485713D01*
X83228028Y-130651313D01*
X83276408Y-130699693D01*
X83309893Y-130761016D01*
X83304909Y-130830708D01*
X83276408Y-130875055D01*
X82749586Y-131401878D01*
X82637781Y-131513682D01*
X82637780Y-131513684D01*
X82601293Y-131576882D01*
X82558723Y-131650615D01*
X82517799Y-131803343D01*
X82517799Y-131803345D01*
X82517799Y-131971446D01*
X82517800Y-131971459D01*
X82517800Y-136286202D01*
X82498115Y-136353241D01*
X82445311Y-136398996D01*
X82376153Y-136408940D01*
X82312597Y-136379915D01*
X82306119Y-136373883D01*
X79138519Y-133206283D01*
X79105034Y-133144960D01*
X79102200Y-133118602D01*
X79102200Y-127185045D01*
X79102200Y-127185043D01*
X79061277Y-127032316D01*
X79030203Y-126978494D01*
X78982224Y-126895390D01*
X78982218Y-126895382D01*
X78870417Y-126783581D01*
X78870409Y-126783575D01*
X78733490Y-126704526D01*
X78733485Y-126704523D01*
X78602650Y-126669466D01*
X78542990Y-126633100D01*
X78524260Y-126605987D01*
X78512286Y-126582488D01*
X78391971Y-126416886D01*
X78247213Y-126272128D01*
X78081614Y-126151815D01*
X78065450Y-126143579D01*
X77988917Y-126104583D01*
X77938123Y-126056611D01*
X77921328Y-125988790D01*
X77943865Y-125922655D01*
X77988917Y-125883616D01*
X78081610Y-125836387D01*
X78136670Y-125796384D01*
X78247213Y-125716071D01*
X78247215Y-125716068D01*
X78247219Y-125716066D01*
X78391966Y-125571319D01*
X78391968Y-125571315D01*
X78391971Y-125571313D01*
X78473569Y-125459001D01*
X78512287Y-125405710D01*
X78605220Y-125223319D01*
X78668477Y-125028634D01*
X78700500Y-124826452D01*
X78700500Y-124621748D01*
X78668477Y-124419566D01*
X78654380Y-124376181D01*
X78622019Y-124276583D01*
X78605220Y-124224881D01*
X78605218Y-124224878D01*
X78605218Y-124224876D01*
X78541536Y-124099895D01*
X78528640Y-124031226D01*
X78554916Y-123966486D01*
X78612022Y-123926228D01*
X78652021Y-123919600D01*
X79356631Y-123919600D01*
X79356647Y-123919601D01*
X79364243Y-123919601D01*
X79522354Y-123919601D01*
X79522357Y-123919601D01*
X79675085Y-123878677D01*
X79747477Y-123836881D01*
X79812016Y-123799620D01*
X79923820Y-123687816D01*
X79923820Y-123687814D01*
X79934024Y-123677611D01*
X79934028Y-123677606D01*
X83086495Y-120525138D01*
X83147816Y-120491655D01*
X83217508Y-120496639D01*
G37*
%TD.AperFunction*%
%TA.AperFunction,Conductor*%
G36*
X112015817Y-113946085D02*
G01*
X112061572Y-113998889D01*
X112071516Y-114068047D01*
X112068553Y-114082493D01*
X112024366Y-114247402D01*
X112024364Y-114247413D01*
X112004532Y-114474098D01*
X112004532Y-114474101D01*
X112024364Y-114700786D01*
X112024366Y-114700797D01*
X112083258Y-114920588D01*
X112083261Y-114920597D01*
X112179431Y-115126832D01*
X112179432Y-115126834D01*
X112309954Y-115313241D01*
X112470858Y-115474145D01*
X112470861Y-115474147D01*
X112657266Y-115604668D01*
X112863504Y-115700839D01*
X113083308Y-115759735D01*
X113245230Y-115773901D01*
X113309998Y-115779568D01*
X113310000Y-115779568D01*
X113310002Y-115779568D01*
X113366673Y-115774609D01*
X113536692Y-115759735D01*
X113756496Y-115700839D01*
X113962734Y-115604668D01*
X114149139Y-115474147D01*
X114310047Y-115313239D01*
X114440568Y-115126834D01*
X114536739Y-114920596D01*
X114595635Y-114700792D01*
X114615468Y-114474100D01*
X114595635Y-114247408D01*
X114578385Y-114183032D01*
X114551447Y-114082493D01*
X114553110Y-114012643D01*
X114592273Y-113954781D01*
X114656501Y-113927277D01*
X114671222Y-113926400D01*
X137150003Y-113926400D01*
X137217042Y-113946085D01*
X137237683Y-113962718D01*
X144979584Y-121704620D01*
X144979586Y-121704621D01*
X144979590Y-121704624D01*
X145087499Y-121766925D01*
X145135715Y-121817491D01*
X145149500Y-121874312D01*
X145149500Y-122121969D01*
X145149501Y-122121976D01*
X145155908Y-122181583D01*
X145206202Y-122316428D01*
X145206206Y-122316435D01*
X145292452Y-122431644D01*
X145292455Y-122431647D01*
X145407664Y-122517893D01*
X145407671Y-122517897D01*
X145539081Y-122566910D01*
X145595015Y-122608781D01*
X145619432Y-122674245D01*
X145604580Y-122742518D01*
X145583430Y-122770773D01*
X145461503Y-122892700D01*
X145325965Y-123086269D01*
X145325964Y-123086271D01*
X145226098Y-123300435D01*
X145226094Y-123300444D01*
X145164938Y-123528686D01*
X145164936Y-123528696D01*
X145144341Y-123764099D01*
X145144341Y-123764100D01*
X145164936Y-123999503D01*
X145164938Y-123999513D01*
X145226094Y-124227755D01*
X145226096Y-124227759D01*
X145226097Y-124227763D01*
X145325965Y-124441930D01*
X145325967Y-124441934D01*
X145423867Y-124581748D01*
X145445677Y-124612897D01*
X145461501Y-124635495D01*
X145461506Y-124635502D01*
X145628597Y-124802593D01*
X145628603Y-124802598D01*
X145814158Y-124932525D01*
X145857783Y-124987102D01*
X145864977Y-125056600D01*
X145833454Y-125118955D01*
X145814158Y-125135675D01*
X145628597Y-125265605D01*
X145461505Y-125432697D01*
X145325965Y-125626269D01*
X145325964Y-125626271D01*
X145226098Y-125840435D01*
X145226094Y-125840444D01*
X145164938Y-126068686D01*
X145164936Y-126068696D01*
X145144341Y-126304099D01*
X145144341Y-126304100D01*
X145164936Y-126539503D01*
X145164938Y-126539513D01*
X145226094Y-126767755D01*
X145226096Y-126767759D01*
X145226097Y-126767763D01*
X145315592Y-126959686D01*
X145325965Y-126981930D01*
X145325967Y-126981934D01*
X145461501Y-127175495D01*
X145461506Y-127175502D01*
X145628597Y-127342593D01*
X145628603Y-127342598D01*
X145814158Y-127472525D01*
X145857783Y-127527102D01*
X145864977Y-127596600D01*
X145833454Y-127658955D01*
X145814158Y-127675675D01*
X145628597Y-127805605D01*
X145461505Y-127972697D01*
X145325965Y-128166269D01*
X145325964Y-128166271D01*
X145226098Y-128380435D01*
X145226094Y-128380444D01*
X145164938Y-128608686D01*
X145164936Y-128608696D01*
X145144341Y-128844099D01*
X145144341Y-128844100D01*
X145164936Y-129079503D01*
X145164938Y-129079513D01*
X145226094Y-129307755D01*
X145226096Y-129307759D01*
X145226097Y-129307763D01*
X145317291Y-129503328D01*
X145325965Y-129521930D01*
X145325967Y-129521934D01*
X145461501Y-129715495D01*
X145461506Y-129715502D01*
X145628597Y-129882593D01*
X145628603Y-129882598D01*
X145814158Y-130012525D01*
X145857783Y-130067102D01*
X145864977Y-130136600D01*
X145833454Y-130198955D01*
X145814158Y-130215675D01*
X145628597Y-130345605D01*
X145461506Y-130512696D01*
X145325965Y-130706270D01*
X145325961Y-130706277D01*
X145317292Y-130724869D01*
X145271119Y-130777308D01*
X145237005Y-130792237D01*
X145222700Y-130796071D01*
X145116515Y-130824523D01*
X145085697Y-130842316D01*
X145085696Y-130842315D01*
X144979587Y-130903577D01*
X144979582Y-130903581D01*
X144920509Y-130962655D01*
X144867780Y-131015384D01*
X144867778Y-131015386D01*
X144353846Y-131529319D01*
X143865884Y-132017281D01*
X143804561Y-132050766D01*
X143778203Y-132053600D01*
X123912560Y-132053600D01*
X123845521Y-132033915D01*
X123799766Y-131981111D01*
X123789822Y-131911953D01*
X123800176Y-131877199D01*
X123813903Y-131847763D01*
X123875063Y-131619508D01*
X123895659Y-131384100D01*
X123875063Y-131148692D01*
X123813903Y-130920437D01*
X123714035Y-130706271D01*
X123714034Y-130706269D01*
X123578494Y-130512697D01*
X123411402Y-130345606D01*
X123411396Y-130345601D01*
X123225842Y-130215675D01*
X123182217Y-130161098D01*
X123175023Y-130091600D01*
X123206546Y-130029245D01*
X123225842Y-130012525D01*
X123310714Y-129953097D01*
X123411401Y-129882595D01*
X123578495Y-129715501D01*
X123714035Y-129521930D01*
X123813903Y-129307763D01*
X123875063Y-129079508D01*
X123895659Y-128844100D01*
X123875063Y-128608692D01*
X123813903Y-128380437D01*
X123714035Y-128166271D01*
X123712230Y-128163692D01*
X123578494Y-127972697D01*
X123411402Y-127805606D01*
X123411396Y-127805601D01*
X123225842Y-127675675D01*
X123182217Y-127621098D01*
X123175023Y-127551600D01*
X123206546Y-127489245D01*
X123225842Y-127472525D01*
X123303006Y-127418494D01*
X123411401Y-127342595D01*
X123578495Y-127175501D01*
X123714035Y-126981930D01*
X123813903Y-126767763D01*
X123875063Y-126539508D01*
X123895659Y-126304100D01*
X123875063Y-126068692D01*
X123813903Y-125840437D01*
X123714035Y-125626271D01*
X123675558Y-125571319D01*
X123578494Y-125432697D01*
X123411402Y-125265606D01*
X123411396Y-125265601D01*
X123225842Y-125135675D01*
X123182217Y-125081098D01*
X123175023Y-125011600D01*
X123206546Y-124949245D01*
X123225842Y-124932525D01*
X123320899Y-124865965D01*
X123411401Y-124802595D01*
X123578495Y-124635501D01*
X123714035Y-124441930D01*
X123813903Y-124227763D01*
X123875063Y-123999508D01*
X123895659Y-123764100D01*
X123875063Y-123528692D01*
X123813903Y-123300437D01*
X123714035Y-123086271D01*
X123712081Y-123083481D01*
X123578496Y-122892700D01*
X123528010Y-122842214D01*
X123456567Y-122770771D01*
X123423084Y-122709451D01*
X123428068Y-122639759D01*
X123469939Y-122583825D01*
X123500915Y-122566910D01*
X123632331Y-122517896D01*
X123747546Y-122431646D01*
X123833796Y-122316431D01*
X123884091Y-122181583D01*
X123890500Y-122121973D01*
X123890499Y-120326228D01*
X123884091Y-120266617D01*
X123833796Y-120131769D01*
X123833795Y-120131768D01*
X123833793Y-120131764D01*
X123747547Y-120016555D01*
X123747544Y-120016552D01*
X123632335Y-119930306D01*
X123632328Y-119930302D01*
X123497482Y-119880008D01*
X123497483Y-119880008D01*
X123437883Y-119873601D01*
X123437881Y-119873600D01*
X123437873Y-119873600D01*
X123437864Y-119873600D01*
X121642129Y-119873600D01*
X121642123Y-119873601D01*
X121582516Y-119880008D01*
X121447671Y-119930302D01*
X121447664Y-119930306D01*
X121332455Y-120016552D01*
X121332452Y-120016555D01*
X121246206Y-120131764D01*
X121246202Y-120131771D01*
X121195908Y-120266617D01*
X121189501Y-120326216D01*
X121189501Y-120326223D01*
X121189500Y-120326235D01*
X121189500Y-122121970D01*
X121189501Y-122121976D01*
X121195908Y-122181583D01*
X121246202Y-122316428D01*
X121246206Y-122316435D01*
X121332452Y-122431644D01*
X121332455Y-122431647D01*
X121447664Y-122517893D01*
X121447671Y-122517897D01*
X121579081Y-122566910D01*
X121635015Y-122608781D01*
X121659432Y-122674245D01*
X121644580Y-122742518D01*
X121623430Y-122770773D01*
X121501503Y-122892700D01*
X121365965Y-123086269D01*
X121365964Y-123086271D01*
X121266098Y-123300435D01*
X121266094Y-123300444D01*
X121204938Y-123528686D01*
X121204936Y-123528696D01*
X121184341Y-123764099D01*
X121184341Y-123764100D01*
X121204936Y-123999503D01*
X121204938Y-123999513D01*
X121266094Y-124227755D01*
X121266096Y-124227759D01*
X121266097Y-124227763D01*
X121365965Y-124441930D01*
X121365967Y-124441934D01*
X121463867Y-124581748D01*
X121485677Y-124612897D01*
X121501501Y-124635495D01*
X121501506Y-124635502D01*
X121668597Y-124802593D01*
X121668603Y-124802598D01*
X121854158Y-124932525D01*
X121897783Y-124987102D01*
X121904977Y-125056600D01*
X121873454Y-125118955D01*
X121854158Y-125135675D01*
X121668597Y-125265605D01*
X121501505Y-125432697D01*
X121365965Y-125626269D01*
X121365964Y-125626271D01*
X121266098Y-125840435D01*
X121266094Y-125840444D01*
X121204938Y-126068686D01*
X121204936Y-126068696D01*
X121184341Y-126304099D01*
X121184341Y-126304100D01*
X121204936Y-126539503D01*
X121204938Y-126539513D01*
X121266094Y-126767755D01*
X121266096Y-126767759D01*
X121266097Y-126767763D01*
X121355592Y-126959686D01*
X121365965Y-126981930D01*
X121365967Y-126981934D01*
X121501501Y-127175495D01*
X121501506Y-127175502D01*
X121668597Y-127342593D01*
X121668603Y-127342598D01*
X121854158Y-127472525D01*
X121897783Y-127527102D01*
X121904977Y-127596600D01*
X121873454Y-127658955D01*
X121854158Y-127675675D01*
X121668597Y-127805605D01*
X121521500Y-127952703D01*
X121460177Y-127986188D01*
X121390485Y-127981204D01*
X121346138Y-127952703D01*
X119655890Y-126262455D01*
X119655888Y-126262452D01*
X119537017Y-126143581D01*
X119537016Y-126143580D01*
X119450204Y-126093460D01*
X119450204Y-126093459D01*
X119450200Y-126093458D01*
X119400085Y-126064523D01*
X119247357Y-126023599D01*
X119089243Y-126023599D01*
X119081647Y-126023599D01*
X119081631Y-126023600D01*
X114541692Y-126023600D01*
X114474653Y-126003915D01*
X114440119Y-125970725D01*
X114325064Y-125806408D01*
X114310045Y-125784958D01*
X114149141Y-125624054D01*
X113962734Y-125493532D01*
X113962732Y-125493531D01*
X113756497Y-125397361D01*
X113756488Y-125397358D01*
X113536697Y-125338466D01*
X113536693Y-125338465D01*
X113536692Y-125338465D01*
X113536691Y-125338464D01*
X113536686Y-125338464D01*
X113310002Y-125318632D01*
X113309998Y-125318632D01*
X113083313Y-125338464D01*
X113083302Y-125338466D01*
X112863511Y-125397358D01*
X112863502Y-125397361D01*
X112657267Y-125493531D01*
X112657265Y-125493532D01*
X112470858Y-125624054D01*
X112309954Y-125784958D01*
X112179432Y-125971365D01*
X112179431Y-125971367D01*
X112083261Y-126177602D01*
X112083258Y-126177611D01*
X112024366Y-126397402D01*
X112024364Y-126397413D01*
X112004532Y-126624098D01*
X112004532Y-126624101D01*
X112024364Y-126850786D01*
X112024366Y-126850797D01*
X112083258Y-127070588D01*
X112083261Y-127070597D01*
X112179431Y-127276832D01*
X112179432Y-127276834D01*
X112309954Y-127463241D01*
X112470858Y-127624145D01*
X112470861Y-127624147D01*
X112657266Y-127754668D01*
X112863504Y-127850839D01*
X113083308Y-127909735D01*
X113245230Y-127923901D01*
X113309998Y-127929568D01*
X113310000Y-127929568D01*
X113310002Y-127929568D01*
X113366673Y-127924609D01*
X113536692Y-127909735D01*
X113756496Y-127850839D01*
X113962734Y-127754668D01*
X114149139Y-127624147D01*
X114310047Y-127463239D01*
X114440118Y-127277475D01*
X114494693Y-127233852D01*
X114541692Y-127224600D01*
X118868203Y-127224600D01*
X118935242Y-127244285D01*
X118955884Y-127260919D01*
X120903439Y-129208474D01*
X120903449Y-129208485D01*
X120907779Y-129212815D01*
X120907780Y-129212816D01*
X121019584Y-129324620D01*
X121095816Y-129368632D01*
X121151178Y-129400596D01*
X121156515Y-129403677D01*
X121277005Y-129435962D01*
X121336662Y-129472324D01*
X121357290Y-129503328D01*
X121365963Y-129521928D01*
X121365965Y-129521931D01*
X121501501Y-129715495D01*
X121501506Y-129715502D01*
X121668597Y-129882593D01*
X121668603Y-129882598D01*
X121854158Y-130012525D01*
X121897783Y-130067102D01*
X121904977Y-130136600D01*
X121873454Y-130198955D01*
X121854158Y-130215675D01*
X121668597Y-130345605D01*
X121501505Y-130512697D01*
X121365965Y-130706269D01*
X121365964Y-130706271D01*
X121266098Y-130920435D01*
X121266094Y-130920444D01*
X121204938Y-131148686D01*
X121204936Y-131148696D01*
X121184341Y-131384099D01*
X121184341Y-131384100D01*
X121204936Y-131619503D01*
X121204938Y-131619513D01*
X121266094Y-131847755D01*
X121266096Y-131847759D01*
X121266097Y-131847763D01*
X121360759Y-132050766D01*
X121365965Y-132061930D01*
X121365968Y-132061934D01*
X121424469Y-132145484D01*
X121446796Y-132211690D01*
X121429785Y-132279458D01*
X121410575Y-132304288D01*
X118096084Y-135618781D01*
X118034761Y-135652266D01*
X118008403Y-135655100D01*
X114483926Y-135655100D01*
X114416887Y-135635415D01*
X114371132Y-135582611D01*
X114361188Y-135513453D01*
X114382351Y-135459977D01*
X114440568Y-135376834D01*
X114536739Y-135170596D01*
X114595635Y-134950792D01*
X114615468Y-134724100D01*
X114612577Y-134691061D01*
X114597401Y-134517593D01*
X114595635Y-134497408D01*
X114536739Y-134277604D01*
X114440568Y-134071366D01*
X114310047Y-133884961D01*
X114310045Y-133884958D01*
X114149141Y-133724054D01*
X113962734Y-133593532D01*
X113962732Y-133593531D01*
X113756497Y-133497361D01*
X113756488Y-133497358D01*
X113536697Y-133438466D01*
X113536693Y-133438465D01*
X113536692Y-133438465D01*
X113536691Y-133438464D01*
X113536686Y-133438464D01*
X113310002Y-133418632D01*
X113309998Y-133418632D01*
X113083313Y-133438464D01*
X113083302Y-133438466D01*
X112863511Y-133497358D01*
X112863502Y-133497361D01*
X112657267Y-133593531D01*
X112657265Y-133593532D01*
X112470858Y-133724054D01*
X112309954Y-133884958D01*
X112179432Y-134071365D01*
X112179431Y-134071367D01*
X112083261Y-134277602D01*
X112083258Y-134277611D01*
X112024366Y-134497402D01*
X112024364Y-134497413D01*
X112004532Y-134724098D01*
X112004532Y-134724101D01*
X112024364Y-134950786D01*
X112024366Y-134950797D01*
X112083258Y-135170588D01*
X112083261Y-135170597D01*
X112179431Y-135376832D01*
X112179432Y-135376834D01*
X112237649Y-135459977D01*
X112259976Y-135526183D01*
X112242966Y-135593951D01*
X112192017Y-135641763D01*
X112136074Y-135655100D01*
X106863926Y-135655100D01*
X106796887Y-135635415D01*
X106751132Y-135582611D01*
X106741188Y-135513453D01*
X106762351Y-135459977D01*
X106820568Y-135376834D01*
X106916739Y-135170596D01*
X106975635Y-134950792D01*
X106995468Y-134724100D01*
X106992577Y-134691061D01*
X106977401Y-134517593D01*
X106975635Y-134497408D01*
X106916739Y-134277604D01*
X106820568Y-134071366D01*
X106690047Y-133884961D01*
X106690045Y-133884958D01*
X106529141Y-133724054D01*
X106342734Y-133593532D01*
X106342732Y-133593531D01*
X106136497Y-133497361D01*
X106136488Y-133497358D01*
X105916697Y-133438466D01*
X105916693Y-133438465D01*
X105916692Y-133438465D01*
X105916691Y-133438464D01*
X105916686Y-133438464D01*
X105690002Y-133418632D01*
X105689998Y-133418632D01*
X105463313Y-133438464D01*
X105463302Y-133438466D01*
X105243511Y-133497358D01*
X105243502Y-133497361D01*
X105037267Y-133593531D01*
X105037265Y-133593532D01*
X104850862Y-133724051D01*
X104731855Y-133843058D01*
X104670532Y-133876542D01*
X104600840Y-133871558D01*
X104556493Y-133843057D01*
X101244290Y-130530855D01*
X101244288Y-130530852D01*
X101125417Y-130411981D01*
X101125416Y-130411980D01*
X101038604Y-130361860D01*
X101038604Y-130361859D01*
X101038600Y-130361858D01*
X100988485Y-130332923D01*
X100835757Y-130291999D01*
X100677643Y-130291999D01*
X100670047Y-130291999D01*
X100670031Y-130292000D01*
X99386573Y-130292000D01*
X99319534Y-130272315D01*
X99273779Y-130219511D01*
X99263835Y-130150353D01*
X99268642Y-130129682D01*
X99288476Y-130068638D01*
X99288476Y-130068637D01*
X99288477Y-130068634D01*
X99320500Y-129866452D01*
X99320500Y-129661748D01*
X99295408Y-129503328D01*
X99288477Y-129459565D01*
X99244630Y-129324620D01*
X99225220Y-129264881D01*
X99225218Y-129264878D01*
X99225218Y-129264876D01*
X99178138Y-129172478D01*
X99132287Y-129082490D01*
X99090329Y-129024739D01*
X99011971Y-128916886D01*
X98867213Y-128772128D01*
X98701611Y-128651813D01*
X98608369Y-128604303D01*
X98557574Y-128556329D01*
X98540779Y-128488507D01*
X98563317Y-128422373D01*
X98608371Y-128383334D01*
X98701347Y-128335961D01*
X98866894Y-128215682D01*
X98866895Y-128215682D01*
X99011582Y-128070995D01*
X99011582Y-128070994D01*
X99131859Y-127905449D01*
X99224755Y-127723129D01*
X99287990Y-127528513D01*
X99296609Y-127474100D01*
X97935686Y-127474100D01*
X97940080Y-127469706D01*
X97992741Y-127378494D01*
X98020000Y-127276761D01*
X98020000Y-127171439D01*
X97992741Y-127069706D01*
X97940080Y-126978494D01*
X97935686Y-126974100D01*
X99296609Y-126974100D01*
X99287990Y-126919686D01*
X99224755Y-126725070D01*
X99131859Y-126542750D01*
X99011582Y-126377205D01*
X99011582Y-126377204D01*
X98866895Y-126232517D01*
X98701349Y-126112240D01*
X98608370Y-126064865D01*
X98557574Y-126016890D01*
X98540779Y-125949069D01*
X98563316Y-125882935D01*
X98608370Y-125843895D01*
X98615161Y-125840435D01*
X98701610Y-125796387D01*
X98722770Y-125781013D01*
X98867213Y-125676071D01*
X98867215Y-125676068D01*
X98867219Y-125676066D01*
X99011966Y-125531319D01*
X99011968Y-125531315D01*
X99011971Y-125531313D01*
X99132284Y-125365714D01*
X99132285Y-125365713D01*
X99132287Y-125365710D01*
X99162645Y-125306128D01*
X99210616Y-125255335D01*
X99278436Y-125238539D01*
X99344572Y-125261075D01*
X99360809Y-125274744D01*
X103951481Y-129865416D01*
X103984966Y-129926739D01*
X103987800Y-129953097D01*
X103987800Y-130595043D01*
X103987800Y-130753157D01*
X104020820Y-130876387D01*
X104028723Y-130905883D01*
X104028726Y-130905890D01*
X104107775Y-131042809D01*
X104107779Y-131042814D01*
X104107780Y-131042816D01*
X104219584Y-131154620D01*
X104219586Y-131154621D01*
X104219590Y-131154624D01*
X104284008Y-131191815D01*
X104356516Y-131233677D01*
X104483331Y-131267656D01*
X104542988Y-131304020D01*
X104558624Y-131325433D01*
X104559434Y-131326837D01*
X104689954Y-131513241D01*
X104850858Y-131674145D01*
X104850861Y-131674147D01*
X105037266Y-131804668D01*
X105243504Y-131900839D01*
X105463308Y-131959735D01*
X105625230Y-131973901D01*
X105689998Y-131979568D01*
X105690000Y-131979568D01*
X105690002Y-131979568D01*
X105746673Y-131974609D01*
X105916692Y-131959735D01*
X106136496Y-131900839D01*
X106342734Y-131804668D01*
X106529139Y-131674147D01*
X106690047Y-131513239D01*
X106820568Y-131326834D01*
X106916739Y-131120596D01*
X106975635Y-130900792D01*
X106995468Y-130674100D01*
X106995468Y-130674098D01*
X112004532Y-130674098D01*
X112004532Y-130674101D01*
X112024364Y-130900786D01*
X112024366Y-130900797D01*
X112083258Y-131120588D01*
X112083261Y-131120597D01*
X112179431Y-131326832D01*
X112179432Y-131326834D01*
X112309954Y-131513241D01*
X112470858Y-131674145D01*
X112470861Y-131674147D01*
X112657266Y-131804668D01*
X112863504Y-131900839D01*
X113083308Y-131959735D01*
X113245230Y-131973901D01*
X113309998Y-131979568D01*
X113310000Y-131979568D01*
X113310002Y-131979568D01*
X113366673Y-131974609D01*
X113536692Y-131959735D01*
X113756496Y-131900839D01*
X113962734Y-131804668D01*
X114149139Y-131674147D01*
X114310047Y-131513239D01*
X114440568Y-131326834D01*
X114536739Y-131120596D01*
X114595635Y-130900792D01*
X114615468Y-130674100D01*
X114613474Y-130651313D01*
X114604517Y-130548929D01*
X114595635Y-130447408D01*
X114545760Y-130261271D01*
X114536741Y-130227611D01*
X114536738Y-130227602D01*
X114525953Y-130204474D01*
X114440568Y-130021366D01*
X114310047Y-129834961D01*
X114310045Y-129834958D01*
X114149141Y-129674054D01*
X113962734Y-129543532D01*
X113962732Y-129543531D01*
X113756497Y-129447361D01*
X113756488Y-129447358D01*
X113536697Y-129388466D01*
X113536693Y-129388465D01*
X113536692Y-129388465D01*
X113536691Y-129388464D01*
X113536686Y-129388464D01*
X113310002Y-129368632D01*
X113309998Y-129368632D01*
X113083313Y-129388464D01*
X113083302Y-129388466D01*
X112863511Y-129447358D01*
X112863502Y-129447361D01*
X112657267Y-129543531D01*
X112657265Y-129543532D01*
X112470858Y-129674054D01*
X112309954Y-129834958D01*
X112179432Y-130021365D01*
X112179431Y-130021367D01*
X112083261Y-130227602D01*
X112083258Y-130227611D01*
X112024366Y-130447402D01*
X112024364Y-130447413D01*
X112004532Y-130674098D01*
X106995468Y-130674098D01*
X106993474Y-130651313D01*
X106984517Y-130548929D01*
X106975635Y-130447408D01*
X106925760Y-130261271D01*
X106916741Y-130227611D01*
X106916738Y-130227602D01*
X106905953Y-130204474D01*
X106820568Y-130021366D01*
X106690047Y-129834961D01*
X106690045Y-129834958D01*
X106529141Y-129674054D01*
X106342734Y-129543532D01*
X106342732Y-129543531D01*
X106136497Y-129447361D01*
X106136488Y-129447358D01*
X105916697Y-129388466D01*
X105916693Y-129388465D01*
X105916692Y-129388465D01*
X105916691Y-129388464D01*
X105916686Y-129388464D01*
X105690002Y-129368632D01*
X105689998Y-129368632D01*
X105463313Y-129388464D01*
X105463302Y-129388466D01*
X105265666Y-129441422D01*
X105195816Y-129439759D01*
X105137954Y-129400596D01*
X105126191Y-129383655D01*
X105068820Y-129284284D01*
X104957016Y-129172480D01*
X104957015Y-129172479D01*
X104952685Y-129168149D01*
X104952674Y-129168139D01*
X102408633Y-126624098D01*
X104384532Y-126624098D01*
X104384532Y-126624101D01*
X104404364Y-126850786D01*
X104404366Y-126850797D01*
X104463258Y-127070588D01*
X104463261Y-127070597D01*
X104559431Y-127276832D01*
X104559432Y-127276834D01*
X104689954Y-127463241D01*
X104850858Y-127624145D01*
X104850861Y-127624147D01*
X105037266Y-127754668D01*
X105243504Y-127850839D01*
X105463308Y-127909735D01*
X105625230Y-127923901D01*
X105689998Y-127929568D01*
X105690000Y-127929568D01*
X105690002Y-127929568D01*
X105746673Y-127924609D01*
X105916692Y-127909735D01*
X106136496Y-127850839D01*
X106342734Y-127754668D01*
X106529139Y-127624147D01*
X106690047Y-127463239D01*
X106820568Y-127276834D01*
X106916739Y-127070596D01*
X106975635Y-126850792D01*
X106995468Y-126624100D01*
X106975635Y-126397408D01*
X106916739Y-126177604D01*
X106820568Y-125971366D01*
X106722839Y-125831793D01*
X106690045Y-125784958D01*
X106529141Y-125624054D01*
X106342734Y-125493532D01*
X106342732Y-125493531D01*
X106136497Y-125397361D01*
X106136488Y-125397358D01*
X105916697Y-125338466D01*
X105916693Y-125338465D01*
X105916692Y-125338465D01*
X105916691Y-125338464D01*
X105916686Y-125338464D01*
X105690002Y-125318632D01*
X105689998Y-125318632D01*
X105463313Y-125338464D01*
X105463302Y-125338466D01*
X105243511Y-125397358D01*
X105243502Y-125397361D01*
X105037267Y-125493531D01*
X105037265Y-125493532D01*
X104850858Y-125624054D01*
X104689954Y-125784958D01*
X104559432Y-125971365D01*
X104559431Y-125971367D01*
X104463261Y-126177602D01*
X104463258Y-126177611D01*
X104404366Y-126397402D01*
X104404364Y-126397413D01*
X104384532Y-126624098D01*
X102408633Y-126624098D01*
X98986890Y-123202355D01*
X98986888Y-123202352D01*
X98981591Y-123197055D01*
X98979688Y-123193570D01*
X98971397Y-123183457D01*
X98971395Y-123183454D01*
X98973425Y-123182100D01*
X98948106Y-123135732D01*
X98953090Y-123066040D01*
X98981588Y-123021695D01*
X99011966Y-122991319D01*
X99132287Y-122825710D01*
X99144258Y-122802214D01*
X99192231Y-122751419D01*
X99222642Y-122738736D01*
X99353485Y-122703677D01*
X99424301Y-122662791D01*
X99490416Y-122624620D01*
X99540938Y-122574098D01*
X104384532Y-122574098D01*
X104384532Y-122574101D01*
X104404364Y-122800786D01*
X104404366Y-122800797D01*
X104463258Y-123020588D01*
X104463261Y-123020596D01*
X104559431Y-123226832D01*
X104559432Y-123226834D01*
X104689954Y-123413241D01*
X104850858Y-123574145D01*
X104850861Y-123574147D01*
X105037266Y-123704668D01*
X105243504Y-123800839D01*
X105463308Y-123859735D01*
X105625230Y-123873901D01*
X105689998Y-123879568D01*
X105690000Y-123879568D01*
X105690002Y-123879568D01*
X105746673Y-123874609D01*
X105916692Y-123859735D01*
X106136496Y-123800839D01*
X106342734Y-123704668D01*
X106529139Y-123574147D01*
X106690047Y-123413239D01*
X106820568Y-123226834D01*
X106916739Y-123020596D01*
X106975635Y-122800792D01*
X106992634Y-122606484D01*
X106995468Y-122574101D01*
X106995468Y-122574098D01*
X112004532Y-122574098D01*
X112004532Y-122574101D01*
X112024364Y-122800786D01*
X112024366Y-122800797D01*
X112083258Y-123020588D01*
X112083261Y-123020596D01*
X112179431Y-123226832D01*
X112179432Y-123226834D01*
X112309954Y-123413241D01*
X112470858Y-123574145D01*
X112470861Y-123574147D01*
X112657266Y-123704668D01*
X112863504Y-123800839D01*
X113083308Y-123859735D01*
X113245230Y-123873901D01*
X113309998Y-123879568D01*
X113310000Y-123879568D01*
X113310002Y-123879568D01*
X113366673Y-123874609D01*
X113536692Y-123859735D01*
X113756496Y-123800839D01*
X113962734Y-123704668D01*
X114149139Y-123574147D01*
X114310047Y-123413239D01*
X114440568Y-123226834D01*
X114536739Y-123020596D01*
X114595635Y-122800792D01*
X114612634Y-122606484D01*
X114615468Y-122574101D01*
X114615468Y-122574098D01*
X114609801Y-122509330D01*
X114595635Y-122347408D01*
X114536739Y-122127604D01*
X114440568Y-121921366D01*
X114310047Y-121734961D01*
X114310045Y-121734958D01*
X114149141Y-121574054D01*
X113962734Y-121443532D01*
X113962732Y-121443531D01*
X113756497Y-121347361D01*
X113756488Y-121347358D01*
X113536697Y-121288466D01*
X113536693Y-121288465D01*
X113536692Y-121288465D01*
X113536691Y-121288464D01*
X113536686Y-121288464D01*
X113310002Y-121268632D01*
X113309998Y-121268632D01*
X113083313Y-121288464D01*
X113083302Y-121288466D01*
X112863511Y-121347358D01*
X112863502Y-121347361D01*
X112657267Y-121443531D01*
X112657265Y-121443532D01*
X112470858Y-121574054D01*
X112309954Y-121734958D01*
X112179432Y-121921365D01*
X112179431Y-121921367D01*
X112083261Y-122127602D01*
X112083258Y-122127611D01*
X112024366Y-122347402D01*
X112024364Y-122347413D01*
X112004532Y-122574098D01*
X106995468Y-122574098D01*
X106989801Y-122509330D01*
X106975635Y-122347408D01*
X106916739Y-122127604D01*
X106820568Y-121921366D01*
X106690047Y-121734961D01*
X106690045Y-121734958D01*
X106529141Y-121574054D01*
X106342734Y-121443532D01*
X106342732Y-121443531D01*
X106136497Y-121347361D01*
X106136488Y-121347358D01*
X105916697Y-121288466D01*
X105916693Y-121288465D01*
X105916692Y-121288465D01*
X105916691Y-121288464D01*
X105916686Y-121288464D01*
X105690002Y-121268632D01*
X105689998Y-121268632D01*
X105463313Y-121288464D01*
X105463302Y-121288466D01*
X105243511Y-121347358D01*
X105243502Y-121347361D01*
X105037267Y-121443531D01*
X105037265Y-121443532D01*
X104850858Y-121574054D01*
X104689954Y-121734958D01*
X104559432Y-121921365D01*
X104559431Y-121921367D01*
X104463261Y-122127602D01*
X104463258Y-122127611D01*
X104404366Y-122347402D01*
X104404364Y-122347413D01*
X104384532Y-122574098D01*
X99540938Y-122574098D01*
X99602220Y-122512816D01*
X99602220Y-122512814D01*
X99612424Y-122502611D01*
X99612428Y-122502606D01*
X104338065Y-117776968D01*
X104399386Y-117743485D01*
X104469078Y-117748469D01*
X104525011Y-117790341D01*
X104549428Y-117855805D01*
X104538126Y-117917056D01*
X104463262Y-118077602D01*
X104463258Y-118077611D01*
X104404366Y-118297402D01*
X104404364Y-118297413D01*
X104384532Y-118524098D01*
X104384532Y-118524101D01*
X104404364Y-118750786D01*
X104404366Y-118750797D01*
X104463258Y-118970588D01*
X104463261Y-118970597D01*
X104559431Y-119176832D01*
X104559432Y-119176834D01*
X104689954Y-119363241D01*
X104850858Y-119524145D01*
X104850861Y-119524147D01*
X105037266Y-119654668D01*
X105243504Y-119750839D01*
X105463308Y-119809735D01*
X105625230Y-119823901D01*
X105689998Y-119829568D01*
X105690000Y-119829568D01*
X105690002Y-119829568D01*
X105746673Y-119824609D01*
X105916692Y-119809735D01*
X106136496Y-119750839D01*
X106342734Y-119654668D01*
X106529139Y-119524147D01*
X106690047Y-119363239D01*
X106820568Y-119176834D01*
X106916739Y-118970596D01*
X106975635Y-118750792D01*
X106995468Y-118524100D01*
X106995468Y-118524098D01*
X112004532Y-118524098D01*
X112004532Y-118524101D01*
X112024364Y-118750786D01*
X112024366Y-118750797D01*
X112083258Y-118970588D01*
X112083261Y-118970597D01*
X112179431Y-119176832D01*
X112179432Y-119176834D01*
X112309954Y-119363241D01*
X112470858Y-119524145D01*
X112470861Y-119524147D01*
X112657266Y-119654668D01*
X112863504Y-119750839D01*
X113083308Y-119809735D01*
X113245230Y-119823901D01*
X113309998Y-119829568D01*
X113310000Y-119829568D01*
X113310002Y-119829568D01*
X113366673Y-119824609D01*
X113536692Y-119809735D01*
X113756496Y-119750839D01*
X113962734Y-119654668D01*
X114149139Y-119524147D01*
X114310047Y-119363239D01*
X114440568Y-119176834D01*
X114536739Y-118970596D01*
X114595635Y-118750792D01*
X114615468Y-118524100D01*
X114612643Y-118491815D01*
X114604513Y-118398881D01*
X114595635Y-118297408D01*
X114550916Y-118130515D01*
X114536741Y-118077611D01*
X114536738Y-118077602D01*
X114440568Y-117871366D01*
X114310047Y-117684961D01*
X114310045Y-117684958D01*
X114149141Y-117524054D01*
X113962734Y-117393532D01*
X113962732Y-117393531D01*
X113756497Y-117297361D01*
X113756488Y-117297358D01*
X113536697Y-117238466D01*
X113536693Y-117238465D01*
X113536692Y-117238465D01*
X113536691Y-117238464D01*
X113536686Y-117238464D01*
X113310002Y-117218632D01*
X113309998Y-117218632D01*
X113083313Y-117238464D01*
X113083302Y-117238466D01*
X112863511Y-117297358D01*
X112863502Y-117297361D01*
X112657267Y-117393531D01*
X112657265Y-117393532D01*
X112470858Y-117524054D01*
X112309954Y-117684958D01*
X112179432Y-117871365D01*
X112179431Y-117871367D01*
X112083261Y-118077602D01*
X112083258Y-118077611D01*
X112024366Y-118297402D01*
X112024364Y-118297413D01*
X112004532Y-118524098D01*
X106995468Y-118524098D01*
X106992643Y-118491815D01*
X106984513Y-118398881D01*
X106975635Y-118297408D01*
X106930916Y-118130515D01*
X106916741Y-118077611D01*
X106916738Y-118077602D01*
X106820568Y-117871366D01*
X106690047Y-117684961D01*
X106690045Y-117684958D01*
X106529141Y-117524054D01*
X106342734Y-117393532D01*
X106342732Y-117393531D01*
X106136497Y-117297361D01*
X106136488Y-117297358D01*
X105916697Y-117238466D01*
X105916693Y-117238465D01*
X105916692Y-117238465D01*
X105916691Y-117238464D01*
X105916686Y-117238464D01*
X105690002Y-117218632D01*
X105689998Y-117218632D01*
X105463313Y-117238464D01*
X105463302Y-117238466D01*
X105243511Y-117297358D01*
X105243502Y-117297362D01*
X105082956Y-117372226D01*
X105013878Y-117382718D01*
X104950094Y-117354198D01*
X104911855Y-117295722D01*
X104911300Y-117225854D01*
X104942868Y-117172165D01*
X106058713Y-116056321D01*
X106058716Y-116056320D01*
X106170520Y-115944516D01*
X106220639Y-115857704D01*
X106249577Y-115807585D01*
X106283557Y-115680769D01*
X106319921Y-115621111D01*
X106341339Y-115605473D01*
X106342720Y-115604674D01*
X106342734Y-115604668D01*
X106529139Y-115474147D01*
X106690047Y-115313239D01*
X106820568Y-115126834D01*
X106916739Y-114920596D01*
X106975635Y-114700792D01*
X106995468Y-114474100D01*
X106975635Y-114247408D01*
X106958385Y-114183032D01*
X106931447Y-114082493D01*
X106933110Y-114012643D01*
X106972273Y-113954781D01*
X107036501Y-113927277D01*
X107051222Y-113926400D01*
X111948778Y-113926400D01*
X112015817Y-113946085D01*
G37*
%TD.AperFunction*%
%TA.AperFunction,Conductor*%
G36*
X88218834Y-119894913D02*
G01*
X88274767Y-119936785D01*
X88299184Y-120002249D01*
X88299500Y-120011095D01*
X88299500Y-120451970D01*
X88299501Y-120451976D01*
X88305908Y-120511583D01*
X88356202Y-120646428D01*
X88356206Y-120646435D01*
X88442452Y-120761644D01*
X88442455Y-120761647D01*
X88557664Y-120847893D01*
X88557671Y-120847897D01*
X88567573Y-120851590D01*
X88692517Y-120898191D01*
X88729441Y-120902160D01*
X88793989Y-120928896D01*
X88833838Y-120986288D01*
X88836333Y-121056113D01*
X88800681Y-121116202D01*
X88789071Y-121125766D01*
X88752784Y-121152130D01*
X88608028Y-121296886D01*
X88487715Y-121462486D01*
X88394781Y-121644876D01*
X88331522Y-121839565D01*
X88299500Y-122041748D01*
X88299500Y-122246451D01*
X88331522Y-122448634D01*
X88394781Y-122643323D01*
X88445915Y-122743677D01*
X88466766Y-122784600D01*
X88487715Y-122825713D01*
X88608028Y-122991313D01*
X88752786Y-123136071D01*
X88877713Y-123226834D01*
X88918390Y-123256387D01*
X89004839Y-123300435D01*
X89011080Y-123303615D01*
X89061876Y-123351590D01*
X89078671Y-123419411D01*
X89056134Y-123485546D01*
X89011080Y-123524585D01*
X88918386Y-123571815D01*
X88752786Y-123692128D01*
X88752782Y-123692132D01*
X88608034Y-123836881D01*
X88608028Y-123836886D01*
X88487715Y-124002486D01*
X88394781Y-124184876D01*
X88331522Y-124379565D01*
X88299500Y-124581748D01*
X88299500Y-124786451D01*
X88331522Y-124988634D01*
X88394781Y-125183323D01*
X88436707Y-125265605D01*
X88473831Y-125338466D01*
X88487715Y-125365713D01*
X88608028Y-125531313D01*
X88752786Y-125676071D01*
X88902659Y-125784958D01*
X88918390Y-125796387D01*
X89004839Y-125840435D01*
X89011080Y-125843615D01*
X89061876Y-125891590D01*
X89078671Y-125959411D01*
X89056134Y-126025546D01*
X89011080Y-126064585D01*
X88918386Y-126111815D01*
X88752786Y-126232128D01*
X88608028Y-126376886D01*
X88487715Y-126542486D01*
X88394781Y-126724876D01*
X88331522Y-126919565D01*
X88299500Y-127121748D01*
X88299500Y-127326451D01*
X88331522Y-127528634D01*
X88394781Y-127723323D01*
X88487715Y-127905713D01*
X88608028Y-128071313D01*
X88621509Y-128084794D01*
X88654994Y-128146117D01*
X88650010Y-128215809D01*
X88621509Y-128260156D01*
X86444384Y-130437281D01*
X86383061Y-130470766D01*
X86356703Y-130473600D01*
X86340266Y-130473600D01*
X86273227Y-130453915D01*
X86227472Y-130401111D01*
X86217528Y-130331953D01*
X86224080Y-130308070D01*
X86223714Y-130307952D01*
X86225218Y-130303322D01*
X86225220Y-130303319D01*
X86288477Y-130108634D01*
X86320500Y-129906452D01*
X86320500Y-129701748D01*
X86295441Y-129543532D01*
X86288477Y-129499565D01*
X86245933Y-129368630D01*
X86225220Y-129304881D01*
X86225218Y-129304878D01*
X86225218Y-129304876D01*
X86178309Y-129212813D01*
X86132287Y-129122490D01*
X86124556Y-129111849D01*
X86011971Y-128956886D01*
X85867213Y-128812128D01*
X85701611Y-128691813D01*
X85608369Y-128644303D01*
X85557574Y-128596329D01*
X85540779Y-128528507D01*
X85563317Y-128462373D01*
X85608371Y-128423334D01*
X85701347Y-128375961D01*
X85866894Y-128255682D01*
X85866895Y-128255682D01*
X86011582Y-128110995D01*
X86011582Y-128110994D01*
X86131859Y-127945449D01*
X86224755Y-127763129D01*
X86287990Y-127568513D01*
X86296609Y-127514100D01*
X84935686Y-127514100D01*
X84940080Y-127509706D01*
X84992741Y-127418494D01*
X85020000Y-127316761D01*
X85020000Y-127211439D01*
X84992741Y-127109706D01*
X84940080Y-127018494D01*
X84935686Y-127014100D01*
X86296609Y-127014100D01*
X86287990Y-126959686D01*
X86224755Y-126765070D01*
X86131859Y-126582750D01*
X86011582Y-126417205D01*
X86011582Y-126417204D01*
X85866895Y-126272517D01*
X85701349Y-126152240D01*
X85608370Y-126104865D01*
X85557574Y-126056890D01*
X85540779Y-125989069D01*
X85563316Y-125922935D01*
X85608370Y-125883895D01*
X85608920Y-125883615D01*
X85701610Y-125836387D01*
X85756670Y-125796384D01*
X85867213Y-125716071D01*
X85867215Y-125716068D01*
X85867219Y-125716066D01*
X86011966Y-125571319D01*
X86011968Y-125571315D01*
X86011971Y-125571313D01*
X86093569Y-125459001D01*
X86132287Y-125405710D01*
X86225220Y-125223319D01*
X86288477Y-125028634D01*
X86320500Y-124826452D01*
X86320500Y-124621748D01*
X86288477Y-124419566D01*
X86274380Y-124376181D01*
X86242019Y-124276583D01*
X86225220Y-124224881D01*
X86225218Y-124224878D01*
X86225218Y-124224876D01*
X86161536Y-124099895D01*
X86132287Y-124042490D01*
X86101059Y-123999508D01*
X86011971Y-123876886D01*
X85867213Y-123732128D01*
X85701614Y-123611815D01*
X85627686Y-123574147D01*
X85608917Y-123564583D01*
X85558123Y-123516611D01*
X85541328Y-123448790D01*
X85563865Y-123382655D01*
X85608917Y-123343616D01*
X85701610Y-123296387D01*
X85756670Y-123256384D01*
X85867213Y-123176071D01*
X85867215Y-123176068D01*
X85867219Y-123176066D01*
X86011966Y-123031319D01*
X86011968Y-123031315D01*
X86011971Y-123031313D01*
X86112678Y-122892700D01*
X86132287Y-122865710D01*
X86144259Y-122842214D01*
X86192233Y-122791417D01*
X86222647Y-122778734D01*
X86353484Y-122743677D01*
X86490416Y-122664620D01*
X86602220Y-122552816D01*
X86681277Y-122415884D01*
X86722200Y-122263157D01*
X86722200Y-121340396D01*
X86741885Y-121273357D01*
X86758514Y-121252720D01*
X88087821Y-119923412D01*
X88149142Y-119889929D01*
X88218834Y-119894913D01*
G37*
%TD.AperFunction*%
%TA.AperFunction,Conductor*%
G36*
X96217508Y-125536639D02*
G01*
X96261855Y-125565140D01*
X96372786Y-125676071D01*
X96522659Y-125784958D01*
X96538390Y-125796387D01*
X96610424Y-125833090D01*
X96631629Y-125843895D01*
X96682425Y-125891870D01*
X96699220Y-125959691D01*
X96676682Y-126025826D01*
X96631629Y-126064865D01*
X96538650Y-126112240D01*
X96373105Y-126232517D01*
X96373104Y-126232517D01*
X96228417Y-126377204D01*
X96228417Y-126377205D01*
X96108140Y-126542750D01*
X96015244Y-126725070D01*
X95952009Y-126919686D01*
X95943391Y-126974100D01*
X97304314Y-126974100D01*
X97299920Y-126978494D01*
X97247259Y-127069706D01*
X97220000Y-127171439D01*
X97220000Y-127276761D01*
X97247259Y-127378494D01*
X97299920Y-127469706D01*
X97304314Y-127474100D01*
X95943391Y-127474100D01*
X95952009Y-127528513D01*
X96015244Y-127723129D01*
X96108140Y-127905449D01*
X96228417Y-128070994D01*
X96228417Y-128070995D01*
X96373104Y-128215682D01*
X96538652Y-128335961D01*
X96631628Y-128383334D01*
X96682425Y-128431308D01*
X96699220Y-128499129D01*
X96676683Y-128565264D01*
X96631630Y-128604303D01*
X96538388Y-128651813D01*
X96372786Y-128772128D01*
X96228028Y-128916886D01*
X96107715Y-129082486D01*
X96014781Y-129264876D01*
X95951522Y-129459565D01*
X95933535Y-129573135D01*
X95919500Y-129661748D01*
X95919500Y-129866452D01*
X95929049Y-129926739D01*
X95951523Y-130068635D01*
X95951523Y-130068638D01*
X95971358Y-130129682D01*
X95973353Y-130199523D01*
X95937273Y-130259356D01*
X95874572Y-130290184D01*
X95853427Y-130292000D01*
X92930198Y-130292000D01*
X92863159Y-130272315D01*
X92842517Y-130255681D01*
X91989290Y-129402455D01*
X91989288Y-129402452D01*
X91893117Y-129306281D01*
X91859632Y-129244958D01*
X91864616Y-129175266D01*
X91906488Y-129119333D01*
X91971952Y-129094916D01*
X91980798Y-129094600D01*
X92221631Y-129094600D01*
X92221647Y-129094601D01*
X92229243Y-129094601D01*
X92387354Y-129094601D01*
X92387357Y-129094601D01*
X92540085Y-129053677D01*
X92590204Y-129024739D01*
X92677016Y-128974620D01*
X92788820Y-128862816D01*
X92788820Y-128862814D01*
X92799028Y-128852607D01*
X92799029Y-128852604D01*
X96086497Y-125565137D01*
X96147816Y-125531655D01*
X96217508Y-125536639D01*
G37*
%TD.AperFunction*%
%TA.AperFunction,Conductor*%
G36*
X155442539Y-60520185D02*
G01*
X155488294Y-60572989D01*
X155499500Y-60624500D01*
X155499500Y-158375500D01*
X155479815Y-158442539D01*
X155427011Y-158488294D01*
X155375500Y-158499500D01*
X57624500Y-158499500D01*
X57557461Y-158479815D01*
X57511706Y-158427011D01*
X57500500Y-158375500D01*
X57500500Y-142824098D01*
X104384532Y-142824098D01*
X104384532Y-142824101D01*
X104404364Y-143050786D01*
X104404366Y-143050797D01*
X104463258Y-143270588D01*
X104463261Y-143270597D01*
X104559431Y-143476832D01*
X104559432Y-143476834D01*
X104689954Y-143663241D01*
X104850858Y-143824145D01*
X104850861Y-143824147D01*
X105037266Y-143954668D01*
X105243504Y-144050839D01*
X105463308Y-144109735D01*
X105625230Y-144123901D01*
X105689998Y-144129568D01*
X105690000Y-144129568D01*
X105690002Y-144129568D01*
X105746673Y-144124609D01*
X105916692Y-144109735D01*
X106136496Y-144050839D01*
X106342734Y-143954668D01*
X106529139Y-143824147D01*
X106690047Y-143663239D01*
X106820568Y-143476834D01*
X106916739Y-143270596D01*
X106975635Y-143050792D01*
X106995468Y-142824100D01*
X106995468Y-142824098D01*
X112004532Y-142824098D01*
X112004532Y-142824101D01*
X112024364Y-143050786D01*
X112024366Y-143050797D01*
X112083258Y-143270588D01*
X112083261Y-143270597D01*
X112179431Y-143476832D01*
X112179432Y-143476834D01*
X112309954Y-143663241D01*
X112470858Y-143824145D01*
X112470861Y-143824147D01*
X112657266Y-143954668D01*
X112863504Y-144050839D01*
X113083308Y-144109735D01*
X113245230Y-144123901D01*
X113309998Y-144129568D01*
X113310000Y-144129568D01*
X113310002Y-144129568D01*
X113366673Y-144124609D01*
X113536692Y-144109735D01*
X113756496Y-144050839D01*
X113962734Y-143954668D01*
X114149139Y-143824147D01*
X114310047Y-143663239D01*
X114440568Y-143476834D01*
X114536739Y-143270596D01*
X114595635Y-143050792D01*
X114615468Y-142824100D01*
X114595635Y-142597408D01*
X114536739Y-142377604D01*
X114440568Y-142171366D01*
X114310047Y-141984961D01*
X114310045Y-141984958D01*
X114149141Y-141824054D01*
X113962734Y-141693532D01*
X113962732Y-141693531D01*
X113756497Y-141597361D01*
X113756488Y-141597358D01*
X113536697Y-141538466D01*
X113536693Y-141538465D01*
X113536692Y-141538465D01*
X113536691Y-141538464D01*
X113536686Y-141538464D01*
X113310002Y-141518632D01*
X113309998Y-141518632D01*
X113083313Y-141538464D01*
X113083302Y-141538466D01*
X112863511Y-141597358D01*
X112863502Y-141597361D01*
X112657267Y-141693531D01*
X112657265Y-141693532D01*
X112470858Y-141824054D01*
X112309954Y-141984958D01*
X112179432Y-142171365D01*
X112179431Y-142171367D01*
X112083261Y-142377602D01*
X112083258Y-142377611D01*
X112024366Y-142597402D01*
X112024364Y-142597413D01*
X112004532Y-142824098D01*
X106995468Y-142824098D01*
X106975635Y-142597408D01*
X106916739Y-142377604D01*
X106820568Y-142171366D01*
X106690047Y-141984961D01*
X106690045Y-141984958D01*
X106529141Y-141824054D01*
X106342734Y-141693532D01*
X106342732Y-141693531D01*
X106136497Y-141597361D01*
X106136488Y-141597358D01*
X105916697Y-141538466D01*
X105916693Y-141538465D01*
X105916692Y-141538465D01*
X105916691Y-141538464D01*
X105916686Y-141538464D01*
X105690002Y-141518632D01*
X105689998Y-141518632D01*
X105463313Y-141538464D01*
X105463302Y-141538466D01*
X105243511Y-141597358D01*
X105243502Y-141597361D01*
X105037267Y-141693531D01*
X105037265Y-141693532D01*
X104850858Y-141824054D01*
X104689954Y-141984958D01*
X104559432Y-142171365D01*
X104559431Y-142171367D01*
X104463261Y-142377602D01*
X104463258Y-142377611D01*
X104404366Y-142597402D01*
X104404364Y-142597413D01*
X104384532Y-142824098D01*
X57500500Y-142824098D01*
X57500500Y-128399099D01*
X66144341Y-128399099D01*
X66144341Y-128399100D01*
X66164936Y-128634503D01*
X66164938Y-128634513D01*
X66226094Y-128862755D01*
X66226096Y-128862759D01*
X66226097Y-128862763D01*
X66315122Y-129053677D01*
X66325965Y-129076930D01*
X66325967Y-129076934D01*
X66415307Y-129204523D01*
X66457566Y-129264876D01*
X66461501Y-129270495D01*
X66461506Y-129270502D01*
X66628597Y-129437593D01*
X66628603Y-129437598D01*
X66814158Y-129567525D01*
X66857783Y-129622102D01*
X66864977Y-129691600D01*
X66833454Y-129753955D01*
X66814158Y-129770675D01*
X66628597Y-129900605D01*
X66461505Y-130067697D01*
X66325965Y-130261269D01*
X66325964Y-130261271D01*
X66226098Y-130475435D01*
X66226094Y-130475444D01*
X66164938Y-130703686D01*
X66164936Y-130703696D01*
X66144341Y-130939099D01*
X66144341Y-130939100D01*
X66164936Y-131174503D01*
X66164938Y-131174513D01*
X66226094Y-131402755D01*
X66226096Y-131402759D01*
X66226097Y-131402763D01*
X66296909Y-131554620D01*
X66325965Y-131616930D01*
X66325967Y-131616934D01*
X66382873Y-131698203D01*
X66457566Y-131804876D01*
X66461501Y-131810495D01*
X66461506Y-131810502D01*
X66628597Y-131977593D01*
X66628603Y-131977598D01*
X66814158Y-132107525D01*
X66857783Y-132162102D01*
X66864977Y-132231600D01*
X66833454Y-132293955D01*
X66814158Y-132310675D01*
X66628597Y-132440605D01*
X66461505Y-132607697D01*
X66325965Y-132801269D01*
X66325964Y-132801271D01*
X66239959Y-132985710D01*
X66227420Y-133012601D01*
X66226098Y-133015435D01*
X66226094Y-133015444D01*
X66164938Y-133243686D01*
X66164936Y-133243696D01*
X66144341Y-133479099D01*
X66144341Y-133479100D01*
X66164936Y-133714503D01*
X66164938Y-133714513D01*
X66226094Y-133942755D01*
X66226096Y-133942759D01*
X66226097Y-133942763D01*
X66286065Y-134071365D01*
X66325965Y-134156930D01*
X66325967Y-134156934D01*
X66410462Y-134277604D01*
X66461505Y-134350501D01*
X66628599Y-134517595D01*
X66694901Y-134564020D01*
X66822165Y-134653132D01*
X66822167Y-134653133D01*
X66822170Y-134653135D01*
X67036337Y-134753003D01*
X67264592Y-134814163D01*
X67452918Y-134830639D01*
X67499999Y-134834759D01*
X67500000Y-134834759D01*
X67500001Y-134834759D01*
X67539234Y-134831326D01*
X67735408Y-134814163D01*
X67963663Y-134753003D01*
X68177830Y-134653135D01*
X68371401Y-134517595D01*
X68538495Y-134350501D01*
X68674035Y-134156930D01*
X68773903Y-133942763D01*
X68835063Y-133714508D01*
X68855659Y-133479100D01*
X68835063Y-133243692D01*
X68783887Y-133052697D01*
X68773905Y-133015444D01*
X68773904Y-133015443D01*
X68773903Y-133015437D01*
X68674035Y-132801271D01*
X68657749Y-132778011D01*
X68538494Y-132607697D01*
X68371402Y-132440606D01*
X68371396Y-132440601D01*
X68185842Y-132310675D01*
X68142217Y-132256098D01*
X68135023Y-132186600D01*
X68166546Y-132124245D01*
X68185842Y-132107525D01*
X68208026Y-132091991D01*
X68371401Y-131977595D01*
X68538495Y-131810501D01*
X68674035Y-131616930D01*
X68773903Y-131402763D01*
X68835063Y-131174508D01*
X68855659Y-130939100D01*
X68835063Y-130703692D01*
X68783886Y-130512696D01*
X68773905Y-130475444D01*
X68773904Y-130475443D01*
X68773903Y-130475437D01*
X68674035Y-130261271D01*
X68672695Y-130259356D01*
X68538494Y-130067697D01*
X68371402Y-129900606D01*
X68371396Y-129900601D01*
X68185842Y-129770675D01*
X68142217Y-129716098D01*
X68135023Y-129646600D01*
X68166546Y-129584245D01*
X68185842Y-129567525D01*
X68220109Y-129543531D01*
X68371401Y-129437595D01*
X68538495Y-129270501D01*
X68674035Y-129076930D01*
X68773903Y-128862763D01*
X68835063Y-128634508D01*
X68855659Y-128399100D01*
X68835063Y-128163692D01*
X68778529Y-127952703D01*
X68773905Y-127935444D01*
X68773904Y-127935443D01*
X68773903Y-127935437D01*
X68674035Y-127721271D01*
X68651017Y-127688397D01*
X68538494Y-127527697D01*
X68371402Y-127360606D01*
X68371401Y-127360605D01*
X68185405Y-127230369D01*
X68141781Y-127175792D01*
X68134588Y-127106293D01*
X68166110Y-127043939D01*
X68185405Y-127027219D01*
X68371082Y-126897205D01*
X68538105Y-126730182D01*
X68673600Y-126536678D01*
X68773429Y-126322592D01*
X68773432Y-126322586D01*
X68830636Y-126109100D01*
X67933012Y-126109100D01*
X67965925Y-126052093D01*
X68000000Y-125924926D01*
X68000000Y-125793274D01*
X67965925Y-125666107D01*
X67933012Y-125609100D01*
X68830636Y-125609100D01*
X68830635Y-125609099D01*
X68773432Y-125395613D01*
X68773429Y-125395607D01*
X68673600Y-125181522D01*
X68673599Y-125181520D01*
X68538113Y-124988026D01*
X68538108Y-124988020D01*
X68416053Y-124865965D01*
X68382568Y-124804642D01*
X68387552Y-124734950D01*
X68429424Y-124679017D01*
X68460400Y-124662102D01*
X68592331Y-124612896D01*
X68707546Y-124526646D01*
X68793796Y-124411431D01*
X68844091Y-124276583D01*
X68850500Y-124216973D01*
X68850500Y-124043600D01*
X68870185Y-123976561D01*
X68922989Y-123930806D01*
X68974500Y-123919600D01*
X75347979Y-123919600D01*
X75415018Y-123939285D01*
X75460773Y-123992089D01*
X75470717Y-124061247D01*
X75458464Y-124099895D01*
X75394781Y-124224876D01*
X75331522Y-124419565D01*
X75299500Y-124621748D01*
X75299500Y-124826451D01*
X75331522Y-125028634D01*
X75394781Y-125223323D01*
X75416326Y-125265606D01*
X75483457Y-125397358D01*
X75487715Y-125405713D01*
X75608028Y-125571313D01*
X75752786Y-125716071D01*
X75863330Y-125796384D01*
X75918390Y-125836387D01*
X76009196Y-125882655D01*
X76011080Y-125883615D01*
X76061876Y-125931590D01*
X76078671Y-125999411D01*
X76056134Y-126065546D01*
X76011080Y-126104585D01*
X75918386Y-126151815D01*
X75752786Y-126272128D01*
X75608028Y-126416886D01*
X75487715Y-126582486D01*
X75394781Y-126764876D01*
X75331522Y-126959565D01*
X75299500Y-127161748D01*
X75299500Y-127366451D01*
X75331522Y-127568634D01*
X75394781Y-127763323D01*
X75458691Y-127888753D01*
X75482482Y-127935444D01*
X75487715Y-127945713D01*
X75608028Y-128111313D01*
X75752786Y-128256071D01*
X75907749Y-128368656D01*
X75918390Y-128376387D01*
X76008642Y-128422373D01*
X76011080Y-128423615D01*
X76061876Y-128471590D01*
X76078671Y-128539411D01*
X76056134Y-128605546D01*
X76011080Y-128644585D01*
X75918386Y-128691815D01*
X75752786Y-128812128D01*
X75608028Y-128956886D01*
X75487715Y-129122486D01*
X75394781Y-129304876D01*
X75331522Y-129499565D01*
X75299500Y-129701748D01*
X75299500Y-129906451D01*
X75331522Y-130108634D01*
X75394781Y-130303323D01*
X75450146Y-130411981D01*
X75482482Y-130475444D01*
X75487715Y-130485713D01*
X75608028Y-130651313D01*
X75752786Y-130796071D01*
X75900764Y-130903581D01*
X75918390Y-130916387D01*
X76009196Y-130962655D01*
X76011080Y-130963615D01*
X76061876Y-131011590D01*
X76078671Y-131079411D01*
X76056134Y-131145546D01*
X76011080Y-131184585D01*
X75918386Y-131231815D01*
X75752786Y-131352128D01*
X75608028Y-131496886D01*
X75487715Y-131662486D01*
X75394781Y-131844876D01*
X75331522Y-132039565D01*
X75299500Y-132241748D01*
X75299500Y-132446451D01*
X75331522Y-132648634D01*
X75394781Y-132843323D01*
X75416326Y-132885606D01*
X75486238Y-133022816D01*
X75487715Y-133025713D01*
X75608028Y-133191313D01*
X75752786Y-133336071D01*
X75907749Y-133448656D01*
X75918390Y-133456387D01*
X75998800Y-133497358D01*
X76011080Y-133503615D01*
X76061876Y-133551590D01*
X76078671Y-133619411D01*
X76056134Y-133685546D01*
X76011080Y-133724585D01*
X75918386Y-133771815D01*
X75752786Y-133892128D01*
X75608028Y-134036886D01*
X75487715Y-134202486D01*
X75394781Y-134384876D01*
X75331522Y-134579565D01*
X75299500Y-134781748D01*
X75299500Y-134986451D01*
X75331522Y-135188634D01*
X75394781Y-135383323D01*
X75416326Y-135425606D01*
X75467333Y-135525713D01*
X75487715Y-135565713D01*
X75608028Y-135731313D01*
X75752786Y-135876071D01*
X75863330Y-135956384D01*
X75918390Y-135996387D01*
X75990424Y-136033090D01*
X76011629Y-136043895D01*
X76062425Y-136091870D01*
X76079220Y-136159691D01*
X76056682Y-136225826D01*
X76011629Y-136264865D01*
X75918650Y-136312240D01*
X75753105Y-136432517D01*
X75753104Y-136432517D01*
X75608417Y-136577204D01*
X75608417Y-136577205D01*
X75488140Y-136742750D01*
X75395244Y-136925070D01*
X75332009Y-137119686D01*
X75323391Y-137174100D01*
X76684314Y-137174100D01*
X76679920Y-137178494D01*
X76627259Y-137269706D01*
X76600000Y-137371439D01*
X76600000Y-137476761D01*
X76627259Y-137578494D01*
X76679920Y-137669706D01*
X76684314Y-137674100D01*
X75323391Y-137674100D01*
X75332009Y-137728513D01*
X75395244Y-137923129D01*
X75488140Y-138105449D01*
X75608417Y-138270994D01*
X75608417Y-138270995D01*
X75753104Y-138415682D01*
X75918650Y-138535959D01*
X76100968Y-138628855D01*
X76295582Y-138692090D01*
X76497683Y-138724100D01*
X76750000Y-138724100D01*
X76750000Y-137739786D01*
X76754394Y-137744180D01*
X76845606Y-137796841D01*
X76947339Y-137824100D01*
X77052661Y-137824100D01*
X77154394Y-137796841D01*
X77245606Y-137744180D01*
X77250000Y-137739786D01*
X77250000Y-138724100D01*
X77502317Y-138724100D01*
X77704417Y-138692090D01*
X77899031Y-138628855D01*
X78081349Y-138535959D01*
X78246894Y-138415682D01*
X78246895Y-138415682D01*
X78391582Y-138270995D01*
X78391582Y-138270994D01*
X78511859Y-138105449D01*
X78604755Y-137923129D01*
X78667990Y-137728513D01*
X78676609Y-137674100D01*
X77315686Y-137674100D01*
X77320080Y-137669706D01*
X77372741Y-137578494D01*
X77400000Y-137476761D01*
X77400000Y-137371439D01*
X77372741Y-137269706D01*
X77320080Y-137178494D01*
X77315686Y-137174100D01*
X78676609Y-137174100D01*
X78667990Y-137119686D01*
X78604755Y-136925070D01*
X78511859Y-136742750D01*
X78391582Y-136577205D01*
X78391582Y-136577204D01*
X78246895Y-136432517D01*
X78081349Y-136312240D01*
X77988370Y-136264865D01*
X77937574Y-136216890D01*
X77920779Y-136149069D01*
X77943316Y-136082935D01*
X77988370Y-136043895D01*
X77989471Y-136043334D01*
X78081610Y-135996387D01*
X78137252Y-135955961D01*
X78247213Y-135876071D01*
X78247215Y-135876068D01*
X78247219Y-135876066D01*
X78358144Y-135765141D01*
X78419467Y-135731656D01*
X78489159Y-135736640D01*
X78533506Y-135765141D01*
X82131039Y-139362674D01*
X82131049Y-139362685D01*
X82135379Y-139367015D01*
X82135380Y-139367016D01*
X82247184Y-139478820D01*
X82247186Y-139478821D01*
X82247190Y-139478824D01*
X82344039Y-139534739D01*
X82384116Y-139557877D01*
X82495919Y-139587834D01*
X82536842Y-139598800D01*
X82536843Y-139598800D01*
X101857331Y-139598800D01*
X101857347Y-139598801D01*
X101864943Y-139598801D01*
X102023054Y-139598801D01*
X102023057Y-139598801D01*
X102175785Y-139557877D01*
X102225904Y-139528939D01*
X102312716Y-139478820D01*
X102424520Y-139367016D01*
X102424520Y-139367014D01*
X102434728Y-139356807D01*
X102434729Y-139356804D01*
X103540417Y-138251119D01*
X103601740Y-138217634D01*
X103628098Y-138214800D01*
X104331887Y-138214800D01*
X104398926Y-138234485D01*
X104444681Y-138287289D01*
X104454625Y-138356447D01*
X104451662Y-138370889D01*
X104444452Y-138397800D01*
X104404366Y-138547403D01*
X104404364Y-138547413D01*
X104384532Y-138774098D01*
X104384532Y-138774101D01*
X104404364Y-139000786D01*
X104404366Y-139000797D01*
X104463258Y-139220588D01*
X104463261Y-139220597D01*
X104559431Y-139426832D01*
X104559432Y-139426834D01*
X104689954Y-139613241D01*
X104850858Y-139774145D01*
X104850861Y-139774147D01*
X105037266Y-139904668D01*
X105243504Y-140000839D01*
X105463308Y-140059735D01*
X105625230Y-140073901D01*
X105689998Y-140079568D01*
X105690000Y-140079568D01*
X105690002Y-140079568D01*
X105746673Y-140074609D01*
X105916692Y-140059735D01*
X106136496Y-140000839D01*
X106342734Y-139904668D01*
X106529139Y-139774147D01*
X106690047Y-139613239D01*
X106820568Y-139426834D01*
X106916739Y-139220596D01*
X106975635Y-139000792D01*
X106995468Y-138774100D01*
X106975635Y-138547408D01*
X106928338Y-138370892D01*
X106930001Y-138301044D01*
X106969163Y-138243181D01*
X107033392Y-138215677D01*
X107048113Y-138214800D01*
X111951887Y-138214800D01*
X112018926Y-138234485D01*
X112064681Y-138287289D01*
X112074625Y-138356447D01*
X112071662Y-138370889D01*
X112064452Y-138397800D01*
X112024366Y-138547403D01*
X112024364Y-138547413D01*
X112004532Y-138774098D01*
X112004532Y-138774101D01*
X112024364Y-139000786D01*
X112024366Y-139000797D01*
X112083258Y-139220588D01*
X112083261Y-139220597D01*
X112179431Y-139426832D01*
X112179432Y-139426834D01*
X112309954Y-139613241D01*
X112470858Y-139774145D01*
X112470861Y-139774147D01*
X112657266Y-139904668D01*
X112863504Y-140000839D01*
X113083308Y-140059735D01*
X113245230Y-140073901D01*
X113309998Y-140079568D01*
X113310000Y-140079568D01*
X113310002Y-140079568D01*
X113366673Y-140074609D01*
X113536692Y-140059735D01*
X113756496Y-140000839D01*
X113962734Y-139904668D01*
X114149139Y-139774147D01*
X114310047Y-139613239D01*
X114440568Y-139426834D01*
X114536739Y-139220596D01*
X114595635Y-139000792D01*
X114615468Y-138774100D01*
X114595635Y-138547408D01*
X114580438Y-138490691D01*
X114582101Y-138420844D01*
X114621263Y-138362981D01*
X114685492Y-138335477D01*
X114700213Y-138334600D01*
X121167440Y-138334600D01*
X121234479Y-138354285D01*
X121280234Y-138407089D01*
X121290178Y-138476247D01*
X121279823Y-138511000D01*
X121266098Y-138540435D01*
X121266096Y-138540440D01*
X121266094Y-138540444D01*
X121204938Y-138768686D01*
X121204936Y-138768696D01*
X121184341Y-139004099D01*
X121184341Y-139004100D01*
X121204936Y-139239503D01*
X121204938Y-139239513D01*
X121266094Y-139467755D01*
X121266096Y-139467759D01*
X121266097Y-139467763D01*
X121333934Y-139613239D01*
X121365965Y-139681930D01*
X121365967Y-139681934D01*
X121430536Y-139774147D01*
X121501505Y-139875501D01*
X121668599Y-140042595D01*
X121721402Y-140079568D01*
X121862165Y-140178132D01*
X121862167Y-140178133D01*
X121862170Y-140178135D01*
X122076337Y-140278003D01*
X122304592Y-140339163D01*
X122492918Y-140355639D01*
X122539999Y-140359759D01*
X122540000Y-140359759D01*
X122540001Y-140359759D01*
X122579234Y-140356326D01*
X122775408Y-140339163D01*
X123003663Y-140278003D01*
X123217830Y-140178135D01*
X123411401Y-140042595D01*
X123578495Y-139875501D01*
X123714035Y-139681930D01*
X123813903Y-139467763D01*
X123875063Y-139239508D01*
X123895659Y-139004100D01*
X123875063Y-138768692D01*
X123813903Y-138540437D01*
X123800177Y-138511002D01*
X123789686Y-138441929D01*
X123818205Y-138378144D01*
X123876681Y-138339904D01*
X123912560Y-138334600D01*
X143778203Y-138334600D01*
X143845242Y-138354285D01*
X143865884Y-138370919D01*
X144863439Y-139368474D01*
X144863449Y-139368485D01*
X144867779Y-139372815D01*
X144867780Y-139372816D01*
X144979584Y-139484620D01*
X145056349Y-139528939D01*
X145066395Y-139534739D01*
X145066397Y-139534741D01*
X145116513Y-139563676D01*
X145116515Y-139563677D01*
X145237004Y-139595962D01*
X145296664Y-139632326D01*
X145317292Y-139663331D01*
X145325964Y-139681929D01*
X145325965Y-139681931D01*
X145390536Y-139774147D01*
X145461505Y-139875501D01*
X145628599Y-140042595D01*
X145681402Y-140079568D01*
X145822165Y-140178132D01*
X145822167Y-140178133D01*
X145822170Y-140178135D01*
X146036337Y-140278003D01*
X146264592Y-140339163D01*
X146452918Y-140355639D01*
X146499999Y-140359759D01*
X146500000Y-140359759D01*
X146500001Y-140359759D01*
X146539234Y-140356326D01*
X146735408Y-140339163D01*
X146963663Y-140278003D01*
X147177830Y-140178135D01*
X147371401Y-140042595D01*
X147538495Y-139875501D01*
X147674035Y-139681930D01*
X147773903Y-139467763D01*
X147835063Y-139239508D01*
X147855659Y-139004100D01*
X147835063Y-138768692D01*
X147773903Y-138540437D01*
X147674035Y-138326271D01*
X147635331Y-138270995D01*
X147538494Y-138132697D01*
X147371402Y-137965606D01*
X147371396Y-137965601D01*
X147185842Y-137835675D01*
X147142217Y-137781098D01*
X147135023Y-137711600D01*
X147166546Y-137649245D01*
X147185842Y-137632525D01*
X147263006Y-137578494D01*
X147371401Y-137502595D01*
X147538495Y-137335501D01*
X147674035Y-137141930D01*
X147773903Y-136927763D01*
X147835063Y-136699508D01*
X147855659Y-136464100D01*
X147835063Y-136228692D01*
X147773903Y-136000437D01*
X147674035Y-135786271D01*
X147639284Y-135736640D01*
X147538494Y-135592697D01*
X147371402Y-135425606D01*
X147371396Y-135425601D01*
X147185842Y-135295675D01*
X147142217Y-135241098D01*
X147135023Y-135171600D01*
X147166546Y-135109245D01*
X147185842Y-135092525D01*
X147263006Y-135038494D01*
X147371401Y-134962595D01*
X147538495Y-134795501D01*
X147674035Y-134601930D01*
X147773903Y-134387763D01*
X147835063Y-134159508D01*
X147855659Y-133924100D01*
X147835063Y-133688692D01*
X147773903Y-133460437D01*
X147674035Y-133246271D01*
X147672230Y-133243692D01*
X147538494Y-133052697D01*
X147371402Y-132885606D01*
X147371396Y-132885601D01*
X147185842Y-132755675D01*
X147142217Y-132701098D01*
X147135023Y-132631600D01*
X147166546Y-132569245D01*
X147185842Y-132552525D01*
X147208026Y-132536991D01*
X147371401Y-132422595D01*
X147538495Y-132255501D01*
X147674035Y-132061930D01*
X147773903Y-131847763D01*
X147835063Y-131619508D01*
X147855659Y-131384100D01*
X147835063Y-131148692D01*
X147773903Y-130920437D01*
X147674035Y-130706271D01*
X147674034Y-130706269D01*
X147538494Y-130512697D01*
X147371402Y-130345606D01*
X147371396Y-130345601D01*
X147185842Y-130215675D01*
X147142217Y-130161098D01*
X147135023Y-130091600D01*
X147166546Y-130029245D01*
X147185842Y-130012525D01*
X147270714Y-129953097D01*
X147371401Y-129882595D01*
X147538495Y-129715501D01*
X147674035Y-129521930D01*
X147773903Y-129307763D01*
X147835063Y-129079508D01*
X147855659Y-128844100D01*
X147835063Y-128608692D01*
X147773903Y-128380437D01*
X147674035Y-128166271D01*
X147672230Y-128163692D01*
X147538494Y-127972697D01*
X147371402Y-127805606D01*
X147371396Y-127805601D01*
X147185842Y-127675675D01*
X147142217Y-127621098D01*
X147135023Y-127551600D01*
X147166546Y-127489245D01*
X147185842Y-127472525D01*
X147263006Y-127418494D01*
X147371401Y-127342595D01*
X147538495Y-127175501D01*
X147674035Y-126981930D01*
X147773903Y-126767763D01*
X147835063Y-126539508D01*
X147855659Y-126304100D01*
X147835063Y-126068692D01*
X147773903Y-125840437D01*
X147674035Y-125626271D01*
X147635558Y-125571319D01*
X147538494Y-125432697D01*
X147371402Y-125265606D01*
X147371396Y-125265601D01*
X147185842Y-125135675D01*
X147142217Y-125081098D01*
X147135023Y-125011600D01*
X147166546Y-124949245D01*
X147185842Y-124932525D01*
X147280899Y-124865965D01*
X147371401Y-124802595D01*
X147538495Y-124635501D01*
X147674035Y-124441930D01*
X147773903Y-124227763D01*
X147835063Y-123999508D01*
X147855659Y-123764100D01*
X147835063Y-123528692D01*
X147773903Y-123300437D01*
X147674035Y-123086271D01*
X147672081Y-123083481D01*
X147538496Y-122892700D01*
X147488010Y-122842214D01*
X147416567Y-122770771D01*
X147383084Y-122709451D01*
X147388068Y-122639759D01*
X147429939Y-122583825D01*
X147460915Y-122566910D01*
X147592331Y-122517896D01*
X147707546Y-122431646D01*
X147793796Y-122316431D01*
X147844091Y-122181583D01*
X147850500Y-122121973D01*
X147850499Y-120326228D01*
X147844091Y-120266617D01*
X147793796Y-120131769D01*
X147793795Y-120131768D01*
X147793793Y-120131764D01*
X147707547Y-120016555D01*
X147707544Y-120016552D01*
X147592335Y-119930306D01*
X147592328Y-119930302D01*
X147457482Y-119880008D01*
X147457483Y-119880008D01*
X147397883Y-119873601D01*
X147397881Y-119873600D01*
X147397873Y-119873600D01*
X147397864Y-119873600D01*
X145602129Y-119873600D01*
X145602123Y-119873601D01*
X145542516Y-119880008D01*
X145407671Y-119930302D01*
X145407664Y-119930306D01*
X145292455Y-120016552D01*
X145292452Y-120016555D01*
X145248723Y-120074970D01*
X145192789Y-120116841D01*
X145123098Y-120121825D01*
X145061776Y-120088340D01*
X137937690Y-112964255D01*
X137937688Y-112964252D01*
X137818817Y-112845381D01*
X137818816Y-112845380D01*
X137732004Y-112795260D01*
X137732004Y-112795259D01*
X137732000Y-112795258D01*
X137681885Y-112766323D01*
X137529157Y-112725399D01*
X137371043Y-112725399D01*
X137363447Y-112725399D01*
X137363431Y-112725400D01*
X93915157Y-112725400D01*
X93757043Y-112725400D01*
X93604315Y-112766323D01*
X93604314Y-112766323D01*
X93604312Y-112766324D01*
X93604309Y-112766325D01*
X93554196Y-112795259D01*
X93554195Y-112795260D01*
X93510789Y-112820320D01*
X93467385Y-112845379D01*
X93467382Y-112845381D01*
X86532181Y-119780583D01*
X86470858Y-119814068D01*
X86401166Y-119809084D01*
X86345233Y-119767212D01*
X86320816Y-119701748D01*
X86320500Y-119692902D01*
X86320500Y-119541748D01*
X86288477Y-119339565D01*
X86235602Y-119176834D01*
X86225220Y-119144881D01*
X86225218Y-119144878D01*
X86225218Y-119144876D01*
X86191503Y-119078707D01*
X86132287Y-118962490D01*
X86103223Y-118922486D01*
X86011971Y-118796886D01*
X85867213Y-118652128D01*
X85701613Y-118531815D01*
X85701612Y-118531814D01*
X85701610Y-118531813D01*
X85623106Y-118491813D01*
X85519223Y-118438881D01*
X85324534Y-118375622D01*
X85149995Y-118347978D01*
X85122352Y-118343600D01*
X84117648Y-118343600D01*
X84093329Y-118347451D01*
X83915465Y-118375622D01*
X83720776Y-118438881D01*
X83538386Y-118531815D01*
X83372786Y-118652128D01*
X83228028Y-118796886D01*
X83107712Y-118962489D01*
X83107710Y-118962492D01*
X83095739Y-118985987D01*
X83047764Y-119036782D01*
X83017351Y-119049464D01*
X82886515Y-119084522D01*
X82886509Y-119084525D01*
X82836396Y-119113459D01*
X82836395Y-119113460D01*
X82792989Y-119138520D01*
X82749585Y-119163579D01*
X82749582Y-119163581D01*
X82637780Y-119275384D01*
X82637778Y-119275386D01*
X80926877Y-120986288D01*
X79230884Y-122682281D01*
X79169561Y-122715766D01*
X79143203Y-122718600D01*
X78764428Y-122718600D01*
X78697389Y-122698915D01*
X78651634Y-122646111D01*
X78641690Y-122576953D01*
X78646497Y-122556281D01*
X78668477Y-122488634D01*
X78688595Y-122361616D01*
X78700500Y-122286452D01*
X78700500Y-122081748D01*
X78675098Y-121921366D01*
X78668477Y-121879565D01*
X78611635Y-121704624D01*
X78605220Y-121684881D01*
X78605218Y-121684878D01*
X78605218Y-121684876D01*
X78571503Y-121618707D01*
X78512287Y-121502490D01*
X78469452Y-121443532D01*
X78391971Y-121336886D01*
X78247219Y-121192134D01*
X78210930Y-121165769D01*
X78168264Y-121110439D01*
X78162285Y-121040826D01*
X78194890Y-120979031D01*
X78255728Y-120944673D01*
X78270562Y-120942160D01*
X78307483Y-120938191D01*
X78404090Y-120902159D01*
X78442331Y-120887896D01*
X78557546Y-120801646D01*
X78643796Y-120686431D01*
X78694091Y-120551583D01*
X78700500Y-120491973D01*
X78700499Y-118796228D01*
X78694091Y-118736617D01*
X78643796Y-118601769D01*
X78643795Y-118601768D01*
X78643793Y-118601764D01*
X78557547Y-118486555D01*
X78557544Y-118486552D01*
X78442335Y-118400306D01*
X78442328Y-118400302D01*
X78307482Y-118350008D01*
X78307483Y-118350008D01*
X78247883Y-118343601D01*
X78247881Y-118343600D01*
X78247873Y-118343600D01*
X78247864Y-118343600D01*
X75752129Y-118343600D01*
X75752123Y-118343601D01*
X75692516Y-118350008D01*
X75557671Y-118400302D01*
X75557664Y-118400306D01*
X75442455Y-118486552D01*
X75442452Y-118486555D01*
X75356206Y-118601764D01*
X75356202Y-118601771D01*
X75305908Y-118736617D01*
X75299501Y-118796216D01*
X75299501Y-118796223D01*
X75299500Y-118796235D01*
X75299500Y-120491970D01*
X75299501Y-120491976D01*
X75305908Y-120551583D01*
X75356202Y-120686428D01*
X75356206Y-120686435D01*
X75442452Y-120801644D01*
X75442455Y-120801647D01*
X75557664Y-120887893D01*
X75557671Y-120887897D01*
X75585266Y-120898189D01*
X75692517Y-120938191D01*
X75729441Y-120942160D01*
X75793989Y-120968896D01*
X75833838Y-121026288D01*
X75836333Y-121096113D01*
X75800681Y-121156202D01*
X75789071Y-121165766D01*
X75752784Y-121192130D01*
X75608028Y-121336886D01*
X75487715Y-121502486D01*
X75394781Y-121684876D01*
X75331522Y-121879565D01*
X75299500Y-122081748D01*
X75299500Y-122286451D01*
X75331522Y-122488634D01*
X75353503Y-122556281D01*
X75355498Y-122626122D01*
X75319418Y-122685955D01*
X75256717Y-122716784D01*
X75235572Y-122718600D01*
X68974499Y-122718600D01*
X68907460Y-122698915D01*
X68861705Y-122646111D01*
X68850499Y-122594600D01*
X68850499Y-122421229D01*
X68850498Y-122421223D01*
X68850497Y-122421216D01*
X68844091Y-122361617D01*
X68838793Y-122347413D01*
X68793797Y-122226771D01*
X68793793Y-122226764D01*
X68707547Y-122111555D01*
X68707544Y-122111552D01*
X68592335Y-122025306D01*
X68592328Y-122025302D01*
X68457482Y-121975008D01*
X68457483Y-121975008D01*
X68397883Y-121968601D01*
X68397881Y-121968600D01*
X68397873Y-121968600D01*
X68397864Y-121968600D01*
X66602129Y-121968600D01*
X66602123Y-121968601D01*
X66542516Y-121975008D01*
X66407671Y-122025302D01*
X66407664Y-122025306D01*
X66292455Y-122111552D01*
X66292452Y-122111555D01*
X66206206Y-122226764D01*
X66206202Y-122226771D01*
X66155908Y-122361617D01*
X66150074Y-122415884D01*
X66149501Y-122421223D01*
X66149500Y-122421235D01*
X66149500Y-124216970D01*
X66149501Y-124216976D01*
X66155908Y-124276583D01*
X66206202Y-124411428D01*
X66206206Y-124411435D01*
X66292452Y-124526644D01*
X66292455Y-124526647D01*
X66407664Y-124612893D01*
X66407671Y-124612897D01*
X66407674Y-124612898D01*
X66539598Y-124662102D01*
X66595531Y-124703973D01*
X66619949Y-124769437D01*
X66605098Y-124837710D01*
X66583947Y-124865965D01*
X66461886Y-124988026D01*
X66326400Y-125181520D01*
X66326399Y-125181522D01*
X66226570Y-125395607D01*
X66226567Y-125395613D01*
X66169364Y-125609099D01*
X66169364Y-125609100D01*
X67066988Y-125609100D01*
X67034075Y-125666107D01*
X67000000Y-125793274D01*
X67000000Y-125924926D01*
X67034075Y-126052093D01*
X67066988Y-126109100D01*
X66169364Y-126109100D01*
X66226567Y-126322586D01*
X66226570Y-126322592D01*
X66326399Y-126536678D01*
X66461894Y-126730182D01*
X66628917Y-126897205D01*
X66814595Y-127027219D01*
X66858219Y-127081796D01*
X66865412Y-127151295D01*
X66833890Y-127213649D01*
X66814595Y-127230369D01*
X66628594Y-127360608D01*
X66461505Y-127527697D01*
X66325965Y-127721269D01*
X66325964Y-127721271D01*
X66226098Y-127935435D01*
X66226094Y-127935444D01*
X66164938Y-128163686D01*
X66164936Y-128163696D01*
X66144341Y-128399099D01*
X57500500Y-128399099D01*
X57500500Y-60624500D01*
X57520185Y-60557461D01*
X57572989Y-60511706D01*
X57624500Y-60500500D01*
X155375500Y-60500500D01*
X155442539Y-60520185D01*
G37*
%TD.AperFunction*%
%TD*%
M02*
