M48
; DRILL file {KiCad 8.0.5} date 2024-10-20T14:37:52+0100
; FORMAT={-:-/ absolute / inch / decimal}
; #@! TF.CreationDate,2024-10-20T14:37:52+01:00
; #@! TF.GenerationSoftware,Kicad,Pcbnew,8.0.5
; #@! TF.FileFunction,Plated,1,2,PTH
FMAT,2
INCH
; #@! TA.AperFunction,Plated,PTH,ComponentDrill
T1C0.0315
; #@! TA.AperFunction,Plated,PTH,ComponentDrill
T2C0.0394
%
G90
G05
T1
X3.0315Y-4.7104
X3.0315Y-4.8104
X3.0315Y-4.9104
X3.0315Y-5.0104
X3.0315Y-5.1104
X3.0315Y-5.2104
X3.0315Y-5.3104
X3.0315Y-5.4104
X3.3315Y-4.7104
X3.3315Y-4.8104
X3.3315Y-4.9104
X3.3315Y-5.0104
X3.3315Y-5.1104
X3.3315Y-5.2104
X3.3315Y-5.3104
X3.3315Y-5.4104
X3.5433Y-4.7088
X3.5433Y-4.8088
X3.5433Y-4.9088
X3.5433Y-5.0088
X3.5433Y-5.1088
X3.5433Y-5.2088
X3.5433Y-5.3088
X3.5433Y-5.4088
X3.8433Y-4.7088
X3.8433Y-4.8088
X3.8433Y-4.9088
X3.8433Y-5.0088
X3.8433Y-5.1088
X3.8433Y-5.2088
X3.8433Y-5.3088
X3.8433Y-5.4088
X4.161Y-4.5069
X4.161Y-4.6663
X4.161Y-4.8258
X4.161Y-4.9852
X4.161Y-5.1446
X4.161Y-5.3041
X4.161Y-5.4635
X4.161Y-5.623
X4.461Y-4.5069
X4.461Y-4.6663
X4.461Y-4.8258
X4.461Y-4.9852
X4.461Y-5.1446
X4.461Y-5.3041
X4.461Y-5.4635
X4.461Y-5.623
T2
X2.6575Y-4.8551
X2.6575Y-4.9551
X2.6575Y-5.0551
X2.6575Y-5.1551
X2.6575Y-5.2551
X4.8244Y-4.7726
X4.8244Y-4.8726
X4.8244Y-4.9726
X4.8244Y-5.0726
X4.8244Y-5.1726
X4.8244Y-5.2726
X4.8244Y-5.3726
X4.8244Y-5.4726
X5.7677Y-4.7726
X5.7677Y-4.8726
X5.7677Y-4.9726
X5.7677Y-5.0726
X5.7677Y-5.1726
X5.7677Y-5.2726
X5.7677Y-5.3726
X5.7677Y-5.4726
M30
