%TF.GenerationSoftware,KiCad,Pcbnew,8.0.5*%
%TF.CreationDate,2024-10-20T14:37:56+01:00*%
%TF.ProjectId,Matrix pcb,4d617472-6978-4207-9063-622e6b696361,rev?*%
%TF.SameCoordinates,Original*%
%TF.FileFunction,Legend,Top*%
%TF.FilePolarity,Positive*%
%FSLAX46Y46*%
G04 Gerber Fmt 4.6, Leading zero omitted, Abs format (unit mm)*
G04 Created by KiCad (PCBNEW 8.0.5) date 2024-10-20 14:37:56*
%MOMM*%
%LPD*%
G01*
G04 APERTURE LIST*
%ADD10C,0.200000*%
%ADD11C,0.300000*%
%ADD12C,0.125000*%
%ADD13C,0.120000*%
G04 APERTURE END LIST*
D10*
X122500000Y-116724150D02*
X146500000Y-116724150D01*
D11*
X88911653Y-143024978D02*
X89911653Y-143024978D01*
X89911653Y-143024978D02*
X89268796Y-144524978D01*
X91125939Y-143524978D02*
X91125939Y-144524978D01*
X90768796Y-142953550D02*
X90411653Y-144024978D01*
X90411653Y-144024978D02*
X91340224Y-144024978D01*
X91911652Y-144524978D02*
X91911652Y-143024978D01*
X91911652Y-143739264D02*
X92768795Y-143739264D01*
X92768795Y-144524978D02*
X92768795Y-143024978D01*
X94340224Y-144382121D02*
X94268796Y-144453550D01*
X94268796Y-144453550D02*
X94054510Y-144524978D01*
X94054510Y-144524978D02*
X93911653Y-144524978D01*
X93911653Y-144524978D02*
X93697367Y-144453550D01*
X93697367Y-144453550D02*
X93554510Y-144310692D01*
X93554510Y-144310692D02*
X93483081Y-144167835D01*
X93483081Y-144167835D02*
X93411653Y-143882121D01*
X93411653Y-143882121D02*
X93411653Y-143667835D01*
X93411653Y-143667835D02*
X93483081Y-143382121D01*
X93483081Y-143382121D02*
X93554510Y-143239264D01*
X93554510Y-143239264D02*
X93697367Y-143096407D01*
X93697367Y-143096407D02*
X93911653Y-143024978D01*
X93911653Y-143024978D02*
X94054510Y-143024978D01*
X94054510Y-143024978D02*
X94268796Y-143096407D01*
X94268796Y-143096407D02*
X94340224Y-143167835D01*
X95697367Y-143024978D02*
X94983081Y-143024978D01*
X94983081Y-143024978D02*
X94911653Y-143739264D01*
X94911653Y-143739264D02*
X94983081Y-143667835D01*
X94983081Y-143667835D02*
X95125939Y-143596407D01*
X95125939Y-143596407D02*
X95483081Y-143596407D01*
X95483081Y-143596407D02*
X95625939Y-143667835D01*
X95625939Y-143667835D02*
X95697367Y-143739264D01*
X95697367Y-143739264D02*
X95768796Y-143882121D01*
X95768796Y-143882121D02*
X95768796Y-144239264D01*
X95768796Y-144239264D02*
X95697367Y-144382121D01*
X95697367Y-144382121D02*
X95625939Y-144453550D01*
X95625939Y-144453550D02*
X95483081Y-144524978D01*
X95483081Y-144524978D02*
X95125939Y-144524978D01*
X95125939Y-144524978D02*
X94983081Y-144453550D01*
X94983081Y-144453550D02*
X94911653Y-144382121D01*
X96483081Y-144524978D02*
X96768795Y-144524978D01*
X96768795Y-144524978D02*
X96911652Y-144453550D01*
X96911652Y-144453550D02*
X96983081Y-144382121D01*
X96983081Y-144382121D02*
X97125938Y-144167835D01*
X97125938Y-144167835D02*
X97197367Y-143882121D01*
X97197367Y-143882121D02*
X97197367Y-143310692D01*
X97197367Y-143310692D02*
X97125938Y-143167835D01*
X97125938Y-143167835D02*
X97054510Y-143096407D01*
X97054510Y-143096407D02*
X96911652Y-143024978D01*
X96911652Y-143024978D02*
X96625938Y-143024978D01*
X96625938Y-143024978D02*
X96483081Y-143096407D01*
X96483081Y-143096407D02*
X96411652Y-143167835D01*
X96411652Y-143167835D02*
X96340224Y-143310692D01*
X96340224Y-143310692D02*
X96340224Y-143667835D01*
X96340224Y-143667835D02*
X96411652Y-143810692D01*
X96411652Y-143810692D02*
X96483081Y-143882121D01*
X96483081Y-143882121D02*
X96625938Y-143953550D01*
X96625938Y-143953550D02*
X96911652Y-143953550D01*
X96911652Y-143953550D02*
X97054510Y-143882121D01*
X97054510Y-143882121D02*
X97125938Y-143810692D01*
X97125938Y-143810692D02*
X97197367Y-143667835D01*
X98554509Y-143024978D02*
X97840223Y-143024978D01*
X97840223Y-143024978D02*
X97768795Y-143739264D01*
X97768795Y-143739264D02*
X97840223Y-143667835D01*
X97840223Y-143667835D02*
X97983081Y-143596407D01*
X97983081Y-143596407D02*
X98340223Y-143596407D01*
X98340223Y-143596407D02*
X98483081Y-143667835D01*
X98483081Y-143667835D02*
X98554509Y-143739264D01*
X98554509Y-143739264D02*
X98625938Y-143882121D01*
X98625938Y-143882121D02*
X98625938Y-144239264D01*
X98625938Y-144239264D02*
X98554509Y-144382121D01*
X98554509Y-144382121D02*
X98483081Y-144453550D01*
X98483081Y-144453550D02*
X98340223Y-144524978D01*
X98340223Y-144524978D02*
X97983081Y-144524978D01*
X97983081Y-144524978D02*
X97840223Y-144453550D01*
X97840223Y-144453550D02*
X97768795Y-144382121D01*
X125952381Y-152153587D02*
X124761905Y-152153587D01*
X124761905Y-152153587D02*
X124761905Y-149653587D01*
X126785715Y-150844063D02*
X127619048Y-150844063D01*
X127976191Y-152153587D02*
X126785715Y-152153587D01*
X126785715Y-152153587D02*
X126785715Y-149653587D01*
X126785715Y-149653587D02*
X127976191Y-149653587D01*
X129047620Y-152153587D02*
X129047620Y-149653587D01*
X129047620Y-149653587D02*
X129642858Y-149653587D01*
X129642858Y-149653587D02*
X130000001Y-149772635D01*
X130000001Y-149772635D02*
X130238096Y-150010730D01*
X130238096Y-150010730D02*
X130357143Y-150248825D01*
X130357143Y-150248825D02*
X130476191Y-150725016D01*
X130476191Y-150725016D02*
X130476191Y-151082159D01*
X130476191Y-151082159D02*
X130357143Y-151558349D01*
X130357143Y-151558349D02*
X130238096Y-151796444D01*
X130238096Y-151796444D02*
X130000001Y-152034540D01*
X130000001Y-152034540D02*
X129642858Y-152153587D01*
X129642858Y-152153587D02*
X129047620Y-152153587D01*
X133452382Y-152153587D02*
X133452382Y-149653587D01*
X133452382Y-149653587D02*
X134285715Y-151439301D01*
X134285715Y-151439301D02*
X135119048Y-149653587D01*
X135119048Y-149653587D02*
X135119048Y-152153587D01*
X136190477Y-151439301D02*
X137380953Y-151439301D01*
X135952382Y-152153587D02*
X136785715Y-149653587D01*
X136785715Y-149653587D02*
X137619048Y-152153587D01*
X138095239Y-149653587D02*
X139523810Y-149653587D01*
X138809524Y-152153587D02*
X138809524Y-149653587D01*
X141785715Y-152153587D02*
X140952382Y-150963111D01*
X140357144Y-152153587D02*
X140357144Y-149653587D01*
X140357144Y-149653587D02*
X141309525Y-149653587D01*
X141309525Y-149653587D02*
X141547620Y-149772635D01*
X141547620Y-149772635D02*
X141666667Y-149891682D01*
X141666667Y-149891682D02*
X141785715Y-150129778D01*
X141785715Y-150129778D02*
X141785715Y-150486920D01*
X141785715Y-150486920D02*
X141666667Y-150725016D01*
X141666667Y-150725016D02*
X141547620Y-150844063D01*
X141547620Y-150844063D02*
X141309525Y-150963111D01*
X141309525Y-150963111D02*
X140357144Y-150963111D01*
X142857144Y-152153587D02*
X142857144Y-149653587D01*
X143809524Y-149653587D02*
X145476191Y-152153587D01*
X145476191Y-149653587D02*
X143809524Y-152153587D01*
X129880953Y-156178447D02*
X128452382Y-156178447D01*
X129166668Y-156178447D02*
X129166668Y-153678447D01*
X129166668Y-153678447D02*
X128928572Y-154035590D01*
X128928572Y-154035590D02*
X128690477Y-154273685D01*
X128690477Y-154273685D02*
X128452382Y-154392733D01*
X131428572Y-153678447D02*
X131666667Y-153678447D01*
X131666667Y-153678447D02*
X131904763Y-153797495D01*
X131904763Y-153797495D02*
X132023810Y-153916542D01*
X132023810Y-153916542D02*
X132142858Y-154154638D01*
X132142858Y-154154638D02*
X132261905Y-154630828D01*
X132261905Y-154630828D02*
X132261905Y-155226066D01*
X132261905Y-155226066D02*
X132142858Y-155702257D01*
X132142858Y-155702257D02*
X132023810Y-155940352D01*
X132023810Y-155940352D02*
X131904763Y-156059400D01*
X131904763Y-156059400D02*
X131666667Y-156178447D01*
X131666667Y-156178447D02*
X131428572Y-156178447D01*
X131428572Y-156178447D02*
X131190477Y-156059400D01*
X131190477Y-156059400D02*
X131071429Y-155940352D01*
X131071429Y-155940352D02*
X130952382Y-155702257D01*
X130952382Y-155702257D02*
X130833334Y-155226066D01*
X130833334Y-155226066D02*
X130833334Y-154630828D01*
X130833334Y-154630828D02*
X130952382Y-154154638D01*
X130952382Y-154154638D02*
X131071429Y-153916542D01*
X131071429Y-153916542D02*
X131190477Y-153797495D01*
X131190477Y-153797495D02*
X131428572Y-153678447D01*
X133690476Y-154749876D02*
X133452381Y-154630828D01*
X133452381Y-154630828D02*
X133333334Y-154511780D01*
X133333334Y-154511780D02*
X133214286Y-154273685D01*
X133214286Y-154273685D02*
X133214286Y-154154638D01*
X133214286Y-154154638D02*
X133333334Y-153916542D01*
X133333334Y-153916542D02*
X133452381Y-153797495D01*
X133452381Y-153797495D02*
X133690476Y-153678447D01*
X133690476Y-153678447D02*
X134166667Y-153678447D01*
X134166667Y-153678447D02*
X134404762Y-153797495D01*
X134404762Y-153797495D02*
X134523810Y-153916542D01*
X134523810Y-153916542D02*
X134642857Y-154154638D01*
X134642857Y-154154638D02*
X134642857Y-154273685D01*
X134642857Y-154273685D02*
X134523810Y-154511780D01*
X134523810Y-154511780D02*
X134404762Y-154630828D01*
X134404762Y-154630828D02*
X134166667Y-154749876D01*
X134166667Y-154749876D02*
X133690476Y-154749876D01*
X133690476Y-154749876D02*
X133452381Y-154868923D01*
X133452381Y-154868923D02*
X133333334Y-154987971D01*
X133333334Y-154987971D02*
X133214286Y-155226066D01*
X133214286Y-155226066D02*
X133214286Y-155702257D01*
X133214286Y-155702257D02*
X133333334Y-155940352D01*
X133333334Y-155940352D02*
X133452381Y-156059400D01*
X133452381Y-156059400D02*
X133690476Y-156178447D01*
X133690476Y-156178447D02*
X134166667Y-156178447D01*
X134166667Y-156178447D02*
X134404762Y-156059400D01*
X134404762Y-156059400D02*
X134523810Y-155940352D01*
X134523810Y-155940352D02*
X134642857Y-155702257D01*
X134642857Y-155702257D02*
X134642857Y-155226066D01*
X134642857Y-155226066D02*
X134523810Y-154987971D01*
X134523810Y-154987971D02*
X134404762Y-154868923D01*
X134404762Y-154868923D02*
X134166667Y-154749876D01*
X136071428Y-154749876D02*
X135833333Y-154630828D01*
X135833333Y-154630828D02*
X135714286Y-154511780D01*
X135714286Y-154511780D02*
X135595238Y-154273685D01*
X135595238Y-154273685D02*
X135595238Y-154154638D01*
X135595238Y-154154638D02*
X135714286Y-153916542D01*
X135714286Y-153916542D02*
X135833333Y-153797495D01*
X135833333Y-153797495D02*
X136071428Y-153678447D01*
X136071428Y-153678447D02*
X136547619Y-153678447D01*
X136547619Y-153678447D02*
X136785714Y-153797495D01*
X136785714Y-153797495D02*
X136904762Y-153916542D01*
X136904762Y-153916542D02*
X137023809Y-154154638D01*
X137023809Y-154154638D02*
X137023809Y-154273685D01*
X137023809Y-154273685D02*
X136904762Y-154511780D01*
X136904762Y-154511780D02*
X136785714Y-154630828D01*
X136785714Y-154630828D02*
X136547619Y-154749876D01*
X136547619Y-154749876D02*
X136071428Y-154749876D01*
X136071428Y-154749876D02*
X135833333Y-154868923D01*
X135833333Y-154868923D02*
X135714286Y-154987971D01*
X135714286Y-154987971D02*
X135595238Y-155226066D01*
X135595238Y-155226066D02*
X135595238Y-155702257D01*
X135595238Y-155702257D02*
X135714286Y-155940352D01*
X135714286Y-155940352D02*
X135833333Y-156059400D01*
X135833333Y-156059400D02*
X136071428Y-156178447D01*
X136071428Y-156178447D02*
X136547619Y-156178447D01*
X136547619Y-156178447D02*
X136785714Y-156059400D01*
X136785714Y-156059400D02*
X136904762Y-155940352D01*
X136904762Y-155940352D02*
X137023809Y-155702257D01*
X137023809Y-155702257D02*
X137023809Y-155226066D01*
X137023809Y-155226066D02*
X136904762Y-154987971D01*
X136904762Y-154987971D02*
X136785714Y-154868923D01*
X136785714Y-154868923D02*
X136547619Y-154749876D01*
X137976190Y-155464161D02*
X139166666Y-155464161D01*
X137738095Y-156178447D02*
X138571428Y-153678447D01*
X138571428Y-153678447D02*
X139404761Y-156178447D01*
X140119047Y-156059400D02*
X140476190Y-156178447D01*
X140476190Y-156178447D02*
X141071428Y-156178447D01*
X141071428Y-156178447D02*
X141309523Y-156059400D01*
X141309523Y-156059400D02*
X141428571Y-155940352D01*
X141428571Y-155940352D02*
X141547618Y-155702257D01*
X141547618Y-155702257D02*
X141547618Y-155464161D01*
X141547618Y-155464161D02*
X141428571Y-155226066D01*
X141428571Y-155226066D02*
X141309523Y-155107019D01*
X141309523Y-155107019D02*
X141071428Y-154987971D01*
X141071428Y-154987971D02*
X140595237Y-154868923D01*
X140595237Y-154868923D02*
X140357142Y-154749876D01*
X140357142Y-154749876D02*
X140238095Y-154630828D01*
X140238095Y-154630828D02*
X140119047Y-154392733D01*
X140119047Y-154392733D02*
X140119047Y-154154638D01*
X140119047Y-154154638D02*
X140238095Y-153916542D01*
X140238095Y-153916542D02*
X140357142Y-153797495D01*
X140357142Y-153797495D02*
X140595237Y-153678447D01*
X140595237Y-153678447D02*
X141190476Y-153678447D01*
X141190476Y-153678447D02*
X141547618Y-153797495D01*
X64649748Y-81811304D02*
X62816415Y-79192257D01*
X61506891Y-81811304D02*
X61506891Y-76311304D01*
X61506891Y-76311304D02*
X63602129Y-76311304D01*
X63602129Y-76311304D02*
X64125939Y-76573209D01*
X64125939Y-76573209D02*
X64387844Y-76835114D01*
X64387844Y-76835114D02*
X64649748Y-77358923D01*
X64649748Y-77358923D02*
X64649748Y-78144638D01*
X64649748Y-78144638D02*
X64387844Y-78668447D01*
X64387844Y-78668447D02*
X64125939Y-78930352D01*
X64125939Y-78930352D02*
X63602129Y-79192257D01*
X63602129Y-79192257D02*
X61506891Y-79192257D01*
X67792606Y-81811304D02*
X67268796Y-81549400D01*
X67268796Y-81549400D02*
X67006891Y-81287495D01*
X67006891Y-81287495D02*
X66744987Y-80763685D01*
X66744987Y-80763685D02*
X66744987Y-79192257D01*
X66744987Y-79192257D02*
X67006891Y-78668447D01*
X67006891Y-78668447D02*
X67268796Y-78406542D01*
X67268796Y-78406542D02*
X67792606Y-78144638D01*
X67792606Y-78144638D02*
X68578320Y-78144638D01*
X68578320Y-78144638D02*
X69102129Y-78406542D01*
X69102129Y-78406542D02*
X69364034Y-78668447D01*
X69364034Y-78668447D02*
X69625939Y-79192257D01*
X69625939Y-79192257D02*
X69625939Y-80763685D01*
X69625939Y-80763685D02*
X69364034Y-81287495D01*
X69364034Y-81287495D02*
X69102129Y-81549400D01*
X69102129Y-81549400D02*
X68578320Y-81811304D01*
X68578320Y-81811304D02*
X67792606Y-81811304D01*
X71983081Y-81811304D02*
X71983081Y-76311304D01*
X71983081Y-78406542D02*
X72506891Y-78144638D01*
X72506891Y-78144638D02*
X73554510Y-78144638D01*
X73554510Y-78144638D02*
X74078319Y-78406542D01*
X74078319Y-78406542D02*
X74340224Y-78668447D01*
X74340224Y-78668447D02*
X74602129Y-79192257D01*
X74602129Y-79192257D02*
X74602129Y-80763685D01*
X74602129Y-80763685D02*
X74340224Y-81287495D01*
X74340224Y-81287495D02*
X74078319Y-81549400D01*
X74078319Y-81549400D02*
X73554510Y-81811304D01*
X73554510Y-81811304D02*
X72506891Y-81811304D01*
X72506891Y-81811304D02*
X71983081Y-81549400D01*
X77744986Y-81811304D02*
X77221176Y-81549400D01*
X77221176Y-81549400D02*
X76959271Y-81287495D01*
X76959271Y-81287495D02*
X76697367Y-80763685D01*
X76697367Y-80763685D02*
X76697367Y-79192257D01*
X76697367Y-79192257D02*
X76959271Y-78668447D01*
X76959271Y-78668447D02*
X77221176Y-78406542D01*
X77221176Y-78406542D02*
X77744986Y-78144638D01*
X77744986Y-78144638D02*
X78530700Y-78144638D01*
X78530700Y-78144638D02*
X79054509Y-78406542D01*
X79054509Y-78406542D02*
X79316414Y-78668447D01*
X79316414Y-78668447D02*
X79578319Y-79192257D01*
X79578319Y-79192257D02*
X79578319Y-80763685D01*
X79578319Y-80763685D02*
X79316414Y-81287495D01*
X79316414Y-81287495D02*
X79054509Y-81549400D01*
X79054509Y-81549400D02*
X78530700Y-81811304D01*
X78530700Y-81811304D02*
X77744986Y-81811304D01*
X81149747Y-78144638D02*
X83244985Y-78144638D01*
X81935461Y-76311304D02*
X81935461Y-81025590D01*
X81935461Y-81025590D02*
X82197366Y-81549400D01*
X82197366Y-81549400D02*
X82721176Y-81811304D01*
X82721176Y-81811304D02*
X83244985Y-81811304D01*
X85078318Y-81811304D02*
X85078318Y-78144638D01*
X85078318Y-76311304D02*
X84816414Y-76573209D01*
X84816414Y-76573209D02*
X85078318Y-76835114D01*
X85078318Y-76835114D02*
X85340223Y-76573209D01*
X85340223Y-76573209D02*
X85078318Y-76311304D01*
X85078318Y-76311304D02*
X85078318Y-76835114D01*
X90840223Y-81287495D02*
X90578319Y-81549400D01*
X90578319Y-81549400D02*
X89792604Y-81811304D01*
X89792604Y-81811304D02*
X89268795Y-81811304D01*
X89268795Y-81811304D02*
X88483081Y-81549400D01*
X88483081Y-81549400D02*
X87959271Y-81025590D01*
X87959271Y-81025590D02*
X87697366Y-80501780D01*
X87697366Y-80501780D02*
X87435462Y-79454161D01*
X87435462Y-79454161D02*
X87435462Y-78668447D01*
X87435462Y-78668447D02*
X87697366Y-77620828D01*
X87697366Y-77620828D02*
X87959271Y-77097019D01*
X87959271Y-77097019D02*
X88483081Y-76573209D01*
X88483081Y-76573209D02*
X89268795Y-76311304D01*
X89268795Y-76311304D02*
X89792604Y-76311304D01*
X89792604Y-76311304D02*
X90578319Y-76573209D01*
X90578319Y-76573209D02*
X90840223Y-76835114D01*
X93983081Y-81811304D02*
X93459271Y-81549400D01*
X93459271Y-81549400D02*
X93197366Y-81287495D01*
X93197366Y-81287495D02*
X92935462Y-80763685D01*
X92935462Y-80763685D02*
X92935462Y-79192257D01*
X92935462Y-79192257D02*
X93197366Y-78668447D01*
X93197366Y-78668447D02*
X93459271Y-78406542D01*
X93459271Y-78406542D02*
X93983081Y-78144638D01*
X93983081Y-78144638D02*
X94768795Y-78144638D01*
X94768795Y-78144638D02*
X95292604Y-78406542D01*
X95292604Y-78406542D02*
X95554509Y-78668447D01*
X95554509Y-78668447D02*
X95816414Y-79192257D01*
X95816414Y-79192257D02*
X95816414Y-80763685D01*
X95816414Y-80763685D02*
X95554509Y-81287495D01*
X95554509Y-81287495D02*
X95292604Y-81549400D01*
X95292604Y-81549400D02*
X94768795Y-81811304D01*
X94768795Y-81811304D02*
X93983081Y-81811304D01*
X98173556Y-81811304D02*
X98173556Y-78144638D01*
X98173556Y-79192257D02*
X98435461Y-78668447D01*
X98435461Y-78668447D02*
X98697366Y-78406542D01*
X98697366Y-78406542D02*
X99221175Y-78144638D01*
X99221175Y-78144638D02*
X99744985Y-78144638D01*
X103673556Y-81549400D02*
X103149747Y-81811304D01*
X103149747Y-81811304D02*
X102102128Y-81811304D01*
X102102128Y-81811304D02*
X101578318Y-81549400D01*
X101578318Y-81549400D02*
X101316414Y-81025590D01*
X101316414Y-81025590D02*
X101316414Y-78930352D01*
X101316414Y-78930352D02*
X101578318Y-78406542D01*
X101578318Y-78406542D02*
X102102128Y-78144638D01*
X102102128Y-78144638D02*
X103149747Y-78144638D01*
X103149747Y-78144638D02*
X103673556Y-78406542D01*
X103673556Y-78406542D02*
X103935461Y-78930352D01*
X103935461Y-78930352D02*
X103935461Y-79454161D01*
X103935461Y-79454161D02*
X101316414Y-79977971D01*
X113102128Y-81811304D02*
X110483080Y-81811304D01*
X110483080Y-81811304D02*
X110483080Y-76311304D01*
X114935461Y-78930352D02*
X116768795Y-78930352D01*
X117554509Y-81811304D02*
X114935461Y-81811304D01*
X114935461Y-81811304D02*
X114935461Y-76311304D01*
X114935461Y-76311304D02*
X117554509Y-76311304D01*
X119911651Y-81811304D02*
X119911651Y-76311304D01*
X119911651Y-76311304D02*
X121221175Y-76311304D01*
X121221175Y-76311304D02*
X122006889Y-76573209D01*
X122006889Y-76573209D02*
X122530699Y-77097019D01*
X122530699Y-77097019D02*
X122792604Y-77620828D01*
X122792604Y-77620828D02*
X123054508Y-78668447D01*
X123054508Y-78668447D02*
X123054508Y-79454161D01*
X123054508Y-79454161D02*
X122792604Y-80501780D01*
X122792604Y-80501780D02*
X122530699Y-81025590D01*
X122530699Y-81025590D02*
X122006889Y-81549400D01*
X122006889Y-81549400D02*
X121221175Y-81811304D01*
X121221175Y-81811304D02*
X119911651Y-81811304D01*
X129602127Y-81811304D02*
X129602127Y-76311304D01*
X129602127Y-76311304D02*
X131435461Y-80239876D01*
X131435461Y-80239876D02*
X133268794Y-76311304D01*
X133268794Y-76311304D02*
X133268794Y-81811304D01*
X138244984Y-81811304D02*
X138244984Y-78930352D01*
X138244984Y-78930352D02*
X137983079Y-78406542D01*
X137983079Y-78406542D02*
X137459270Y-78144638D01*
X137459270Y-78144638D02*
X136411651Y-78144638D01*
X136411651Y-78144638D02*
X135887841Y-78406542D01*
X138244984Y-81549400D02*
X137721175Y-81811304D01*
X137721175Y-81811304D02*
X136411651Y-81811304D01*
X136411651Y-81811304D02*
X135887841Y-81549400D01*
X135887841Y-81549400D02*
X135625937Y-81025590D01*
X135625937Y-81025590D02*
X135625937Y-80501780D01*
X135625937Y-80501780D02*
X135887841Y-79977971D01*
X135887841Y-79977971D02*
X136411651Y-79716066D01*
X136411651Y-79716066D02*
X137721175Y-79716066D01*
X137721175Y-79716066D02*
X138244984Y-79454161D01*
X140078317Y-78144638D02*
X142173555Y-78144638D01*
X140864031Y-76311304D02*
X140864031Y-81025590D01*
X140864031Y-81025590D02*
X141125936Y-81549400D01*
X141125936Y-81549400D02*
X141649746Y-81811304D01*
X141649746Y-81811304D02*
X142173555Y-81811304D01*
X144006888Y-81811304D02*
X144006888Y-78144638D01*
X144006888Y-79192257D02*
X144268793Y-78668447D01*
X144268793Y-78668447D02*
X144530698Y-78406542D01*
X144530698Y-78406542D02*
X145054507Y-78144638D01*
X145054507Y-78144638D02*
X145578317Y-78144638D01*
X147411650Y-81811304D02*
X147411650Y-78144638D01*
X147411650Y-76311304D02*
X147149746Y-76573209D01*
X147149746Y-76573209D02*
X147411650Y-76835114D01*
X147411650Y-76835114D02*
X147673555Y-76573209D01*
X147673555Y-76573209D02*
X147411650Y-76311304D01*
X147411650Y-76311304D02*
X147411650Y-76835114D01*
X149506889Y-81811304D02*
X152387841Y-78144638D01*
X149506889Y-78144638D02*
X152387841Y-81811304D01*
X75411653Y-143024978D02*
X76411653Y-143024978D01*
X76411653Y-143024978D02*
X75768796Y-144524978D01*
X77625939Y-143524978D02*
X77625939Y-144524978D01*
X77268796Y-142953550D02*
X76911653Y-144024978D01*
X76911653Y-144024978D02*
X77840224Y-144024978D01*
X78411652Y-144524978D02*
X78411652Y-143024978D01*
X78411652Y-143739264D02*
X79268795Y-143739264D01*
X79268795Y-144524978D02*
X79268795Y-143024978D01*
X80840224Y-144382121D02*
X80768796Y-144453550D01*
X80768796Y-144453550D02*
X80554510Y-144524978D01*
X80554510Y-144524978D02*
X80411653Y-144524978D01*
X80411653Y-144524978D02*
X80197367Y-144453550D01*
X80197367Y-144453550D02*
X80054510Y-144310692D01*
X80054510Y-144310692D02*
X79983081Y-144167835D01*
X79983081Y-144167835D02*
X79911653Y-143882121D01*
X79911653Y-143882121D02*
X79911653Y-143667835D01*
X79911653Y-143667835D02*
X79983081Y-143382121D01*
X79983081Y-143382121D02*
X80054510Y-143239264D01*
X80054510Y-143239264D02*
X80197367Y-143096407D01*
X80197367Y-143096407D02*
X80411653Y-143024978D01*
X80411653Y-143024978D02*
X80554510Y-143024978D01*
X80554510Y-143024978D02*
X80768796Y-143096407D01*
X80768796Y-143096407D02*
X80840224Y-143167835D01*
X82197367Y-143024978D02*
X81483081Y-143024978D01*
X81483081Y-143024978D02*
X81411653Y-143739264D01*
X81411653Y-143739264D02*
X81483081Y-143667835D01*
X81483081Y-143667835D02*
X81625939Y-143596407D01*
X81625939Y-143596407D02*
X81983081Y-143596407D01*
X81983081Y-143596407D02*
X82125939Y-143667835D01*
X82125939Y-143667835D02*
X82197367Y-143739264D01*
X82197367Y-143739264D02*
X82268796Y-143882121D01*
X82268796Y-143882121D02*
X82268796Y-144239264D01*
X82268796Y-144239264D02*
X82197367Y-144382121D01*
X82197367Y-144382121D02*
X82125939Y-144453550D01*
X82125939Y-144453550D02*
X81983081Y-144524978D01*
X81983081Y-144524978D02*
X81625939Y-144524978D01*
X81625939Y-144524978D02*
X81483081Y-144453550D01*
X81483081Y-144453550D02*
X81411653Y-144382121D01*
X82983081Y-144524978D02*
X83268795Y-144524978D01*
X83268795Y-144524978D02*
X83411652Y-144453550D01*
X83411652Y-144453550D02*
X83483081Y-144382121D01*
X83483081Y-144382121D02*
X83625938Y-144167835D01*
X83625938Y-144167835D02*
X83697367Y-143882121D01*
X83697367Y-143882121D02*
X83697367Y-143310692D01*
X83697367Y-143310692D02*
X83625938Y-143167835D01*
X83625938Y-143167835D02*
X83554510Y-143096407D01*
X83554510Y-143096407D02*
X83411652Y-143024978D01*
X83411652Y-143024978D02*
X83125938Y-143024978D01*
X83125938Y-143024978D02*
X82983081Y-143096407D01*
X82983081Y-143096407D02*
X82911652Y-143167835D01*
X82911652Y-143167835D02*
X82840224Y-143310692D01*
X82840224Y-143310692D02*
X82840224Y-143667835D01*
X82840224Y-143667835D02*
X82911652Y-143810692D01*
X82911652Y-143810692D02*
X82983081Y-143882121D01*
X82983081Y-143882121D02*
X83125938Y-143953550D01*
X83125938Y-143953550D02*
X83411652Y-143953550D01*
X83411652Y-143953550D02*
X83554510Y-143882121D01*
X83554510Y-143882121D02*
X83625938Y-143810692D01*
X83625938Y-143810692D02*
X83697367Y-143667835D01*
X85054509Y-143024978D02*
X84340223Y-143024978D01*
X84340223Y-143024978D02*
X84268795Y-143739264D01*
X84268795Y-143739264D02*
X84340223Y-143667835D01*
X84340223Y-143667835D02*
X84483081Y-143596407D01*
X84483081Y-143596407D02*
X84840223Y-143596407D01*
X84840223Y-143596407D02*
X84983081Y-143667835D01*
X84983081Y-143667835D02*
X85054509Y-143739264D01*
X85054509Y-143739264D02*
X85125938Y-143882121D01*
X85125938Y-143882121D02*
X85125938Y-144239264D01*
X85125938Y-144239264D02*
X85054509Y-144382121D01*
X85054509Y-144382121D02*
X84983081Y-144453550D01*
X84983081Y-144453550D02*
X84840223Y-144524978D01*
X84840223Y-144524978D02*
X84483081Y-144524978D01*
X84483081Y-144524978D02*
X84340223Y-144453550D01*
X84340223Y-144453550D02*
X84268795Y-144382121D01*
X123054510Y-104800828D02*
X123054510Y-103300828D01*
X123054510Y-103872257D02*
X123197368Y-103800828D01*
X123197368Y-103800828D02*
X123483082Y-103800828D01*
X123483082Y-103800828D02*
X123625939Y-103872257D01*
X123625939Y-103872257D02*
X123697368Y-103943685D01*
X123697368Y-103943685D02*
X123768796Y-104086542D01*
X123768796Y-104086542D02*
X123768796Y-104515114D01*
X123768796Y-104515114D02*
X123697368Y-104657971D01*
X123697368Y-104657971D02*
X123625939Y-104729400D01*
X123625939Y-104729400D02*
X123483082Y-104800828D01*
X123483082Y-104800828D02*
X123197368Y-104800828D01*
X123197368Y-104800828D02*
X123054510Y-104729400D01*
X124268796Y-103800828D02*
X124625939Y-104800828D01*
X124983082Y-103800828D02*
X124625939Y-104800828D01*
X124625939Y-104800828D02*
X124483082Y-105157971D01*
X124483082Y-105157971D02*
X124411653Y-105229400D01*
X124411653Y-105229400D02*
X124268796Y-105300828D01*
X126697367Y-104800828D02*
X126697367Y-103300828D01*
X126697367Y-103300828D02*
X127197367Y-104372257D01*
X127197367Y-104372257D02*
X127697367Y-103300828D01*
X127697367Y-103300828D02*
X127697367Y-104800828D01*
X128983082Y-104729400D02*
X128840225Y-104800828D01*
X128840225Y-104800828D02*
X128554511Y-104800828D01*
X128554511Y-104800828D02*
X128411653Y-104729400D01*
X128411653Y-104729400D02*
X128340225Y-104586542D01*
X128340225Y-104586542D02*
X128340225Y-104015114D01*
X128340225Y-104015114D02*
X128411653Y-103872257D01*
X128411653Y-103872257D02*
X128554511Y-103800828D01*
X128554511Y-103800828D02*
X128840225Y-103800828D01*
X128840225Y-103800828D02*
X128983082Y-103872257D01*
X128983082Y-103872257D02*
X129054511Y-104015114D01*
X129054511Y-104015114D02*
X129054511Y-104157971D01*
X129054511Y-104157971D02*
X128340225Y-104300828D01*
X129697367Y-104800828D02*
X129697367Y-103300828D01*
X130340225Y-104800828D02*
X130340225Y-104015114D01*
X130340225Y-104015114D02*
X130268796Y-103872257D01*
X130268796Y-103872257D02*
X130125939Y-103800828D01*
X130125939Y-103800828D02*
X129911653Y-103800828D01*
X129911653Y-103800828D02*
X129768796Y-103872257D01*
X129768796Y-103872257D02*
X129697367Y-103943685D01*
X131697368Y-104800828D02*
X131697368Y-103300828D01*
X131697368Y-104729400D02*
X131554510Y-104800828D01*
X131554510Y-104800828D02*
X131268796Y-104800828D01*
X131268796Y-104800828D02*
X131125939Y-104729400D01*
X131125939Y-104729400D02*
X131054510Y-104657971D01*
X131054510Y-104657971D02*
X130983082Y-104515114D01*
X130983082Y-104515114D02*
X130983082Y-104086542D01*
X130983082Y-104086542D02*
X131054510Y-103943685D01*
X131054510Y-103943685D02*
X131125939Y-103872257D01*
X131125939Y-103872257D02*
X131268796Y-103800828D01*
X131268796Y-103800828D02*
X131554510Y-103800828D01*
X131554510Y-103800828D02*
X131697368Y-103872257D01*
X132411653Y-104800828D02*
X132411653Y-103800828D01*
X132411653Y-103300828D02*
X132340225Y-103372257D01*
X132340225Y-103372257D02*
X132411653Y-103443685D01*
X132411653Y-103443685D02*
X132483082Y-103372257D01*
X132483082Y-103372257D02*
X132411653Y-103300828D01*
X132411653Y-103300828D02*
X132411653Y-103443685D01*
X134768796Y-104015114D02*
X134983082Y-104086542D01*
X134983082Y-104086542D02*
X135054511Y-104157971D01*
X135054511Y-104157971D02*
X135125939Y-104300828D01*
X135125939Y-104300828D02*
X135125939Y-104515114D01*
X135125939Y-104515114D02*
X135054511Y-104657971D01*
X135054511Y-104657971D02*
X134983082Y-104729400D01*
X134983082Y-104729400D02*
X134840225Y-104800828D01*
X134840225Y-104800828D02*
X134268796Y-104800828D01*
X134268796Y-104800828D02*
X134268796Y-103300828D01*
X134268796Y-103300828D02*
X134768796Y-103300828D01*
X134768796Y-103300828D02*
X134911654Y-103372257D01*
X134911654Y-103372257D02*
X134983082Y-103443685D01*
X134983082Y-103443685D02*
X135054511Y-103586542D01*
X135054511Y-103586542D02*
X135054511Y-103729400D01*
X135054511Y-103729400D02*
X134983082Y-103872257D01*
X134983082Y-103872257D02*
X134911654Y-103943685D01*
X134911654Y-103943685D02*
X134768796Y-104015114D01*
X134768796Y-104015114D02*
X134268796Y-104015114D01*
X136411654Y-104800828D02*
X136411654Y-104015114D01*
X136411654Y-104015114D02*
X136340225Y-103872257D01*
X136340225Y-103872257D02*
X136197368Y-103800828D01*
X136197368Y-103800828D02*
X135911654Y-103800828D01*
X135911654Y-103800828D02*
X135768796Y-103872257D01*
X136411654Y-104729400D02*
X136268796Y-104800828D01*
X136268796Y-104800828D02*
X135911654Y-104800828D01*
X135911654Y-104800828D02*
X135768796Y-104729400D01*
X135768796Y-104729400D02*
X135697368Y-104586542D01*
X135697368Y-104586542D02*
X135697368Y-104443685D01*
X135697368Y-104443685D02*
X135768796Y-104300828D01*
X135768796Y-104300828D02*
X135911654Y-104229400D01*
X135911654Y-104229400D02*
X136268796Y-104229400D01*
X136268796Y-104229400D02*
X136411654Y-104157971D01*
X137125939Y-104800828D02*
X137125939Y-103300828D01*
X137768797Y-104800828D02*
X137768797Y-104015114D01*
X137768797Y-104015114D02*
X137697368Y-103872257D01*
X137697368Y-103872257D02*
X137554511Y-103800828D01*
X137554511Y-103800828D02*
X137340225Y-103800828D01*
X137340225Y-103800828D02*
X137197368Y-103872257D01*
X137197368Y-103872257D02*
X137125939Y-103943685D01*
X138697368Y-104800828D02*
X138554511Y-104729400D01*
X138554511Y-104729400D02*
X138483082Y-104586542D01*
X138483082Y-104586542D02*
X138483082Y-103300828D01*
X139911654Y-104800828D02*
X139911654Y-104015114D01*
X139911654Y-104015114D02*
X139840225Y-103872257D01*
X139840225Y-103872257D02*
X139697368Y-103800828D01*
X139697368Y-103800828D02*
X139411654Y-103800828D01*
X139411654Y-103800828D02*
X139268796Y-103872257D01*
X139911654Y-104729400D02*
X139768796Y-104800828D01*
X139768796Y-104800828D02*
X139411654Y-104800828D01*
X139411654Y-104800828D02*
X139268796Y-104729400D01*
X139268796Y-104729400D02*
X139197368Y-104586542D01*
X139197368Y-104586542D02*
X139197368Y-104443685D01*
X139197368Y-104443685D02*
X139268796Y-104300828D01*
X139268796Y-104300828D02*
X139411654Y-104229400D01*
X139411654Y-104229400D02*
X139768796Y-104229400D01*
X139768796Y-104229400D02*
X139911654Y-104157971D01*
X140840225Y-104800828D02*
X140697368Y-104729400D01*
X140697368Y-104729400D02*
X140625939Y-104657971D01*
X140625939Y-104657971D02*
X140554511Y-104515114D01*
X140554511Y-104515114D02*
X140554511Y-104086542D01*
X140554511Y-104086542D02*
X140625939Y-103943685D01*
X140625939Y-103943685D02*
X140697368Y-103872257D01*
X140697368Y-103872257D02*
X140840225Y-103800828D01*
X140840225Y-103800828D02*
X141054511Y-103800828D01*
X141054511Y-103800828D02*
X141197368Y-103872257D01*
X141197368Y-103872257D02*
X141268797Y-103943685D01*
X141268797Y-103943685D02*
X141340225Y-104086542D01*
X141340225Y-104086542D02*
X141340225Y-104515114D01*
X141340225Y-104515114D02*
X141268797Y-104657971D01*
X141268797Y-104657971D02*
X141197368Y-104729400D01*
X141197368Y-104729400D02*
X141054511Y-104800828D01*
X141054511Y-104800828D02*
X140840225Y-104800828D01*
X142625940Y-103800828D02*
X142625940Y-104800828D01*
X141983082Y-103800828D02*
X141983082Y-104586542D01*
X141983082Y-104586542D02*
X142054511Y-104729400D01*
X142054511Y-104729400D02*
X142197368Y-104800828D01*
X142197368Y-104800828D02*
X142411654Y-104800828D01*
X142411654Y-104800828D02*
X142554511Y-104729400D01*
X142554511Y-104729400D02*
X142625940Y-104657971D01*
X143340225Y-104800828D02*
X143340225Y-103800828D01*
X143340225Y-103300828D02*
X143268797Y-103372257D01*
X143268797Y-103372257D02*
X143340225Y-103443685D01*
X143340225Y-103443685D02*
X143411654Y-103372257D01*
X143411654Y-103372257D02*
X143340225Y-103300828D01*
X143340225Y-103300828D02*
X143340225Y-103443685D01*
X104983082Y-149443685D02*
X105054510Y-149372257D01*
X105054510Y-149372257D02*
X105197368Y-149300828D01*
X105197368Y-149300828D02*
X105554510Y-149300828D01*
X105554510Y-149300828D02*
X105697368Y-149372257D01*
X105697368Y-149372257D02*
X105768796Y-149443685D01*
X105768796Y-149443685D02*
X105840225Y-149586542D01*
X105840225Y-149586542D02*
X105840225Y-149729400D01*
X105840225Y-149729400D02*
X105768796Y-149943685D01*
X105768796Y-149943685D02*
X104911653Y-150800828D01*
X104911653Y-150800828D02*
X105840225Y-150800828D01*
X106411653Y-149443685D02*
X106483081Y-149372257D01*
X106483081Y-149372257D02*
X106625939Y-149300828D01*
X106625939Y-149300828D02*
X106983081Y-149300828D01*
X106983081Y-149300828D02*
X107125939Y-149372257D01*
X107125939Y-149372257D02*
X107197367Y-149443685D01*
X107197367Y-149443685D02*
X107268796Y-149586542D01*
X107268796Y-149586542D02*
X107268796Y-149729400D01*
X107268796Y-149729400D02*
X107197367Y-149943685D01*
X107197367Y-149943685D02*
X106340224Y-150800828D01*
X106340224Y-150800828D02*
X107268796Y-150800828D01*
X108197367Y-149300828D02*
X108340224Y-149300828D01*
X108340224Y-149300828D02*
X108483081Y-149372257D01*
X108483081Y-149372257D02*
X108554510Y-149443685D01*
X108554510Y-149443685D02*
X108625938Y-149586542D01*
X108625938Y-149586542D02*
X108697367Y-149872257D01*
X108697367Y-149872257D02*
X108697367Y-150229400D01*
X108697367Y-150229400D02*
X108625938Y-150515114D01*
X108625938Y-150515114D02*
X108554510Y-150657971D01*
X108554510Y-150657971D02*
X108483081Y-150729400D01*
X108483081Y-150729400D02*
X108340224Y-150800828D01*
X108340224Y-150800828D02*
X108197367Y-150800828D01*
X108197367Y-150800828D02*
X108054510Y-150729400D01*
X108054510Y-150729400D02*
X107983081Y-150657971D01*
X107983081Y-150657971D02*
X107911652Y-150515114D01*
X107911652Y-150515114D02*
X107840224Y-150229400D01*
X107840224Y-150229400D02*
X107840224Y-149872257D01*
X107840224Y-149872257D02*
X107911652Y-149586542D01*
X107911652Y-149586542D02*
X107983081Y-149443685D01*
X107983081Y-149443685D02*
X108054510Y-149372257D01*
X108054510Y-149372257D02*
X108197367Y-149300828D01*
X110768795Y-149300828D02*
X111054509Y-149300828D01*
X111054509Y-149300828D02*
X111197366Y-149372257D01*
X111197366Y-149372257D02*
X111340223Y-149515114D01*
X111340223Y-149515114D02*
X111411652Y-149800828D01*
X111411652Y-149800828D02*
X111411652Y-150300828D01*
X111411652Y-150300828D02*
X111340223Y-150586542D01*
X111340223Y-150586542D02*
X111197366Y-150729400D01*
X111197366Y-150729400D02*
X111054509Y-150800828D01*
X111054509Y-150800828D02*
X110768795Y-150800828D01*
X110768795Y-150800828D02*
X110625938Y-150729400D01*
X110625938Y-150729400D02*
X110483080Y-150586542D01*
X110483080Y-150586542D02*
X110411652Y-150300828D01*
X110411652Y-150300828D02*
X110411652Y-149800828D01*
X110411652Y-149800828D02*
X110483080Y-149515114D01*
X110483080Y-149515114D02*
X110625938Y-149372257D01*
X110625938Y-149372257D02*
X110768795Y-149300828D01*
X112054509Y-150800828D02*
X112054509Y-149300828D01*
X112697367Y-150800828D02*
X112697367Y-150015114D01*
X112697367Y-150015114D02*
X112625938Y-149872257D01*
X112625938Y-149872257D02*
X112483081Y-149800828D01*
X112483081Y-149800828D02*
X112268795Y-149800828D01*
X112268795Y-149800828D02*
X112125938Y-149872257D01*
X112125938Y-149872257D02*
X112054509Y-149943685D01*
X113411652Y-150800828D02*
X113411652Y-149800828D01*
X113411652Y-149943685D02*
X113483081Y-149872257D01*
X113483081Y-149872257D02*
X113625938Y-149800828D01*
X113625938Y-149800828D02*
X113840224Y-149800828D01*
X113840224Y-149800828D02*
X113983081Y-149872257D01*
X113983081Y-149872257D02*
X114054510Y-150015114D01*
X114054510Y-150015114D02*
X114054510Y-150800828D01*
X114054510Y-150015114D02*
X114125938Y-149872257D01*
X114125938Y-149872257D02*
X114268795Y-149800828D01*
X114268795Y-149800828D02*
X114483081Y-149800828D01*
X114483081Y-149800828D02*
X114625938Y-149872257D01*
X114625938Y-149872257D02*
X114697367Y-150015114D01*
X114697367Y-150015114D02*
X114697367Y-150800828D01*
X71983082Y-93137971D02*
X74483082Y-93137971D01*
X75554510Y-97066542D02*
X71983082Y-97066542D01*
X71983082Y-97066542D02*
X71983082Y-89566542D01*
X71983082Y-89566542D02*
X75554510Y-89566542D01*
X78768796Y-97066542D02*
X78768796Y-89566542D01*
X78768796Y-89566542D02*
X83054510Y-97066542D01*
X83054510Y-97066542D02*
X83054510Y-89566542D01*
X86268796Y-96709400D02*
X87340225Y-97066542D01*
X87340225Y-97066542D02*
X89125939Y-97066542D01*
X89125939Y-97066542D02*
X89840225Y-96709400D01*
X89840225Y-96709400D02*
X90197367Y-96352257D01*
X90197367Y-96352257D02*
X90554510Y-95637971D01*
X90554510Y-95637971D02*
X90554510Y-94923685D01*
X90554510Y-94923685D02*
X90197367Y-94209400D01*
X90197367Y-94209400D02*
X89840225Y-93852257D01*
X89840225Y-93852257D02*
X89125939Y-93495114D01*
X89125939Y-93495114D02*
X87697367Y-93137971D01*
X87697367Y-93137971D02*
X86983082Y-92780828D01*
X86983082Y-92780828D02*
X86625939Y-92423685D01*
X86625939Y-92423685D02*
X86268796Y-91709400D01*
X86268796Y-91709400D02*
X86268796Y-90995114D01*
X86268796Y-90995114D02*
X86625939Y-90280828D01*
X86625939Y-90280828D02*
X86983082Y-89923685D01*
X86983082Y-89923685D02*
X87697367Y-89566542D01*
X87697367Y-89566542D02*
X89483082Y-89566542D01*
X89483082Y-89566542D02*
X90554510Y-89923685D01*
X93411653Y-94923685D02*
X96983082Y-94923685D01*
X92697367Y-97066542D02*
X95197367Y-89566542D01*
X95197367Y-89566542D02*
X97697367Y-97066542D01*
X100197367Y-97066542D02*
X100197367Y-89566542D01*
X100197367Y-89566542D02*
X102697367Y-94923685D01*
X102697367Y-94923685D02*
X105197367Y-89566542D01*
X105197367Y-89566542D02*
X105197367Y-97066542D01*
X118768796Y-97066542D02*
X116268796Y-93495114D01*
X114483082Y-97066542D02*
X114483082Y-89566542D01*
X114483082Y-89566542D02*
X117340225Y-89566542D01*
X117340225Y-89566542D02*
X118054510Y-89923685D01*
X118054510Y-89923685D02*
X118411653Y-90280828D01*
X118411653Y-90280828D02*
X118768796Y-90995114D01*
X118768796Y-90995114D02*
X118768796Y-92066542D01*
X118768796Y-92066542D02*
X118411653Y-92780828D01*
X118411653Y-92780828D02*
X118054510Y-93137971D01*
X118054510Y-93137971D02*
X117340225Y-93495114D01*
X117340225Y-93495114D02*
X114483082Y-93495114D01*
X121625939Y-94923685D02*
X125197368Y-94923685D01*
X120911653Y-97066542D02*
X123411653Y-89566542D01*
X123411653Y-89566542D02*
X125911653Y-97066542D01*
X130911653Y-93137971D02*
X131983081Y-93495114D01*
X131983081Y-93495114D02*
X132340224Y-93852257D01*
X132340224Y-93852257D02*
X132697367Y-94566542D01*
X132697367Y-94566542D02*
X132697367Y-95637971D01*
X132697367Y-95637971D02*
X132340224Y-96352257D01*
X132340224Y-96352257D02*
X131983081Y-96709400D01*
X131983081Y-96709400D02*
X131268796Y-97066542D01*
X131268796Y-97066542D02*
X128411653Y-97066542D01*
X128411653Y-97066542D02*
X128411653Y-89566542D01*
X128411653Y-89566542D02*
X130911653Y-89566542D01*
X130911653Y-89566542D02*
X131625939Y-89923685D01*
X131625939Y-89923685D02*
X131983081Y-90280828D01*
X131983081Y-90280828D02*
X132340224Y-90995114D01*
X132340224Y-90995114D02*
X132340224Y-91709400D01*
X132340224Y-91709400D02*
X131983081Y-92423685D01*
X131983081Y-92423685D02*
X131625939Y-92780828D01*
X131625939Y-92780828D02*
X130911653Y-93137971D01*
X130911653Y-93137971D02*
X128411653Y-93137971D01*
X135554510Y-94923685D02*
X139125939Y-94923685D01*
X134840224Y-97066542D02*
X137340224Y-89566542D01*
X137340224Y-89566542D02*
X139840224Y-97066542D01*
X141268795Y-89566542D02*
X145554510Y-89566542D01*
X143411652Y-97066542D02*
X143411652Y-89566542D01*
D12*
X60475093Y-122515940D02*
X59879855Y-122515940D01*
X59879855Y-122515940D02*
X59820331Y-123301654D01*
X59820331Y-123301654D02*
X59879855Y-123223083D01*
X59879855Y-123223083D02*
X59998902Y-123144511D01*
X59998902Y-123144511D02*
X60296521Y-123144511D01*
X60296521Y-123144511D02*
X60415569Y-123223083D01*
X60415569Y-123223083D02*
X60475093Y-123301654D01*
X60475093Y-123301654D02*
X60534616Y-123458797D01*
X60534616Y-123458797D02*
X60534616Y-123851654D01*
X60534616Y-123851654D02*
X60475093Y-124008797D01*
X60475093Y-124008797D02*
X60415569Y-124087369D01*
X60415569Y-124087369D02*
X60296521Y-124165940D01*
X60296521Y-124165940D02*
X59998902Y-124165940D01*
X59998902Y-124165940D02*
X59879855Y-124087369D01*
X59879855Y-124087369D02*
X59820331Y-124008797D01*
X60891759Y-122515940D02*
X61308426Y-124165940D01*
X61308426Y-124165940D02*
X61725092Y-122515940D01*
X60534616Y-125250919D02*
X60415569Y-125172348D01*
X60415569Y-125172348D02*
X60236997Y-125172348D01*
X60236997Y-125172348D02*
X60058426Y-125250919D01*
X60058426Y-125250919D02*
X59939378Y-125408062D01*
X59939378Y-125408062D02*
X59879855Y-125565205D01*
X59879855Y-125565205D02*
X59820331Y-125879491D01*
X59820331Y-125879491D02*
X59820331Y-126115205D01*
X59820331Y-126115205D02*
X59879855Y-126429491D01*
X59879855Y-126429491D02*
X59939378Y-126586634D01*
X59939378Y-126586634D02*
X60058426Y-126743777D01*
X60058426Y-126743777D02*
X60236997Y-126822348D01*
X60236997Y-126822348D02*
X60356045Y-126822348D01*
X60356045Y-126822348D02*
X60534616Y-126743777D01*
X60534616Y-126743777D02*
X60594140Y-126665205D01*
X60594140Y-126665205D02*
X60594140Y-126115205D01*
X60594140Y-126115205D02*
X60356045Y-126115205D01*
X61129855Y-126822348D02*
X61129855Y-125172348D01*
X61129855Y-125172348D02*
X61844140Y-126822348D01*
X61844140Y-126822348D02*
X61844140Y-125172348D01*
X62439379Y-126822348D02*
X62439379Y-125172348D01*
X62439379Y-125172348D02*
X62736998Y-125172348D01*
X62736998Y-125172348D02*
X62915569Y-125250919D01*
X62915569Y-125250919D02*
X63034617Y-125408062D01*
X63034617Y-125408062D02*
X63094140Y-125565205D01*
X63094140Y-125565205D02*
X63153664Y-125879491D01*
X63153664Y-125879491D02*
X63153664Y-126115205D01*
X63153664Y-126115205D02*
X63094140Y-126429491D01*
X63094140Y-126429491D02*
X63034617Y-126586634D01*
X63034617Y-126586634D02*
X62915569Y-126743777D01*
X62915569Y-126743777D02*
X62736998Y-126822348D01*
X62736998Y-126822348D02*
X62439379Y-126822348D01*
X59879855Y-129478756D02*
X59879855Y-127828756D01*
X59879855Y-127828756D02*
X60177474Y-127828756D01*
X60177474Y-127828756D02*
X60356045Y-127907327D01*
X60356045Y-127907327D02*
X60475093Y-128064470D01*
X60475093Y-128064470D02*
X60534616Y-128221613D01*
X60534616Y-128221613D02*
X60594140Y-128535899D01*
X60594140Y-128535899D02*
X60594140Y-128771613D01*
X60594140Y-128771613D02*
X60534616Y-129085899D01*
X60534616Y-129085899D02*
X60475093Y-129243042D01*
X60475093Y-129243042D02*
X60356045Y-129400185D01*
X60356045Y-129400185D02*
X60177474Y-129478756D01*
X60177474Y-129478756D02*
X59879855Y-129478756D01*
X61070331Y-129007327D02*
X61665569Y-129007327D01*
X60951283Y-129478756D02*
X61367950Y-127828756D01*
X61367950Y-127828756D02*
X61784616Y-129478756D01*
X62022712Y-127828756D02*
X62736998Y-127828756D01*
X62379855Y-129478756D02*
X62379855Y-127828756D01*
X63094141Y-129007327D02*
X63689379Y-129007327D01*
X62975093Y-129478756D02*
X63391760Y-127828756D01*
X63391760Y-127828756D02*
X63808426Y-129478756D01*
X59820331Y-132056593D02*
X59998902Y-132135164D01*
X59998902Y-132135164D02*
X60296521Y-132135164D01*
X60296521Y-132135164D02*
X60415569Y-132056593D01*
X60415569Y-132056593D02*
X60475093Y-131978021D01*
X60475093Y-131978021D02*
X60534616Y-131820878D01*
X60534616Y-131820878D02*
X60534616Y-131663735D01*
X60534616Y-131663735D02*
X60475093Y-131506593D01*
X60475093Y-131506593D02*
X60415569Y-131428021D01*
X60415569Y-131428021D02*
X60296521Y-131349450D01*
X60296521Y-131349450D02*
X60058426Y-131270878D01*
X60058426Y-131270878D02*
X59939378Y-131192307D01*
X59939378Y-131192307D02*
X59879855Y-131113735D01*
X59879855Y-131113735D02*
X59820331Y-130956593D01*
X59820331Y-130956593D02*
X59820331Y-130799450D01*
X59820331Y-130799450D02*
X59879855Y-130642307D01*
X59879855Y-130642307D02*
X59939378Y-130563735D01*
X59939378Y-130563735D02*
X60058426Y-130485164D01*
X60058426Y-130485164D02*
X60356045Y-130485164D01*
X60356045Y-130485164D02*
X60534616Y-130563735D01*
X60891759Y-130485164D02*
X61606045Y-130485164D01*
X61248902Y-132135164D02*
X61248902Y-130485164D01*
X62260807Y-130485164D02*
X62498902Y-130485164D01*
X62498902Y-130485164D02*
X62617950Y-130563735D01*
X62617950Y-130563735D02*
X62736997Y-130720878D01*
X62736997Y-130720878D02*
X62796521Y-131035164D01*
X62796521Y-131035164D02*
X62796521Y-131585164D01*
X62796521Y-131585164D02*
X62736997Y-131899450D01*
X62736997Y-131899450D02*
X62617950Y-132056593D01*
X62617950Y-132056593D02*
X62498902Y-132135164D01*
X62498902Y-132135164D02*
X62260807Y-132135164D01*
X62260807Y-132135164D02*
X62141759Y-132056593D01*
X62141759Y-132056593D02*
X62022712Y-131899450D01*
X62022712Y-131899450D02*
X61963188Y-131585164D01*
X61963188Y-131585164D02*
X61963188Y-131035164D01*
X61963188Y-131035164D02*
X62022712Y-130720878D01*
X62022712Y-130720878D02*
X62141759Y-130563735D01*
X62141759Y-130563735D02*
X62260807Y-130485164D01*
X64046521Y-132135164D02*
X63629855Y-131349450D01*
X63332236Y-132135164D02*
X63332236Y-130485164D01*
X63332236Y-130485164D02*
X63808426Y-130485164D01*
X63808426Y-130485164D02*
X63927474Y-130563735D01*
X63927474Y-130563735D02*
X63986997Y-130642307D01*
X63986997Y-130642307D02*
X64046521Y-130799450D01*
X64046521Y-130799450D02*
X64046521Y-131035164D01*
X64046521Y-131035164D02*
X63986997Y-131192307D01*
X63986997Y-131192307D02*
X63927474Y-131270878D01*
X63927474Y-131270878D02*
X63808426Y-131349450D01*
X63808426Y-131349450D02*
X63332236Y-131349450D01*
X64582236Y-131270878D02*
X64998902Y-131270878D01*
X65177474Y-132135164D02*
X64582236Y-132135164D01*
X64582236Y-132135164D02*
X64582236Y-130485164D01*
X64582236Y-130485164D02*
X65177474Y-130485164D01*
X59820331Y-134713001D02*
X59998902Y-134791572D01*
X59998902Y-134791572D02*
X60296521Y-134791572D01*
X60296521Y-134791572D02*
X60415569Y-134713001D01*
X60415569Y-134713001D02*
X60475093Y-134634429D01*
X60475093Y-134634429D02*
X60534616Y-134477286D01*
X60534616Y-134477286D02*
X60534616Y-134320143D01*
X60534616Y-134320143D02*
X60475093Y-134163001D01*
X60475093Y-134163001D02*
X60415569Y-134084429D01*
X60415569Y-134084429D02*
X60296521Y-134005858D01*
X60296521Y-134005858D02*
X60058426Y-133927286D01*
X60058426Y-133927286D02*
X59939378Y-133848715D01*
X59939378Y-133848715D02*
X59879855Y-133770143D01*
X59879855Y-133770143D02*
X59820331Y-133613001D01*
X59820331Y-133613001D02*
X59820331Y-133455858D01*
X59820331Y-133455858D02*
X59879855Y-133298715D01*
X59879855Y-133298715D02*
X59939378Y-133220143D01*
X59939378Y-133220143D02*
X60058426Y-133141572D01*
X60058426Y-133141572D02*
X60356045Y-133141572D01*
X60356045Y-133141572D02*
X60534616Y-133220143D01*
X61070331Y-134791572D02*
X61070331Y-133141572D01*
X61070331Y-133927286D02*
X61784616Y-133927286D01*
X61784616Y-134791572D02*
X61784616Y-133141572D01*
X62379855Y-134791572D02*
X62379855Y-133141572D01*
X63391759Y-133927286D02*
X62975093Y-133927286D01*
X62975093Y-134791572D02*
X62975093Y-133141572D01*
X62975093Y-133141572D02*
X63570331Y-133141572D01*
X63867950Y-133141572D02*
X64582236Y-133141572D01*
X64225093Y-134791572D02*
X64225093Y-133141572D01*
D13*
%TO.C,J2*%
X145170000Y-119894100D02*
X146500000Y-119894100D01*
X145170000Y-121224100D02*
X145170000Y-119894100D01*
X145170000Y-122494100D02*
X145170000Y-140334100D01*
X145170000Y-122494100D02*
X147830000Y-122494100D01*
X145170000Y-140334100D02*
X147830000Y-140334100D01*
X147830000Y-122494100D02*
X147830000Y-140334100D01*
%TO.C,R3*%
X106230000Y-133354100D02*
X106230000Y-133684100D01*
X106230000Y-136094100D02*
X106230000Y-135764100D01*
X112770000Y-133354100D02*
X106230000Y-133354100D01*
X112770000Y-133684100D02*
X112770000Y-133354100D01*
X112770000Y-135764100D02*
X112770000Y-136094100D01*
X112770000Y-136094100D02*
X106230000Y-136094100D01*
%TO.C,R5*%
X106230000Y-125254100D02*
X106230000Y-125584100D01*
X106230000Y-127994100D02*
X106230000Y-127664100D01*
X112770000Y-125254100D02*
X106230000Y-125254100D01*
X112770000Y-125584100D02*
X112770000Y-125254100D01*
X112770000Y-127664100D02*
X112770000Y-127994100D01*
X112770000Y-127994100D02*
X106230000Y-127994100D01*
%TO.C,R2*%
X106230000Y-137404100D02*
X106230000Y-137734100D01*
X106230000Y-140144100D02*
X106230000Y-139814100D01*
X112770000Y-137404100D02*
X106230000Y-137404100D01*
X112770000Y-137734100D02*
X112770000Y-137404100D01*
X112770000Y-139814100D02*
X112770000Y-140144100D01*
X112770000Y-140144100D02*
X106230000Y-140144100D01*
%TO.C,R6*%
X106230000Y-121204100D02*
X106230000Y-121534100D01*
X106230000Y-123944100D02*
X106230000Y-123614100D01*
X112770000Y-121204100D02*
X106230000Y-121204100D01*
X112770000Y-121534100D02*
X112770000Y-121204100D01*
X112770000Y-123614100D02*
X112770000Y-123944100D01*
X112770000Y-123944100D02*
X106230000Y-123944100D01*
%TO.C,Rows1*%
X81810000Y-118314100D02*
G75*
G02*
X79810000Y-118314100I-1000000J0D01*
G01*
X83060000Y-138754100D02*
X83060000Y-118314100D01*
X83060000Y-118314100D02*
X81810000Y-118314100D01*
X79810000Y-118314100D02*
X78560000Y-118314100D01*
X78560000Y-138754100D02*
X83060000Y-138754100D01*
X78560000Y-118314100D02*
X78560000Y-138754100D01*
%TO.C,J1*%
X68830000Y-124589100D02*
X68830000Y-134809100D01*
X66170000Y-134809100D02*
X68830000Y-134809100D01*
X66170000Y-124589100D02*
X68830000Y-124589100D01*
X66170000Y-124589100D02*
X66170000Y-134809100D01*
X66170000Y-123319100D02*
X66170000Y-121989100D01*
X66170000Y-121989100D02*
X67500000Y-121989100D01*
%TO.C,R8*%
X106230000Y-113104100D02*
X106230000Y-113434100D01*
X106230000Y-115844100D02*
X106230000Y-115514100D01*
X112770000Y-113104100D02*
X106230000Y-113104100D01*
X112770000Y-113434100D02*
X112770000Y-113104100D01*
X112770000Y-115514100D02*
X112770000Y-115844100D01*
X112770000Y-115844100D02*
X106230000Y-115844100D01*
%TO.C,Columns1*%
X91560000Y-118274100D02*
X91560000Y-138714100D01*
X91560000Y-138714100D02*
X96060000Y-138714100D01*
X92810000Y-118274100D02*
X91560000Y-118274100D01*
X96060000Y-118274100D02*
X94810000Y-118274100D01*
X96060000Y-138714100D02*
X96060000Y-118274100D01*
X94810000Y-118274100D02*
G75*
G02*
X92810000Y-118274100I-1000000J0D01*
G01*
%TO.C,J3*%
X121210000Y-119894100D02*
X122540000Y-119894100D01*
X121210000Y-121224100D02*
X121210000Y-119894100D01*
X121210000Y-122494100D02*
X121210000Y-140334100D01*
X121210000Y-122494100D02*
X123870000Y-122494100D01*
X121210000Y-140334100D02*
X123870000Y-140334100D01*
X123870000Y-122494100D02*
X123870000Y-140334100D01*
%TO.C,R4*%
X106230000Y-129304100D02*
X106230000Y-129634100D01*
X106230000Y-132044100D02*
X106230000Y-131714100D01*
X112770000Y-129304100D02*
X106230000Y-129304100D01*
X112770000Y-129634100D02*
X112770000Y-129304100D01*
X112770000Y-131714100D02*
X112770000Y-132044100D01*
X112770000Y-132044100D02*
X106230000Y-132044100D01*
%TO.C,R7*%
X106230000Y-117154100D02*
X106230000Y-117484100D01*
X106230000Y-119894100D02*
X106230000Y-119564100D01*
X112770000Y-117154100D02*
X106230000Y-117154100D01*
X112770000Y-117484100D02*
X112770000Y-117154100D01*
X112770000Y-119564100D02*
X112770000Y-119894100D01*
X112770000Y-119894100D02*
X106230000Y-119894100D01*
%TO.C,R1*%
X106230000Y-141454100D02*
X106230000Y-141784100D01*
X106230000Y-144194100D02*
X106230000Y-143864100D01*
X112770000Y-141454100D02*
X106230000Y-141454100D01*
X112770000Y-141784100D02*
X112770000Y-141454100D01*
X112770000Y-143864100D02*
X112770000Y-144194100D01*
X112770000Y-144194100D02*
X106230000Y-144194100D01*
%TD*%
M02*
