%TF.GenerationSoftware,KiCad,Pcbnew,8.0.5*%
%TF.CreationDate,2024-10-20T14:37:55+01:00*%
%TF.ProjectId,Matrix pcb,4d617472-6978-4207-9063-622e6b696361,rev?*%
%TF.SameCoordinates,Original*%
%TF.FileFunction,Copper,L1,Top*%
%TF.FilePolarity,Positive*%
%FSLAX46Y46*%
G04 Gerber Fmt 4.6, Leading zero omitted, Abs format (unit mm)*
G04 Created by KiCad (PCBNEW 8.0.5) date 2024-10-20 14:37:55*
%MOMM*%
%LPD*%
G01*
G04 APERTURE LIST*
%TA.AperFunction,ComponentPad*%
%ADD10R,1.700000X1.700000*%
%TD*%
%TA.AperFunction,ComponentPad*%
%ADD11O,1.700000X1.700000*%
%TD*%
%TA.AperFunction,ComponentPad*%
%ADD12C,1.600000*%
%TD*%
%TA.AperFunction,ComponentPad*%
%ADD13O,1.600000X1.600000*%
%TD*%
%TA.AperFunction,ComponentPad*%
%ADD14O,2.400000X1.600000*%
%TD*%
%TA.AperFunction,ComponentPad*%
%ADD15R,2.400000X1.600000*%
%TD*%
%TA.AperFunction,Conductor*%
%ADD16C,0.200000*%
%TD*%
G04 APERTURE END LIST*
D10*
%TO.P,J2,1,Pin_1*%
%TO.N,Net-(J2-Pin_1)*%
X146500000Y-121224100D03*
D11*
%TO.P,J2,2,Pin_2*%
%TO.N,Net-(J2-Pin_2)*%
X146500000Y-123764100D03*
%TO.P,J2,3,Pin_3*%
%TO.N,Net-(J2-Pin_3)*%
X146500000Y-126304100D03*
%TO.P,J2,4,Pin_4*%
%TO.N,Net-(J2-Pin_4)*%
X146500000Y-128844100D03*
%TO.P,J2,5,Pin_5*%
%TO.N,Net-(J2-Pin_5)*%
X146500000Y-131384100D03*
%TO.P,J2,6,Pin_6*%
%TO.N,Net-(J2-Pin_6)*%
X146500000Y-133924100D03*
%TO.P,J2,7,Pin_7*%
%TO.N,Net-(J2-Pin_7)*%
X146500000Y-136464100D03*
%TO.P,J2,8,Pin_8*%
%TO.N,Net-(J2-Pin_8)*%
X146500000Y-139004100D03*
%TD*%
D12*
%TO.P,R3,1*%
%TO.N,Net-(J3-Pin_6)*%
X113310000Y-134724100D03*
D13*
%TO.P,R3,2*%
%TO.N,Net-(Columns1-QF)*%
X105690000Y-134724100D03*
%TD*%
D12*
%TO.P,R5,1*%
%TO.N,Net-(J3-Pin_4)*%
X113310000Y-126624100D03*
D13*
%TO.P,R5,2*%
%TO.N,Net-(Columns1-QD)*%
X105690000Y-126624100D03*
%TD*%
D12*
%TO.P,R2,1*%
%TO.N,Net-(J3-Pin_7)*%
X113310000Y-138774100D03*
D13*
%TO.P,R2,2*%
%TO.N,Net-(Columns1-QG)*%
X105690000Y-138774100D03*
%TD*%
D12*
%TO.P,R6,1*%
%TO.N,Net-(J3-Pin_3)*%
X113310000Y-122574100D03*
D13*
%TO.P,R6,2*%
%TO.N,Net-(Columns1-QC)*%
X105690000Y-122574100D03*
%TD*%
D14*
%TO.P,Rows1,16,VCC*%
%TO.N,+5V*%
X84620000Y-119644100D03*
%TO.P,Rows1,15,QA*%
%TO.N,Net-(J2-Pin_1)*%
X84620000Y-122184100D03*
%TO.P,Rows1,14,SER*%
%TO.N,Net-(J1-Pin_3)*%
X84620000Y-124724100D03*
%TO.P,Rows1,13,~{OE}*%
%TO.N,GND*%
X84620000Y-127264100D03*
%TO.P,Rows1,12,RCLK*%
%TO.N,Net-(Columns1-RCLK)*%
X84620000Y-129804100D03*
%TO.P,Rows1,11,SRCLK*%
%TO.N,Net-(Columns1-SRCLK)*%
X84620000Y-132344100D03*
%TO.P,Rows1,10,~{SRCLR}*%
%TO.N,GND*%
X84620000Y-134884100D03*
%TO.P,Rows1,9,QH'*%
%TO.N,Net-(Columns1-SER)*%
X84620000Y-137424100D03*
%TO.P,Rows1,8,GND*%
%TO.N,GND*%
X77000000Y-137424100D03*
%TO.P,Rows1,7,QH*%
%TO.N,Net-(J2-Pin_8)*%
X77000000Y-134884100D03*
%TO.P,Rows1,6,QG*%
%TO.N,Net-(J2-Pin_7)*%
X77000000Y-132344100D03*
%TO.P,Rows1,5,QF*%
%TO.N,Net-(J2-Pin_6)*%
X77000000Y-129804100D03*
%TO.P,Rows1,4,QE*%
%TO.N,Net-(J2-Pin_5)*%
X77000000Y-127264100D03*
%TO.P,Rows1,3,QD*%
%TO.N,Net-(J2-Pin_4)*%
X77000000Y-124724100D03*
%TO.P,Rows1,2,QC*%
%TO.N,Net-(J2-Pin_3)*%
X77000000Y-122184100D03*
D15*
%TO.P,Rows1,1,QB*%
%TO.N,Net-(J2-Pin_2)*%
X77000000Y-119644100D03*
%TD*%
D11*
%TO.P,J1,5,Pin_5*%
%TO.N,Net-(Columns1-SRCLK)*%
X67500000Y-133479100D03*
%TO.P,J1,4,Pin_4*%
%TO.N,Net-(Columns1-RCLK)*%
X67500000Y-130939100D03*
%TO.P,J1,3,Pin_3*%
%TO.N,Net-(J1-Pin_3)*%
X67500000Y-128399100D03*
%TO.P,J1,2,Pin_2*%
%TO.N,GND*%
X67500000Y-125859100D03*
D10*
%TO.P,J1,1,Pin_1*%
%TO.N,+5V*%
X67500000Y-123319100D03*
%TD*%
D12*
%TO.P,R8,1*%
%TO.N,Net-(J3-Pin_1)*%
X113310000Y-114474100D03*
D13*
%TO.P,R8,2*%
%TO.N,Net-(Columns1-QA)*%
X105690000Y-114474100D03*
%TD*%
D15*
%TO.P,Columns1,1,QB*%
%TO.N,Net-(Columns1-QB)*%
X90000000Y-119604100D03*
D14*
%TO.P,Columns1,2,QC*%
%TO.N,Net-(Columns1-QC)*%
X90000000Y-122144100D03*
%TO.P,Columns1,3,QD*%
%TO.N,Net-(Columns1-QD)*%
X90000000Y-124684100D03*
%TO.P,Columns1,4,QE*%
%TO.N,Net-(Columns1-QE)*%
X90000000Y-127224100D03*
%TO.P,Columns1,5,QF*%
%TO.N,Net-(Columns1-QF)*%
X90000000Y-129764100D03*
%TO.P,Columns1,6,QG*%
%TO.N,Net-(Columns1-QG)*%
X90000000Y-132304100D03*
%TO.P,Columns1,7,QH*%
%TO.N,Net-(Columns1-QH)*%
X90000000Y-134844100D03*
%TO.P,Columns1,8,GND*%
%TO.N,GND*%
X90000000Y-137384100D03*
%TO.P,Columns1,9,QH'*%
%TO.N,unconnected-(Columns1-QH'-Pad9)*%
X97620000Y-137384100D03*
%TO.P,Columns1,10,~{SRCLR}*%
%TO.N,GND*%
X97620000Y-134844100D03*
%TO.P,Columns1,11,SRCLK*%
%TO.N,Net-(Columns1-SRCLK)*%
X97620000Y-132304100D03*
%TO.P,Columns1,12,RCLK*%
%TO.N,Net-(Columns1-RCLK)*%
X97620000Y-129764100D03*
%TO.P,Columns1,13,~{OE}*%
%TO.N,GND*%
X97620000Y-127224100D03*
%TO.P,Columns1,14,SER*%
%TO.N,Net-(Columns1-SER)*%
X97620000Y-124684100D03*
%TO.P,Columns1,15,QA*%
%TO.N,Net-(Columns1-QA)*%
X97620000Y-122144100D03*
%TO.P,Columns1,16,VCC*%
%TO.N,+5V*%
X97620000Y-119604100D03*
%TD*%
D10*
%TO.P,J3,1,Pin_1*%
%TO.N,Net-(J3-Pin_1)*%
X122540000Y-121224100D03*
D11*
%TO.P,J3,2,Pin_2*%
%TO.N,Net-(J3-Pin_2)*%
X122540000Y-123764100D03*
%TO.P,J3,3,Pin_3*%
%TO.N,Net-(J3-Pin_3)*%
X122540000Y-126304100D03*
%TO.P,J3,4,Pin_4*%
%TO.N,Net-(J3-Pin_4)*%
X122540000Y-128844100D03*
%TO.P,J3,5,Pin_5*%
%TO.N,Net-(J3-Pin_5)*%
X122540000Y-131384100D03*
%TO.P,J3,6,Pin_6*%
%TO.N,Net-(J3-Pin_6)*%
X122540000Y-133924100D03*
%TO.P,J3,7,Pin_7*%
%TO.N,Net-(J3-Pin_7)*%
X122540000Y-136464100D03*
%TO.P,J3,8,Pin_8*%
%TO.N,Net-(J3-Pin_8)*%
X122540000Y-139004100D03*
%TD*%
D12*
%TO.P,R4,1*%
%TO.N,Net-(J3-Pin_5)*%
X113310000Y-130674100D03*
D13*
%TO.P,R4,2*%
%TO.N,Net-(Columns1-QE)*%
X105690000Y-130674100D03*
%TD*%
D12*
%TO.P,R7,1*%
%TO.N,Net-(J3-Pin_2)*%
X113310000Y-118524100D03*
D13*
%TO.P,R7,2*%
%TO.N,Net-(Columns1-QB)*%
X105690000Y-118524100D03*
%TD*%
D12*
%TO.P,R1,1*%
%TO.N,Net-(J3-Pin_8)*%
X113310000Y-142824100D03*
D13*
%TO.P,R1,2*%
%TO.N,Net-(Columns1-QH)*%
X105690000Y-142824100D03*
%TD*%
D16*
%TO.N,GND*%
X92124100Y-126124100D02*
X93224100Y-127224100D01*
X93224100Y-127224100D02*
X97620000Y-127224100D01*
X85760000Y-126124100D02*
X92124100Y-126124100D01*
X84620000Y-127264100D02*
X85760000Y-126124100D01*
X79540000Y-134884100D02*
X77000000Y-137424100D01*
X84620000Y-134884100D02*
X79540000Y-134884100D01*
%TO.N,Net-(J3-Pin_6)*%
X120588300Y-134724100D02*
X121388300Y-133924100D01*
X113310000Y-134724100D02*
X120588300Y-134724100D01*
X122540000Y-133924100D02*
X121388300Y-133924100D01*
%TO.N,Net-(J3-Pin_1)*%
X122540000Y-121224100D02*
X121388300Y-121224100D01*
X114638300Y-114474100D02*
X121388300Y-121224100D01*
X113310000Y-114474100D02*
X114638300Y-114474100D01*
%TO.N,Net-(J3-Pin_5)*%
X120678300Y-130674100D02*
X121388300Y-131384100D01*
X113310000Y-130674100D02*
X120678300Y-130674100D01*
X122540000Y-131384100D02*
X121388300Y-131384100D01*
%TO.N,Net-(J3-Pin_8)*%
X117568300Y-142824100D02*
X121388300Y-139004100D01*
X113310000Y-142824100D02*
X117568300Y-142824100D01*
X122540000Y-139004100D02*
X121388300Y-139004100D01*
%TO.N,Net-(J3-Pin_2)*%
X122540000Y-123764100D02*
X121388300Y-123764100D01*
X116148300Y-118524100D02*
X121388300Y-123764100D01*
X113310000Y-118524100D02*
X116148300Y-118524100D01*
%TO.N,Net-(J3-Pin_7)*%
X115620000Y-136464100D02*
X122540000Y-136464100D01*
X113310000Y-138774100D02*
X115620000Y-136464100D01*
%TO.N,Net-(J3-Pin_3)*%
X122540000Y-126304100D02*
X121388300Y-126304100D01*
X117658300Y-122574100D02*
X121388300Y-126304100D01*
X113310000Y-122574100D02*
X117658300Y-122574100D01*
%TO.N,Net-(J2-Pin_6)*%
X144078300Y-132654100D02*
X145348300Y-133924100D01*
X110939200Y-132654100D02*
X144078300Y-132654100D01*
X106936500Y-128651400D02*
X110939200Y-132654100D01*
X81586600Y-128651400D02*
X106936500Y-128651400D01*
X80433900Y-129804100D02*
X81586600Y-128651400D01*
X77000000Y-129804100D02*
X80433900Y-129804100D01*
X146500000Y-133924100D02*
X145348300Y-133924100D01*
%TO.N,Net-(J2-Pin_7)*%
X144078300Y-137734100D02*
X145348300Y-136464100D01*
X120207800Y-137734100D02*
X144078300Y-137734100D01*
X118010100Y-139931800D02*
X120207800Y-137734100D01*
X98209600Y-139931800D02*
X118010100Y-139931800D01*
X91938300Y-133660500D02*
X98209600Y-139931800D01*
X88445900Y-133660500D02*
X91938300Y-133660500D01*
X85969300Y-131183900D02*
X88445900Y-133660500D01*
X82823000Y-131183900D02*
X85969300Y-131183900D01*
X81662800Y-132344100D02*
X82823000Y-131183900D01*
X77000000Y-132344100D02*
X81662800Y-132344100D01*
X146500000Y-136464100D02*
X145348300Y-136464100D01*
%TO.N,Net-(J2-Pin_3)*%
X146500000Y-126304100D02*
X145348300Y-126304100D01*
X77000000Y-122184100D02*
X78501700Y-122184100D01*
X144196600Y-125152400D02*
X145348300Y-126304100D01*
X120849700Y-125152400D02*
X144196600Y-125152400D01*
X116246400Y-120549100D02*
X120849700Y-125152400D01*
X110209100Y-120549100D02*
X116246400Y-120549100D01*
X107075000Y-117415000D02*
X110209100Y-120549100D01*
X83270800Y-117415000D02*
X107075000Y-117415000D01*
X78501700Y-122184100D02*
X83270800Y-117415000D01*
%TO.N,Net-(J2-Pin_2)*%
X144018300Y-122434100D02*
X145348300Y-123764100D01*
X120895400Y-122434100D02*
X144018300Y-122434100D01*
X115424800Y-116963500D02*
X120895400Y-122434100D01*
X81182300Y-116963500D02*
X115424800Y-116963500D01*
X78501700Y-119644100D02*
X81182300Y-116963500D01*
X77000000Y-119644100D02*
X78501700Y-119644100D01*
X146500000Y-123764100D02*
X145348300Y-123764100D01*
%TO.N,Net-(J2-Pin_4)*%
X144078300Y-127574100D02*
X145348300Y-128844100D01*
X120507400Y-127574100D02*
X144078300Y-127574100D01*
X117907900Y-124974600D02*
X120507400Y-127574100D01*
X106290600Y-124974600D02*
X117907900Y-124974600D01*
X104863400Y-123547400D02*
X106290600Y-124974600D01*
X79678400Y-123547400D02*
X104863400Y-123547400D01*
X78501700Y-124724100D02*
X79678400Y-123547400D01*
X77000000Y-124724100D02*
X78501700Y-124724100D01*
X146500000Y-128844100D02*
X145348300Y-128844100D01*
%TO.N,Net-(J1-Pin_3)*%
X79443300Y-128399100D02*
X83118300Y-124724100D01*
X67500000Y-128399100D02*
X79443300Y-128399100D01*
X84620000Y-124724100D02*
X83118300Y-124724100D01*
%TO.N,Net-(Columns1-RCLK)*%
X83869200Y-129804100D02*
X83118300Y-129804100D01*
X83869200Y-129804100D02*
X84620000Y-129804100D01*
X84620000Y-129804100D02*
X86121700Y-129804100D01*
X87210300Y-130892700D02*
X86121700Y-129804100D01*
X94989700Y-130892700D02*
X87210300Y-130892700D01*
X96118300Y-129764100D02*
X94989700Y-130892700D01*
X81983300Y-130939100D02*
X67500000Y-130939100D01*
X83118300Y-129804100D02*
X81983300Y-130939100D01*
X97620000Y-129764100D02*
X96118300Y-129764100D01*
%TO.N,Net-(Columns1-QG)*%
X101928300Y-136114100D02*
X104588300Y-138774100D01*
X95745800Y-136114100D02*
X101928300Y-136114100D01*
X91935800Y-132304100D02*
X95745800Y-136114100D01*
X90000000Y-132304100D02*
X91935800Y-132304100D01*
X105690000Y-138774100D02*
X104588300Y-138774100D01*
%TO.N,Net-(Columns1-SRCLK)*%
X81983300Y-133479100D02*
X83118300Y-132344100D01*
X67500000Y-133479100D02*
X81983300Y-133479100D01*
X84620000Y-132344100D02*
X83118300Y-132344100D01*
%TO.N,Net-(Columns1-QC)*%
X103051800Y-121037600D02*
X104588300Y-122574100D01*
X94022600Y-121037600D02*
X103051800Y-121037600D01*
X92916100Y-122144100D02*
X94022600Y-121037600D01*
X90000000Y-122144100D02*
X92916100Y-122144100D01*
X105690000Y-122574100D02*
X104588300Y-122574100D01*
%TO.N,+5V*%
X92904300Y-119604100D02*
X97620000Y-119604100D01*
X91795800Y-120712600D02*
X92904300Y-119604100D01*
X87190200Y-120712600D02*
X91795800Y-120712600D01*
X86121700Y-119644100D02*
X87190200Y-120712600D01*
X84620000Y-119644100D02*
X86121700Y-119644100D01*
%TO.N,Net-(Columns1-QH)*%
X99481700Y-142824100D02*
X105690000Y-142824100D01*
X91501700Y-134844100D02*
X99481700Y-142824100D01*
X90000000Y-134844100D02*
X91501700Y-134844100D01*
%TO.N,Net-(Columns1-QD)*%
X103877000Y-125912800D02*
X104588300Y-126624100D01*
X92730400Y-125912800D02*
X103877000Y-125912800D01*
X91501700Y-124684100D02*
X92730400Y-125912800D01*
X90000000Y-124684100D02*
X91501700Y-124684100D01*
X105690000Y-126624100D02*
X104588300Y-126624100D01*
%TO.N,Net-(Columns1-QB)*%
X104566500Y-118502300D02*
X104588300Y-118524100D01*
X92603500Y-118502300D02*
X104566500Y-118502300D01*
X91501700Y-119604100D02*
X92603500Y-118502300D01*
X90000000Y-119604100D02*
X91501700Y-119604100D01*
X105690000Y-118524100D02*
X104588300Y-118524100D01*
%TD*%
%TA.AperFunction,Conductor*%
%TO.N,GND*%
G36*
X105170384Y-129271585D02*
G01*
X105216139Y-129324389D01*
X105226083Y-129393547D01*
X105197058Y-129457103D01*
X105155751Y-129488281D01*
X105131553Y-129499565D01*
X105037267Y-129543531D01*
X105037265Y-129543532D01*
X104850858Y-129674054D01*
X104689954Y-129834958D01*
X104559432Y-130021365D01*
X104559431Y-130021367D01*
X104463261Y-130227602D01*
X104463258Y-130227611D01*
X104404366Y-130447402D01*
X104404364Y-130447413D01*
X104384532Y-130674098D01*
X104384532Y-130674101D01*
X104404364Y-130900786D01*
X104404366Y-130900797D01*
X104463258Y-131120588D01*
X104463261Y-131120597D01*
X104559431Y-131326832D01*
X104559432Y-131326834D01*
X104689954Y-131513241D01*
X104850858Y-131674145D01*
X104850861Y-131674147D01*
X105037266Y-131804668D01*
X105243504Y-131900839D01*
X105463308Y-131959735D01*
X105614173Y-131972934D01*
X105689998Y-131979568D01*
X105690000Y-131979568D01*
X105690002Y-131979568D01*
X105746673Y-131974609D01*
X105916692Y-131959735D01*
X106136496Y-131900839D01*
X106342734Y-131804668D01*
X106529139Y-131674147D01*
X106690047Y-131513239D01*
X106820568Y-131326834D01*
X106916739Y-131120596D01*
X106975635Y-130900792D01*
X106995468Y-130674100D01*
X106975635Y-130447408D01*
X106928773Y-130272515D01*
X106916741Y-130227611D01*
X106916738Y-130227602D01*
X106900873Y-130193579D01*
X106820568Y-130021366D01*
X106690047Y-129834961D01*
X106690045Y-129834958D01*
X106529141Y-129674054D01*
X106342734Y-129543532D01*
X106342732Y-129543531D01*
X106296411Y-129521931D01*
X106224249Y-129488281D01*
X106171811Y-129442110D01*
X106152659Y-129374916D01*
X106172875Y-129308035D01*
X106226040Y-129262700D01*
X106276655Y-129251900D01*
X106636403Y-129251900D01*
X106703442Y-129271585D01*
X106724083Y-129288218D01*
X110570484Y-133134620D01*
X110570486Y-133134621D01*
X110570490Y-133134624D01*
X110668680Y-133191313D01*
X110707416Y-133213677D01*
X110860143Y-133254601D01*
X110860145Y-133254601D01*
X111025854Y-133254601D01*
X111025870Y-133254600D01*
X112827625Y-133254600D01*
X112894664Y-133274285D01*
X112940419Y-133327089D01*
X112950363Y-133396247D01*
X112921338Y-133459803D01*
X112868063Y-133494039D01*
X112868598Y-133495507D01*
X112863502Y-133497361D01*
X112657267Y-133593531D01*
X112657265Y-133593532D01*
X112470858Y-133724054D01*
X112309954Y-133884958D01*
X112179432Y-134071365D01*
X112179431Y-134071367D01*
X112083261Y-134277602D01*
X112083258Y-134277611D01*
X112024366Y-134497402D01*
X112024364Y-134497413D01*
X112004532Y-134724098D01*
X112004532Y-134724101D01*
X112024364Y-134950786D01*
X112024366Y-134950797D01*
X112083258Y-135170588D01*
X112083261Y-135170597D01*
X112179431Y-135376832D01*
X112179432Y-135376834D01*
X112309954Y-135563241D01*
X112470858Y-135724145D01*
X112480640Y-135730994D01*
X112657266Y-135854668D01*
X112863504Y-135950839D01*
X112863509Y-135950840D01*
X112863511Y-135950841D01*
X112916415Y-135965016D01*
X113083308Y-136009735D01*
X113245230Y-136023901D01*
X113309998Y-136029568D01*
X113310000Y-136029568D01*
X113310002Y-136029568D01*
X113366673Y-136024609D01*
X113536692Y-136009735D01*
X113756496Y-135950839D01*
X113962734Y-135854668D01*
X114149139Y-135724147D01*
X114310047Y-135563239D01*
X114440118Y-135377475D01*
X114494693Y-135333852D01*
X114541692Y-135324600D01*
X120501631Y-135324600D01*
X120501647Y-135324601D01*
X120509243Y-135324601D01*
X120667354Y-135324601D01*
X120667357Y-135324601D01*
X120820085Y-135283677D01*
X120870204Y-135254739D01*
X120957016Y-135204620D01*
X121068820Y-135092816D01*
X121068820Y-135092814D01*
X121079028Y-135082607D01*
X121079030Y-135082604D01*
X121346139Y-134815494D01*
X121407460Y-134782011D01*
X121477152Y-134786995D01*
X121521499Y-134815495D01*
X121668599Y-134962595D01*
X121668602Y-134962597D01*
X121668603Y-134962598D01*
X121854158Y-135092525D01*
X121897783Y-135147102D01*
X121904977Y-135216600D01*
X121873454Y-135278955D01*
X121854158Y-135295675D01*
X121668597Y-135425605D01*
X121501506Y-135592696D01*
X121365965Y-135786270D01*
X121365962Y-135786275D01*
X121363289Y-135792009D01*
X121317115Y-135844446D01*
X121250909Y-135863600D01*
X115540940Y-135863600D01*
X115500019Y-135874564D01*
X115500019Y-135874565D01*
X115494399Y-135876071D01*
X115388214Y-135904523D01*
X115388209Y-135904526D01*
X115251290Y-135983575D01*
X115251282Y-135983581D01*
X115139478Y-136095386D01*
X113752705Y-137482158D01*
X113691382Y-137515643D01*
X113632931Y-137514252D01*
X113536697Y-137488466D01*
X113536693Y-137488465D01*
X113536692Y-137488465D01*
X113536691Y-137488464D01*
X113536686Y-137488464D01*
X113310002Y-137468632D01*
X113309998Y-137468632D01*
X113083313Y-137488464D01*
X113083302Y-137488466D01*
X112863511Y-137547358D01*
X112863502Y-137547361D01*
X112657267Y-137643531D01*
X112657265Y-137643532D01*
X112470858Y-137774054D01*
X112309954Y-137934958D01*
X112179432Y-138121365D01*
X112179431Y-138121367D01*
X112083261Y-138327602D01*
X112083258Y-138327611D01*
X112024366Y-138547402D01*
X112024364Y-138547413D01*
X112004532Y-138774098D01*
X112004532Y-138774101D01*
X112024364Y-139000786D01*
X112024366Y-139000797D01*
X112071099Y-139175207D01*
X112069436Y-139245057D01*
X112030273Y-139302919D01*
X111966045Y-139330423D01*
X111951324Y-139331300D01*
X107048676Y-139331300D01*
X106981637Y-139311615D01*
X106935882Y-139258811D01*
X106925938Y-139189653D01*
X106928901Y-139175207D01*
X106937581Y-139142813D01*
X106975635Y-139000792D01*
X106995468Y-138774100D01*
X106975635Y-138547408D01*
X106916739Y-138327604D01*
X106820568Y-138121366D01*
X106690047Y-137934961D01*
X106690045Y-137934958D01*
X106529141Y-137774054D01*
X106342734Y-137643532D01*
X106342732Y-137643531D01*
X106136497Y-137547361D01*
X106136488Y-137547358D01*
X105916697Y-137488466D01*
X105916693Y-137488465D01*
X105916692Y-137488465D01*
X105916691Y-137488464D01*
X105916686Y-137488464D01*
X105690002Y-137468632D01*
X105689998Y-137468632D01*
X105463313Y-137488464D01*
X105463302Y-137488466D01*
X105243511Y-137547358D01*
X105243502Y-137547361D01*
X105037267Y-137643531D01*
X105037265Y-137643532D01*
X104850858Y-137774054D01*
X104731855Y-137893058D01*
X104670532Y-137926543D01*
X104600840Y-137921559D01*
X104556493Y-137893058D01*
X102415890Y-135752455D01*
X102415888Y-135752452D01*
X102297017Y-135633581D01*
X102297009Y-135633575D01*
X102175182Y-135563239D01*
X102175179Y-135563238D01*
X102160085Y-135554523D01*
X102007357Y-135513599D01*
X101849243Y-135513599D01*
X101841647Y-135513599D01*
X101841631Y-135513600D01*
X99339724Y-135513600D01*
X99272685Y-135493915D01*
X99226930Y-135441111D01*
X99216986Y-135371953D01*
X99223591Y-135347871D01*
X99223251Y-135347761D01*
X99287990Y-135148513D01*
X99296609Y-135094100D01*
X97935686Y-135094100D01*
X97940080Y-135089706D01*
X97992741Y-134998494D01*
X98020000Y-134896761D01*
X98020000Y-134791439D01*
X98001956Y-134724098D01*
X104384532Y-134724098D01*
X104384532Y-134724101D01*
X104404364Y-134950786D01*
X104404366Y-134950797D01*
X104463258Y-135170588D01*
X104463261Y-135170597D01*
X104559431Y-135376832D01*
X104559432Y-135376834D01*
X104689954Y-135563241D01*
X104850858Y-135724145D01*
X104860640Y-135730994D01*
X105037266Y-135854668D01*
X105243504Y-135950839D01*
X105243509Y-135950840D01*
X105243511Y-135950841D01*
X105296415Y-135965016D01*
X105463308Y-136009735D01*
X105625230Y-136023901D01*
X105689998Y-136029568D01*
X105690000Y-136029568D01*
X105690002Y-136029568D01*
X105746673Y-136024609D01*
X105916692Y-136009735D01*
X106136496Y-135950839D01*
X106342734Y-135854668D01*
X106529139Y-135724147D01*
X106690047Y-135563239D01*
X106820568Y-135376834D01*
X106916739Y-135170596D01*
X106975635Y-134950792D01*
X106995468Y-134724100D01*
X106975635Y-134497408D01*
X106916739Y-134277604D01*
X106820568Y-134071366D01*
X106690047Y-133884961D01*
X106690045Y-133884958D01*
X106529141Y-133724054D01*
X106342734Y-133593532D01*
X106342732Y-133593531D01*
X106136497Y-133497361D01*
X106136488Y-133497358D01*
X105916697Y-133438466D01*
X105916693Y-133438465D01*
X105916692Y-133438465D01*
X105916691Y-133438464D01*
X105916686Y-133438464D01*
X105690002Y-133418632D01*
X105689998Y-133418632D01*
X105463313Y-133438464D01*
X105463302Y-133438466D01*
X105243511Y-133497358D01*
X105243502Y-133497361D01*
X105037267Y-133593531D01*
X105037265Y-133593532D01*
X104850858Y-133724054D01*
X104689954Y-133884958D01*
X104559432Y-134071365D01*
X104559431Y-134071367D01*
X104463261Y-134277602D01*
X104463258Y-134277611D01*
X104404366Y-134497402D01*
X104404364Y-134497413D01*
X104384532Y-134724098D01*
X98001956Y-134724098D01*
X97992741Y-134689706D01*
X97940080Y-134598494D01*
X97935686Y-134594100D01*
X99296609Y-134594100D01*
X99287990Y-134539686D01*
X99224755Y-134345070D01*
X99131859Y-134162750D01*
X99011582Y-133997205D01*
X99011582Y-133997204D01*
X98866895Y-133852517D01*
X98701349Y-133732240D01*
X98608370Y-133684865D01*
X98557574Y-133636890D01*
X98540779Y-133569069D01*
X98563316Y-133502935D01*
X98608370Y-133463895D01*
X98701610Y-133416387D01*
X98733167Y-133393460D01*
X98867213Y-133296071D01*
X98867215Y-133296068D01*
X98867219Y-133296066D01*
X99011966Y-133151319D01*
X99011968Y-133151315D01*
X99011971Y-133151313D01*
X99077438Y-133061204D01*
X99132287Y-132985710D01*
X99225220Y-132803319D01*
X99288477Y-132608634D01*
X99320500Y-132406452D01*
X99320500Y-132201748D01*
X99295325Y-132042800D01*
X99288477Y-131999565D01*
X99239359Y-131848397D01*
X99225220Y-131804881D01*
X99225218Y-131804878D01*
X99225218Y-131804876D01*
X99174267Y-131704881D01*
X99132287Y-131622490D01*
X99091019Y-131565689D01*
X99011971Y-131456886D01*
X98867213Y-131312128D01*
X98701614Y-131191815D01*
X98667637Y-131174503D01*
X98608917Y-131144583D01*
X98558123Y-131096611D01*
X98541328Y-131028790D01*
X98563865Y-130962655D01*
X98608917Y-130923616D01*
X98701610Y-130876387D01*
X98722770Y-130861013D01*
X98867213Y-130756071D01*
X98867215Y-130756068D01*
X98867219Y-130756066D01*
X99011966Y-130611319D01*
X99011968Y-130611315D01*
X99011971Y-130611313D01*
X99083618Y-130512697D01*
X99132287Y-130445710D01*
X99225220Y-130263319D01*
X99288477Y-130068634D01*
X99320500Y-129866452D01*
X99320500Y-129661748D01*
X99298355Y-129521930D01*
X99288477Y-129459565D01*
X99273743Y-129414219D01*
X99271748Y-129344377D01*
X99307828Y-129284544D01*
X99370529Y-129253716D01*
X99391674Y-129251900D01*
X105103345Y-129251900D01*
X105170384Y-129271585D01*
G37*
%TD.AperFunction*%
%TA.AperFunction,Conductor*%
G36*
X96217508Y-130616639D02*
G01*
X96261855Y-130645140D01*
X96372786Y-130756071D01*
X96527749Y-130868656D01*
X96538390Y-130876387D01*
X96624839Y-130920435D01*
X96631080Y-130923615D01*
X96681876Y-130971590D01*
X96698671Y-131039411D01*
X96676134Y-131105546D01*
X96631080Y-131144585D01*
X96538386Y-131191815D01*
X96372786Y-131312128D01*
X96228028Y-131456886D01*
X96107715Y-131622486D01*
X96014781Y-131804876D01*
X95951522Y-131999565D01*
X95919500Y-132201748D01*
X95919500Y-132406451D01*
X95951522Y-132608634D01*
X96014781Y-132803323D01*
X96107715Y-132985713D01*
X96228028Y-133151313D01*
X96372786Y-133296071D01*
X96506833Y-133393460D01*
X96538390Y-133416387D01*
X96610424Y-133453090D01*
X96631629Y-133463895D01*
X96682425Y-133511870D01*
X96699220Y-133579691D01*
X96676682Y-133645826D01*
X96631629Y-133684865D01*
X96538650Y-133732240D01*
X96373105Y-133852517D01*
X96373104Y-133852517D01*
X96228417Y-133997204D01*
X96228417Y-133997205D01*
X96108140Y-134162750D01*
X96015244Y-134345070D01*
X95952009Y-134539686D01*
X95943391Y-134594100D01*
X97304314Y-134594100D01*
X97299920Y-134598494D01*
X97247259Y-134689706D01*
X97220000Y-134791439D01*
X97220000Y-134896761D01*
X97247259Y-134998494D01*
X97299920Y-135089706D01*
X97304314Y-135094100D01*
X95943391Y-135094100D01*
X95952772Y-135153329D01*
X95950871Y-135153629D01*
X95947776Y-135215263D01*
X95907100Y-135272072D01*
X95842168Y-135297872D01*
X95773596Y-135284471D01*
X95743020Y-135262084D01*
X92423390Y-131942455D01*
X92423388Y-131942452D01*
X92304517Y-131823581D01*
X92304516Y-131823580D01*
X92217704Y-131773460D01*
X92217704Y-131773459D01*
X92217700Y-131773458D01*
X92167585Y-131744523D01*
X92139414Y-131736974D01*
X92079754Y-131700610D01*
X92049225Y-131637763D01*
X92057520Y-131568388D01*
X92102005Y-131514510D01*
X92168557Y-131493235D01*
X92171508Y-131493200D01*
X94903031Y-131493200D01*
X94903047Y-131493201D01*
X94910643Y-131493201D01*
X95068754Y-131493201D01*
X95068757Y-131493201D01*
X95221485Y-131452277D01*
X95284864Y-131415685D01*
X95358416Y-131373220D01*
X95470220Y-131261416D01*
X95470220Y-131261414D01*
X95480424Y-131251211D01*
X95480428Y-131251206D01*
X96086495Y-130645138D01*
X96147816Y-130611655D01*
X96217508Y-130616639D01*
G37*
%TD.AperFunction*%
%TA.AperFunction,Conductor*%
G36*
X83217508Y-125576639D02*
G01*
X83261855Y-125605140D01*
X83372786Y-125716071D01*
X83483330Y-125796384D01*
X83538390Y-125836387D01*
X83610424Y-125873090D01*
X83631629Y-125883895D01*
X83682425Y-125931870D01*
X83699220Y-125999691D01*
X83676682Y-126065826D01*
X83631629Y-126104865D01*
X83538650Y-126152240D01*
X83373105Y-126272517D01*
X83373104Y-126272517D01*
X83228417Y-126417204D01*
X83228417Y-126417205D01*
X83108140Y-126582750D01*
X83015244Y-126765070D01*
X82952009Y-126959686D01*
X82943391Y-127014100D01*
X84304314Y-127014100D01*
X84299920Y-127018494D01*
X84247259Y-127109706D01*
X84220000Y-127211439D01*
X84220000Y-127316761D01*
X84247259Y-127418494D01*
X84299920Y-127509706D01*
X84304314Y-127514100D01*
X82943391Y-127514100D01*
X82952009Y-127568513D01*
X83015245Y-127763132D01*
X83070005Y-127870606D01*
X83082901Y-127939275D01*
X83056624Y-128004015D01*
X82999518Y-128044272D01*
X82959520Y-128050900D01*
X81673269Y-128050900D01*
X81673253Y-128050899D01*
X81665657Y-128050899D01*
X81507543Y-128050899D01*
X81400187Y-128079665D01*
X81354810Y-128091824D01*
X81354809Y-128091825D01*
X81304696Y-128120759D01*
X81304695Y-128120760D01*
X81282322Y-128133677D01*
X81217885Y-128170879D01*
X81217882Y-128170881D01*
X81106078Y-128282686D01*
X80221484Y-129167281D01*
X80160161Y-129200766D01*
X80133803Y-129203600D01*
X79702893Y-129203600D01*
X79635854Y-129183915D01*
X79590099Y-129131111D01*
X79580155Y-129061953D01*
X79609180Y-128998397D01*
X79667958Y-128960623D01*
X79670785Y-128959828D01*
X79675085Y-128958677D01*
X79747477Y-128916881D01*
X79812016Y-128879620D01*
X79923820Y-128767816D01*
X79923820Y-128767814D01*
X79934024Y-128757611D01*
X79934028Y-128757606D01*
X83086495Y-125605138D01*
X83147816Y-125571655D01*
X83217508Y-125576639D01*
G37*
%TD.AperFunction*%
%TA.AperFunction,Conductor*%
G36*
X88303163Y-124167585D02*
G01*
X88348918Y-124220389D01*
X88358862Y-124289547D01*
X88354055Y-124310218D01*
X88331523Y-124379561D01*
X88331523Y-124379564D01*
X88299500Y-124581748D01*
X88299500Y-124786451D01*
X88331522Y-124988634D01*
X88394781Y-125183323D01*
X88445915Y-125283677D01*
X88473831Y-125338466D01*
X88487715Y-125365713D01*
X88608028Y-125531313D01*
X88752786Y-125676071D01*
X88884217Y-125771559D01*
X88918390Y-125796387D01*
X89001652Y-125838811D01*
X89011080Y-125843615D01*
X89061876Y-125891590D01*
X89078671Y-125959411D01*
X89056134Y-126025546D01*
X89011080Y-126064585D01*
X88918386Y-126111815D01*
X88752786Y-126232128D01*
X88608028Y-126376886D01*
X88487715Y-126542486D01*
X88394781Y-126724876D01*
X88331522Y-126919565D01*
X88299500Y-127121748D01*
X88299500Y-127326451D01*
X88331522Y-127528634D01*
X88394781Y-127723323D01*
X88469826Y-127870605D01*
X88482722Y-127939274D01*
X88456446Y-128004015D01*
X88399339Y-128044272D01*
X88359341Y-128050900D01*
X86280480Y-128050900D01*
X86213441Y-128031215D01*
X86167686Y-127978411D01*
X86157742Y-127909253D01*
X86169995Y-127870606D01*
X86224754Y-127763132D01*
X86287990Y-127568513D01*
X86296609Y-127514100D01*
X84935686Y-127514100D01*
X84940080Y-127509706D01*
X84992741Y-127418494D01*
X85020000Y-127316761D01*
X85020000Y-127211439D01*
X84992741Y-127109706D01*
X84940080Y-127018494D01*
X84935686Y-127014100D01*
X86296609Y-127014100D01*
X86287990Y-126959686D01*
X86224755Y-126765070D01*
X86131859Y-126582750D01*
X86011582Y-126417205D01*
X86011582Y-126417204D01*
X85866895Y-126272517D01*
X85701349Y-126152240D01*
X85608370Y-126104865D01*
X85557574Y-126056890D01*
X85540779Y-125989069D01*
X85563316Y-125922935D01*
X85608370Y-125883895D01*
X85610804Y-125882655D01*
X85701610Y-125836387D01*
X85756670Y-125796384D01*
X85867213Y-125716071D01*
X85867215Y-125716068D01*
X85867219Y-125716066D01*
X86011966Y-125571319D01*
X86011968Y-125571315D01*
X86011971Y-125571313D01*
X86106499Y-125441204D01*
X86132287Y-125405710D01*
X86225220Y-125223319D01*
X86288477Y-125028634D01*
X86320500Y-124826452D01*
X86320500Y-124621748D01*
X86288477Y-124419566D01*
X86288476Y-124419562D01*
X86288476Y-124419561D01*
X86252948Y-124310218D01*
X86250953Y-124240377D01*
X86287033Y-124180544D01*
X86349734Y-124149716D01*
X86370879Y-124147900D01*
X88236124Y-124147900D01*
X88303163Y-124167585D01*
G37*
%TD.AperFunction*%
%TA.AperFunction,Conductor*%
G36*
X91489159Y-125536640D02*
G01*
X91533506Y-125565141D01*
X92245539Y-126277174D01*
X92245549Y-126277185D01*
X92249879Y-126281515D01*
X92249880Y-126281516D01*
X92361684Y-126393320D01*
X92402502Y-126416886D01*
X92418439Y-126426087D01*
X92418438Y-126426087D01*
X92418441Y-126426088D01*
X92498609Y-126472374D01*
X92498610Y-126472374D01*
X92498615Y-126472377D01*
X92651342Y-126513300D01*
X92651343Y-126513300D01*
X95920797Y-126513300D01*
X95987836Y-126532985D01*
X96033591Y-126585789D01*
X96043535Y-126654947D01*
X96031281Y-126693596D01*
X96015244Y-126725068D01*
X95952009Y-126919686D01*
X95943391Y-126974100D01*
X97304314Y-126974100D01*
X97299920Y-126978494D01*
X97247259Y-127069706D01*
X97220000Y-127171439D01*
X97220000Y-127276761D01*
X97247259Y-127378494D01*
X97299920Y-127469706D01*
X97304314Y-127474100D01*
X95943391Y-127474100D01*
X95952009Y-127528513D01*
X96015245Y-127723132D01*
X96090386Y-127870606D01*
X96103282Y-127939275D01*
X96077005Y-128004015D01*
X96019899Y-128044272D01*
X95979901Y-128050900D01*
X91640659Y-128050900D01*
X91573620Y-128031215D01*
X91527865Y-127978411D01*
X91517921Y-127909253D01*
X91530174Y-127870605D01*
X91605218Y-127723323D01*
X91605218Y-127723322D01*
X91605220Y-127723319D01*
X91668477Y-127528634D01*
X91700500Y-127326452D01*
X91700500Y-127121748D01*
X91678355Y-126981930D01*
X91668477Y-126919565D01*
X91624630Y-126784618D01*
X91605220Y-126724881D01*
X91605218Y-126724878D01*
X91605218Y-126724876D01*
X91553868Y-126624098D01*
X91512287Y-126542490D01*
X91495895Y-126519928D01*
X91391971Y-126376886D01*
X91247213Y-126232128D01*
X91081614Y-126111815D01*
X91067424Y-126104585D01*
X90988917Y-126064583D01*
X90938123Y-126016611D01*
X90921328Y-125948790D01*
X90943865Y-125882655D01*
X90988917Y-125843616D01*
X91081610Y-125796387D01*
X91155012Y-125743058D01*
X91247213Y-125676071D01*
X91247215Y-125676068D01*
X91247219Y-125676066D01*
X91358144Y-125565141D01*
X91419467Y-125531656D01*
X91489159Y-125536640D01*
G37*
%TD.AperFunction*%
%TA.AperFunction,Conductor*%
G36*
X103643942Y-126532985D02*
G01*
X103664584Y-126549619D01*
X104103439Y-126988474D01*
X104103449Y-126988485D01*
X104107779Y-126992815D01*
X104107780Y-126992816D01*
X104219584Y-127104620D01*
X104249251Y-127121748D01*
X104272913Y-127135409D01*
X104272912Y-127135409D01*
X104272915Y-127135410D01*
X104356509Y-127183674D01*
X104356511Y-127183675D01*
X104356512Y-127183675D01*
X104356515Y-127183677D01*
X104483331Y-127217657D01*
X104542988Y-127254019D01*
X104558624Y-127275433D01*
X104559434Y-127276837D01*
X104689954Y-127463241D01*
X104850858Y-127624145D01*
X104850861Y-127624147D01*
X105037266Y-127754668D01*
X105146500Y-127805605D01*
X105165614Y-127814518D01*
X105218053Y-127860691D01*
X105237205Y-127927884D01*
X105216989Y-127994765D01*
X105163824Y-128040100D01*
X105113209Y-128050900D01*
X99260099Y-128050900D01*
X99193060Y-128031215D01*
X99147305Y-127978411D01*
X99137361Y-127909253D01*
X99149614Y-127870606D01*
X99224754Y-127723132D01*
X99287990Y-127528513D01*
X99296609Y-127474100D01*
X97935686Y-127474100D01*
X97940080Y-127469706D01*
X97992741Y-127378494D01*
X98020000Y-127276761D01*
X98020000Y-127171439D01*
X97992741Y-127069706D01*
X97940080Y-126978494D01*
X97935686Y-126974100D01*
X99296609Y-126974100D01*
X99287990Y-126919686D01*
X99224755Y-126725068D01*
X99208719Y-126693596D01*
X99195822Y-126624926D01*
X99222098Y-126560186D01*
X99279204Y-126519928D01*
X99319203Y-126513300D01*
X103576903Y-126513300D01*
X103643942Y-126532985D01*
G37*
%TD.AperFunction*%
%TA.AperFunction,Conductor*%
G36*
X155442539Y-60520185D02*
G01*
X155488294Y-60572989D01*
X155499500Y-60624500D01*
X155499500Y-158375500D01*
X155479815Y-158442539D01*
X155427011Y-158488294D01*
X155375500Y-158499500D01*
X57624500Y-158499500D01*
X57557461Y-158479815D01*
X57511706Y-158427011D01*
X57500500Y-158375500D01*
X57500500Y-128399099D01*
X66144341Y-128399099D01*
X66144341Y-128399100D01*
X66164936Y-128634503D01*
X66164938Y-128634513D01*
X66226094Y-128862755D01*
X66226096Y-128862759D01*
X66226097Y-128862763D01*
X66289906Y-128999601D01*
X66325965Y-129076930D01*
X66325967Y-129076934D01*
X66398062Y-129179895D01*
X66448480Y-129251900D01*
X66461501Y-129270495D01*
X66461506Y-129270502D01*
X66628597Y-129437593D01*
X66628603Y-129437598D01*
X66814158Y-129567525D01*
X66857783Y-129622102D01*
X66864977Y-129691600D01*
X66833454Y-129753955D01*
X66814158Y-129770675D01*
X66628597Y-129900605D01*
X66461505Y-130067697D01*
X66325965Y-130261269D01*
X66325964Y-130261271D01*
X66226098Y-130475435D01*
X66226094Y-130475444D01*
X66164938Y-130703686D01*
X66164936Y-130703696D01*
X66144341Y-130939099D01*
X66144341Y-130939100D01*
X66164936Y-131174503D01*
X66164938Y-131174513D01*
X66226094Y-131402755D01*
X66226096Y-131402759D01*
X66226097Y-131402763D01*
X66305884Y-131573866D01*
X66325965Y-131616930D01*
X66325967Y-131616934D01*
X66371000Y-131681247D01*
X66457566Y-131804876D01*
X66461501Y-131810495D01*
X66461506Y-131810502D01*
X66628597Y-131977593D01*
X66628603Y-131977598D01*
X66814158Y-132107525D01*
X66857783Y-132162102D01*
X66864977Y-132231600D01*
X66833454Y-132293955D01*
X66814158Y-132310675D01*
X66628597Y-132440605D01*
X66461505Y-132607697D01*
X66325965Y-132801269D01*
X66325964Y-132801271D01*
X66226098Y-133015435D01*
X66226094Y-133015444D01*
X66164938Y-133243686D01*
X66164936Y-133243696D01*
X66144341Y-133479099D01*
X66144341Y-133479100D01*
X66164936Y-133714503D01*
X66164938Y-133714513D01*
X66226094Y-133942755D01*
X66226096Y-133942759D01*
X66226097Y-133942763D01*
X66318547Y-134141022D01*
X66325965Y-134156930D01*
X66325967Y-134156934D01*
X66410462Y-134277604D01*
X66461505Y-134350501D01*
X66628599Y-134517595D01*
X66678200Y-134552326D01*
X66822165Y-134653132D01*
X66822167Y-134653133D01*
X66822170Y-134653135D01*
X67036337Y-134753003D01*
X67264592Y-134814163D01*
X67452918Y-134830639D01*
X67499999Y-134834759D01*
X67500000Y-134834759D01*
X67500001Y-134834759D01*
X67539234Y-134831326D01*
X67735408Y-134814163D01*
X67963663Y-134753003D01*
X68177830Y-134653135D01*
X68371401Y-134517595D01*
X68538495Y-134350501D01*
X68674035Y-134156930D01*
X68676707Y-134151197D01*
X68722878Y-134098758D01*
X68789091Y-134079600D01*
X75347979Y-134079600D01*
X75415018Y-134099285D01*
X75460773Y-134152089D01*
X75470717Y-134221247D01*
X75458464Y-134259893D01*
X75449437Y-134277611D01*
X75394781Y-134384876D01*
X75331522Y-134579565D01*
X75299500Y-134781748D01*
X75299500Y-134986451D01*
X75331522Y-135188634D01*
X75394781Y-135383323D01*
X75458691Y-135508753D01*
X75486453Y-135563238D01*
X75487715Y-135565713D01*
X75608028Y-135731313D01*
X75752786Y-135876071D01*
X75900764Y-135983581D01*
X75918390Y-135996387D01*
X75983511Y-136029568D01*
X76011629Y-136043895D01*
X76062425Y-136091870D01*
X76079220Y-136159691D01*
X76056682Y-136225826D01*
X76011629Y-136264865D01*
X75918650Y-136312240D01*
X75753105Y-136432517D01*
X75753104Y-136432517D01*
X75608417Y-136577204D01*
X75608417Y-136577205D01*
X75488140Y-136742750D01*
X75395244Y-136925070D01*
X75332009Y-137119686D01*
X75323391Y-137174100D01*
X76684314Y-137174100D01*
X76679920Y-137178494D01*
X76627259Y-137269706D01*
X76600000Y-137371439D01*
X76600000Y-137476761D01*
X76627259Y-137578494D01*
X76679920Y-137669706D01*
X76684314Y-137674100D01*
X75323391Y-137674100D01*
X75332009Y-137728513D01*
X75395244Y-137923129D01*
X75488140Y-138105449D01*
X75608417Y-138270994D01*
X75608417Y-138270995D01*
X75753104Y-138415682D01*
X75918650Y-138535959D01*
X76100968Y-138628855D01*
X76295582Y-138692090D01*
X76497683Y-138724100D01*
X76750000Y-138724100D01*
X76750000Y-137739786D01*
X76754394Y-137744180D01*
X76845606Y-137796841D01*
X76947339Y-137824100D01*
X77052661Y-137824100D01*
X77154394Y-137796841D01*
X77245606Y-137744180D01*
X77250000Y-137739786D01*
X77250000Y-138724100D01*
X77502317Y-138724100D01*
X77704417Y-138692090D01*
X77899031Y-138628855D01*
X78081349Y-138535959D01*
X78246894Y-138415682D01*
X78246895Y-138415682D01*
X78391582Y-138270995D01*
X78391582Y-138270994D01*
X78511859Y-138105449D01*
X78604755Y-137923129D01*
X78667990Y-137728513D01*
X78676609Y-137674100D01*
X77315686Y-137674100D01*
X77320080Y-137669706D01*
X77372741Y-137578494D01*
X77400000Y-137476761D01*
X77400000Y-137371439D01*
X77372741Y-137269706D01*
X77320080Y-137178494D01*
X77315686Y-137174100D01*
X78676609Y-137174100D01*
X78667990Y-137119686D01*
X78604755Y-136925070D01*
X78511859Y-136742750D01*
X78391582Y-136577205D01*
X78391582Y-136577204D01*
X78246895Y-136432517D01*
X78081349Y-136312240D01*
X77988370Y-136264865D01*
X77937574Y-136216890D01*
X77920779Y-136149069D01*
X77943316Y-136082935D01*
X77988370Y-136043895D01*
X77989471Y-136043334D01*
X78081610Y-135996387D01*
X78144302Y-135950839D01*
X78247213Y-135876071D01*
X78247215Y-135876068D01*
X78247219Y-135876066D01*
X78391966Y-135731319D01*
X78391968Y-135731315D01*
X78391971Y-135731313D01*
X78462977Y-135633580D01*
X78512287Y-135565710D01*
X78605220Y-135383319D01*
X78668477Y-135188634D01*
X78700500Y-134986452D01*
X78700500Y-134781748D01*
X78668477Y-134579565D01*
X78624461Y-134444100D01*
X78605220Y-134384881D01*
X78605218Y-134384878D01*
X78605218Y-134384876D01*
X78550563Y-134277611D01*
X78541535Y-134259893D01*
X78528640Y-134191226D01*
X78554916Y-134126486D01*
X78612022Y-134086228D01*
X78652021Y-134079600D01*
X81896631Y-134079600D01*
X81896647Y-134079601D01*
X81904243Y-134079601D01*
X82062354Y-134079601D01*
X82062357Y-134079601D01*
X82215085Y-134038677D01*
X82287477Y-133996881D01*
X82352016Y-133959620D01*
X82463820Y-133847816D01*
X82463820Y-133847814D01*
X82474024Y-133837611D01*
X82474028Y-133837606D01*
X83086495Y-133225138D01*
X83147816Y-133191655D01*
X83217508Y-133196639D01*
X83261855Y-133225140D01*
X83372786Y-133336071D01*
X83527749Y-133448656D01*
X83538390Y-133456387D01*
X83582965Y-133479099D01*
X83631629Y-133503895D01*
X83682425Y-133551870D01*
X83699220Y-133619691D01*
X83676682Y-133685826D01*
X83631629Y-133724865D01*
X83538650Y-133772240D01*
X83373105Y-133892517D01*
X83373104Y-133892517D01*
X83228417Y-134037204D01*
X83228417Y-134037205D01*
X83108140Y-134202750D01*
X83015244Y-134385070D01*
X82952009Y-134579686D01*
X82943391Y-134634100D01*
X84304314Y-134634100D01*
X84299920Y-134638494D01*
X84247259Y-134729706D01*
X84220000Y-134831439D01*
X84220000Y-134936761D01*
X84247259Y-135038494D01*
X84299920Y-135129706D01*
X84304314Y-135134100D01*
X82943391Y-135134100D01*
X82952009Y-135188513D01*
X83015244Y-135383129D01*
X83108140Y-135565449D01*
X83228417Y-135730994D01*
X83228417Y-135730995D01*
X83373104Y-135875682D01*
X83538652Y-135995961D01*
X83631628Y-136043334D01*
X83682425Y-136091308D01*
X83699220Y-136159129D01*
X83676683Y-136225264D01*
X83631630Y-136264303D01*
X83538388Y-136311813D01*
X83372786Y-136432128D01*
X83228028Y-136576886D01*
X83107715Y-136742486D01*
X83014781Y-136924876D01*
X82951522Y-137119565D01*
X82927727Y-137269803D01*
X82919500Y-137321748D01*
X82919500Y-137526452D01*
X82921407Y-137538494D01*
X82951522Y-137728634D01*
X83014781Y-137923323D01*
X83078691Y-138048753D01*
X83106238Y-138102816D01*
X83107715Y-138105713D01*
X83228028Y-138271313D01*
X83372786Y-138416071D01*
X83527749Y-138528656D01*
X83538390Y-138536387D01*
X83641364Y-138588855D01*
X83720776Y-138629318D01*
X83720778Y-138629318D01*
X83720781Y-138629320D01*
X83790860Y-138652090D01*
X83915465Y-138692577D01*
X84016557Y-138708588D01*
X84117648Y-138724600D01*
X84117649Y-138724600D01*
X85122351Y-138724600D01*
X85122352Y-138724600D01*
X85324534Y-138692577D01*
X85519219Y-138629320D01*
X85701610Y-138536387D01*
X85828051Y-138444523D01*
X85867213Y-138416071D01*
X85867215Y-138416068D01*
X85867219Y-138416066D01*
X86011966Y-138271319D01*
X86011968Y-138271315D01*
X86011971Y-138271313D01*
X86064732Y-138198690D01*
X86132287Y-138105710D01*
X86225220Y-137923319D01*
X86288477Y-137728634D01*
X86320500Y-137526452D01*
X86320500Y-137321748D01*
X86301765Y-137203460D01*
X86288477Y-137119565D01*
X86235719Y-136957194D01*
X86225220Y-136924881D01*
X86225218Y-136924878D01*
X86225218Y-136924876D01*
X86170041Y-136816586D01*
X86132287Y-136742490D01*
X86112024Y-136714600D01*
X86011971Y-136576886D01*
X85867213Y-136432128D01*
X85701611Y-136311813D01*
X85608369Y-136264303D01*
X85557574Y-136216329D01*
X85540779Y-136148507D01*
X85563317Y-136082373D01*
X85608371Y-136043334D01*
X85701347Y-135995961D01*
X85866894Y-135875682D01*
X85866895Y-135875682D01*
X86011582Y-135730995D01*
X86011582Y-135730994D01*
X86131859Y-135565449D01*
X86224755Y-135383129D01*
X86287990Y-135188513D01*
X86296609Y-135134100D01*
X84935686Y-135134100D01*
X84940080Y-135129706D01*
X84992741Y-135038494D01*
X85020000Y-134936761D01*
X85020000Y-134831439D01*
X84992741Y-134729706D01*
X84940080Y-134638494D01*
X84935686Y-134634100D01*
X86296609Y-134634100D01*
X86287990Y-134579686D01*
X86224755Y-134385070D01*
X86131859Y-134202750D01*
X86011582Y-134037205D01*
X86011582Y-134037204D01*
X85866895Y-133892517D01*
X85701349Y-133772240D01*
X85608370Y-133724865D01*
X85557574Y-133676890D01*
X85540779Y-133609069D01*
X85563316Y-133542935D01*
X85608370Y-133503895D01*
X85701610Y-133456387D01*
X85756670Y-133416384D01*
X85867213Y-133336071D01*
X85867215Y-133336068D01*
X85867219Y-133336066D01*
X86011966Y-133191319D01*
X86011968Y-133191315D01*
X86011971Y-133191313D01*
X86107374Y-133060000D01*
X86132287Y-133025710D01*
X86225220Y-132843319D01*
X86288477Y-132648634D01*
X86290922Y-132633195D01*
X86320849Y-132570062D01*
X86380159Y-132533129D01*
X86450022Y-132534125D01*
X86501076Y-132564911D01*
X87961039Y-134024874D01*
X87961049Y-134024885D01*
X87965379Y-134029215D01*
X87965380Y-134029216D01*
X88077184Y-134141020D01*
X88152730Y-134184636D01*
X88152731Y-134184637D01*
X88214109Y-134220074D01*
X88214110Y-134220074D01*
X88214115Y-134220077D01*
X88291398Y-134240785D01*
X88351058Y-134277149D01*
X88381587Y-134339996D01*
X88377235Y-134398877D01*
X88331523Y-134539561D01*
X88331523Y-134539564D01*
X88313535Y-134653134D01*
X88299500Y-134741748D01*
X88299500Y-134946452D01*
X88300188Y-134950797D01*
X88331522Y-135148634D01*
X88394781Y-135343323D01*
X88487715Y-135525713D01*
X88608028Y-135691313D01*
X88752786Y-135836071D01*
X88886832Y-135933459D01*
X88918390Y-135956387D01*
X88990424Y-135993090D01*
X89011629Y-136003895D01*
X89062425Y-136051870D01*
X89079220Y-136119691D01*
X89056682Y-136185826D01*
X89011629Y-136224865D01*
X88918650Y-136272240D01*
X88753105Y-136392517D01*
X88753104Y-136392517D01*
X88608417Y-136537204D01*
X88608417Y-136537205D01*
X88488140Y-136702750D01*
X88395244Y-136885070D01*
X88332009Y-137079686D01*
X88323391Y-137134100D01*
X89684314Y-137134100D01*
X89679920Y-137138494D01*
X89627259Y-137229706D01*
X89600000Y-137331439D01*
X89600000Y-137436761D01*
X89627259Y-137538494D01*
X89679920Y-137629706D01*
X89684314Y-137634100D01*
X88323391Y-137634100D01*
X88332009Y-137688513D01*
X88395244Y-137883129D01*
X88488140Y-138065449D01*
X88608417Y-138230994D01*
X88608417Y-138230995D01*
X88753104Y-138375682D01*
X88918650Y-138495959D01*
X89100968Y-138588855D01*
X89295582Y-138652090D01*
X89497683Y-138684100D01*
X89750000Y-138684100D01*
X89750000Y-137699786D01*
X89754394Y-137704180D01*
X89845606Y-137756841D01*
X89947339Y-137784100D01*
X90052661Y-137784100D01*
X90154394Y-137756841D01*
X90245606Y-137704180D01*
X90250000Y-137699786D01*
X90250000Y-138684100D01*
X90502317Y-138684100D01*
X90704417Y-138652090D01*
X90899031Y-138588855D01*
X91081349Y-138495959D01*
X91246894Y-138375682D01*
X91246895Y-138375682D01*
X91391582Y-138230995D01*
X91391582Y-138230994D01*
X91511859Y-138065449D01*
X91604755Y-137883129D01*
X91667990Y-137688513D01*
X91676609Y-137634100D01*
X90315686Y-137634100D01*
X90320080Y-137629706D01*
X90372741Y-137538494D01*
X90400000Y-137436761D01*
X90400000Y-137331439D01*
X90372741Y-137229706D01*
X90320080Y-137138494D01*
X90315686Y-137134100D01*
X91676609Y-137134100D01*
X91667990Y-137079686D01*
X91604755Y-136885070D01*
X91511859Y-136702750D01*
X91391582Y-136537205D01*
X91391582Y-136537204D01*
X91246895Y-136392517D01*
X91081349Y-136272240D01*
X90988370Y-136224865D01*
X90937574Y-136176890D01*
X90920779Y-136109069D01*
X90943316Y-136042935D01*
X90988370Y-136003895D01*
X90995161Y-136000435D01*
X91081610Y-135956387D01*
X91152994Y-135904524D01*
X91247213Y-135836071D01*
X91247215Y-135836068D01*
X91247219Y-135836066D01*
X91358144Y-135725141D01*
X91419467Y-135691656D01*
X91489159Y-135696640D01*
X91533506Y-135725141D01*
X98996839Y-143188474D01*
X98996849Y-143188485D01*
X99001179Y-143192815D01*
X99001180Y-143192816D01*
X99112984Y-143304620D01*
X99199795Y-143354739D01*
X99199797Y-143354741D01*
X99249913Y-143383676D01*
X99249915Y-143383677D01*
X99402642Y-143424600D01*
X99402643Y-143424600D01*
X104458308Y-143424600D01*
X104525347Y-143444285D01*
X104559880Y-143477474D01*
X104645480Y-143599724D01*
X104689954Y-143663241D01*
X104850858Y-143824145D01*
X104850861Y-143824147D01*
X105037266Y-143954668D01*
X105243504Y-144050839D01*
X105463308Y-144109735D01*
X105625230Y-144123901D01*
X105689998Y-144129568D01*
X105690000Y-144129568D01*
X105690002Y-144129568D01*
X105746673Y-144124609D01*
X105916692Y-144109735D01*
X106136496Y-144050839D01*
X106342734Y-143954668D01*
X106529139Y-143824147D01*
X106690047Y-143663239D01*
X106820568Y-143476834D01*
X106916739Y-143270596D01*
X106975635Y-143050792D01*
X106995468Y-142824100D01*
X106975635Y-142597408D01*
X106916739Y-142377604D01*
X106820568Y-142171366D01*
X106690047Y-141984961D01*
X106690045Y-141984958D01*
X106529141Y-141824054D01*
X106342734Y-141693532D01*
X106342732Y-141693531D01*
X106136497Y-141597361D01*
X106136488Y-141597358D01*
X105916697Y-141538466D01*
X105916693Y-141538465D01*
X105916692Y-141538465D01*
X105916691Y-141538464D01*
X105916686Y-141538464D01*
X105690002Y-141518632D01*
X105689998Y-141518632D01*
X105463313Y-141538464D01*
X105463302Y-141538466D01*
X105243511Y-141597358D01*
X105243502Y-141597361D01*
X105037267Y-141693531D01*
X105037265Y-141693532D01*
X104850858Y-141824054D01*
X104689954Y-141984958D01*
X104613450Y-142094218D01*
X104559881Y-142170724D01*
X104505307Y-142214348D01*
X104458308Y-142223600D01*
X99781797Y-142223600D01*
X99714758Y-142203915D01*
X99694116Y-142187281D01*
X98250816Y-140743981D01*
X98217331Y-140682658D01*
X98222315Y-140612966D01*
X98264187Y-140557033D01*
X98329651Y-140532616D01*
X98338497Y-140532300D01*
X117923431Y-140532300D01*
X117923447Y-140532301D01*
X117931043Y-140532301D01*
X118089154Y-140532301D01*
X118089157Y-140532301D01*
X118241885Y-140491377D01*
X118292004Y-140462439D01*
X118378816Y-140412320D01*
X118490620Y-140300516D01*
X118490620Y-140300514D01*
X118500828Y-140290307D01*
X118500829Y-140290304D01*
X120420216Y-138370919D01*
X120481539Y-138337434D01*
X120507897Y-138334600D01*
X120909202Y-138334600D01*
X120976241Y-138354285D01*
X121021996Y-138407089D01*
X121031940Y-138476247D01*
X121002915Y-138539803D01*
X120996883Y-138546281D01*
X120907780Y-138635384D01*
X120907778Y-138635386D01*
X119130845Y-140412320D01*
X117355884Y-142187281D01*
X117294561Y-142220766D01*
X117268203Y-142223600D01*
X114541692Y-142223600D01*
X114474653Y-142203915D01*
X114440119Y-142170725D01*
X114310047Y-141984961D01*
X114310045Y-141984958D01*
X114149141Y-141824054D01*
X113962734Y-141693532D01*
X113962732Y-141693531D01*
X113756497Y-141597361D01*
X113756488Y-141597358D01*
X113536697Y-141538466D01*
X113536693Y-141538465D01*
X113536692Y-141538465D01*
X113536691Y-141538464D01*
X113536686Y-141538464D01*
X113310002Y-141518632D01*
X113309998Y-141518632D01*
X113083313Y-141538464D01*
X113083302Y-141538466D01*
X112863511Y-141597358D01*
X112863502Y-141597361D01*
X112657267Y-141693531D01*
X112657265Y-141693532D01*
X112470858Y-141824054D01*
X112309954Y-141984958D01*
X112179432Y-142171365D01*
X112179431Y-142171367D01*
X112083261Y-142377602D01*
X112083258Y-142377611D01*
X112024366Y-142597402D01*
X112024364Y-142597413D01*
X112004532Y-142824098D01*
X112004532Y-142824101D01*
X112024364Y-143050786D01*
X112024366Y-143050797D01*
X112083258Y-143270588D01*
X112083261Y-143270597D01*
X112179431Y-143476832D01*
X112179432Y-143476834D01*
X112309954Y-143663241D01*
X112470858Y-143824145D01*
X112470861Y-143824147D01*
X112657266Y-143954668D01*
X112863504Y-144050839D01*
X113083308Y-144109735D01*
X113245230Y-144123901D01*
X113309998Y-144129568D01*
X113310000Y-144129568D01*
X113310002Y-144129568D01*
X113366673Y-144124609D01*
X113536692Y-144109735D01*
X113756496Y-144050839D01*
X113962734Y-143954668D01*
X114149139Y-143824147D01*
X114310047Y-143663239D01*
X114440118Y-143477475D01*
X114494693Y-143433852D01*
X114541692Y-143424600D01*
X117481631Y-143424600D01*
X117481647Y-143424601D01*
X117489243Y-143424601D01*
X117647354Y-143424601D01*
X117647357Y-143424601D01*
X117800085Y-143383677D01*
X117850204Y-143354739D01*
X117937016Y-143304620D01*
X118048820Y-143192816D01*
X118048820Y-143192814D01*
X118059028Y-143182607D01*
X118059030Y-143182604D01*
X121346139Y-139895494D01*
X121407460Y-139862011D01*
X121477152Y-139866995D01*
X121521499Y-139895495D01*
X121668599Y-140042595D01*
X121668602Y-140042597D01*
X121668603Y-140042598D01*
X121862165Y-140178132D01*
X121862167Y-140178133D01*
X121862170Y-140178135D01*
X122076337Y-140278003D01*
X122304592Y-140339163D01*
X122492918Y-140355639D01*
X122539999Y-140359759D01*
X122540000Y-140359759D01*
X122540001Y-140359759D01*
X122579234Y-140356326D01*
X122775408Y-140339163D01*
X123003663Y-140278003D01*
X123217830Y-140178135D01*
X123411401Y-140042595D01*
X123578495Y-139875501D01*
X123714035Y-139681930D01*
X123813903Y-139467763D01*
X123875063Y-139239508D01*
X123895659Y-139004100D01*
X123875063Y-138768692D01*
X123813903Y-138540437D01*
X123800177Y-138511002D01*
X123789686Y-138441929D01*
X123818205Y-138378144D01*
X123876681Y-138339904D01*
X123912560Y-138334600D01*
X143991631Y-138334600D01*
X143991647Y-138334601D01*
X143999243Y-138334601D01*
X144157354Y-138334601D01*
X144157357Y-138334601D01*
X144310085Y-138293677D01*
X144360204Y-138264739D01*
X144447016Y-138214620D01*
X144558820Y-138102816D01*
X144558820Y-138102814D01*
X144569028Y-138092607D01*
X144569030Y-138092604D01*
X145306139Y-137355494D01*
X145367460Y-137322011D01*
X145437152Y-137326995D01*
X145481499Y-137355495D01*
X145628599Y-137502595D01*
X145628602Y-137502597D01*
X145628603Y-137502598D01*
X145814158Y-137632525D01*
X145857783Y-137687102D01*
X145864977Y-137756600D01*
X145833454Y-137818955D01*
X145814158Y-137835675D01*
X145628597Y-137965605D01*
X145461505Y-138132697D01*
X145325965Y-138326269D01*
X145325964Y-138326271D01*
X145226098Y-138540435D01*
X145226094Y-138540444D01*
X145164938Y-138768686D01*
X145164936Y-138768696D01*
X145144341Y-139004099D01*
X145144341Y-139004100D01*
X145164936Y-139239503D01*
X145164938Y-139239513D01*
X145226094Y-139467755D01*
X145226096Y-139467759D01*
X145226097Y-139467763D01*
X145325965Y-139681930D01*
X145325967Y-139681934D01*
X145405754Y-139795880D01*
X145461505Y-139875501D01*
X145628599Y-140042595D01*
X145725384Y-140110365D01*
X145822165Y-140178132D01*
X145822167Y-140178133D01*
X145822170Y-140178135D01*
X146036337Y-140278003D01*
X146264592Y-140339163D01*
X146452918Y-140355639D01*
X146499999Y-140359759D01*
X146500000Y-140359759D01*
X146500001Y-140359759D01*
X146539234Y-140356326D01*
X146735408Y-140339163D01*
X146963663Y-140278003D01*
X147177830Y-140178135D01*
X147371401Y-140042595D01*
X147538495Y-139875501D01*
X147674035Y-139681930D01*
X147773903Y-139467763D01*
X147835063Y-139239508D01*
X147855659Y-139004100D01*
X147835063Y-138768692D01*
X147773903Y-138540437D01*
X147674035Y-138326271D01*
X147635558Y-138271319D01*
X147538494Y-138132697D01*
X147371402Y-137965606D01*
X147371396Y-137965601D01*
X147185842Y-137835675D01*
X147142217Y-137781098D01*
X147135023Y-137711600D01*
X147166546Y-137649245D01*
X147185842Y-137632525D01*
X147263006Y-137578494D01*
X147371401Y-137502595D01*
X147538495Y-137335501D01*
X147674035Y-137141930D01*
X147773903Y-136927763D01*
X147835063Y-136699508D01*
X147855659Y-136464100D01*
X147835063Y-136228692D01*
X147773903Y-136000437D01*
X147674035Y-135786271D01*
X147674034Y-135786269D01*
X147538494Y-135592697D01*
X147371402Y-135425606D01*
X147371396Y-135425601D01*
X147185842Y-135295675D01*
X147142217Y-135241098D01*
X147135023Y-135171600D01*
X147166546Y-135109245D01*
X147185842Y-135092525D01*
X147263006Y-135038494D01*
X147371401Y-134962595D01*
X147538495Y-134795501D01*
X147674035Y-134601930D01*
X147773903Y-134387763D01*
X147835063Y-134159508D01*
X147855659Y-133924100D01*
X147835063Y-133688692D01*
X147773903Y-133460437D01*
X147674035Y-133246271D01*
X147672230Y-133243692D01*
X147538494Y-133052697D01*
X147371402Y-132885606D01*
X147371396Y-132885601D01*
X147185842Y-132755675D01*
X147142217Y-132701098D01*
X147135023Y-132631600D01*
X147166546Y-132569245D01*
X147185842Y-132552525D01*
X147291850Y-132478297D01*
X147371401Y-132422595D01*
X147538495Y-132255501D01*
X147674035Y-132061930D01*
X147773903Y-131847763D01*
X147835063Y-131619508D01*
X147855659Y-131384100D01*
X147835063Y-131148692D01*
X147773903Y-130920437D01*
X147674035Y-130706271D01*
X147672230Y-130703692D01*
X147538494Y-130512697D01*
X147371402Y-130345606D01*
X147371396Y-130345601D01*
X147185842Y-130215675D01*
X147142217Y-130161098D01*
X147135023Y-130091600D01*
X147166546Y-130029245D01*
X147185842Y-130012525D01*
X147208026Y-129996991D01*
X147371401Y-129882595D01*
X147538495Y-129715501D01*
X147674035Y-129521930D01*
X147773903Y-129307763D01*
X147835063Y-129079508D01*
X147855659Y-128844100D01*
X147835063Y-128608692D01*
X147773903Y-128380437D01*
X147674035Y-128166271D01*
X147672230Y-128163692D01*
X147538494Y-127972697D01*
X147371402Y-127805606D01*
X147371396Y-127805601D01*
X147185842Y-127675675D01*
X147142217Y-127621098D01*
X147135023Y-127551600D01*
X147166546Y-127489245D01*
X147185842Y-127472525D01*
X147263006Y-127418494D01*
X147371401Y-127342595D01*
X147538495Y-127175501D01*
X147674035Y-126981930D01*
X147773903Y-126767763D01*
X147835063Y-126539508D01*
X147855659Y-126304100D01*
X147835063Y-126068692D01*
X147773903Y-125840437D01*
X147674035Y-125626271D01*
X147651989Y-125594785D01*
X147538494Y-125432697D01*
X147371402Y-125265606D01*
X147371396Y-125265601D01*
X147185842Y-125135675D01*
X147142217Y-125081098D01*
X147135023Y-125011600D01*
X147166546Y-124949245D01*
X147185842Y-124932525D01*
X147280899Y-124865965D01*
X147371401Y-124802595D01*
X147538495Y-124635501D01*
X147674035Y-124441930D01*
X147773903Y-124227763D01*
X147835063Y-123999508D01*
X147855659Y-123764100D01*
X147835063Y-123528692D01*
X147773903Y-123300437D01*
X147674035Y-123086271D01*
X147663285Y-123070919D01*
X147538496Y-122892700D01*
X147481070Y-122835274D01*
X147416567Y-122770771D01*
X147383084Y-122709451D01*
X147388068Y-122639759D01*
X147429939Y-122583825D01*
X147460915Y-122566910D01*
X147592331Y-122517896D01*
X147707546Y-122431646D01*
X147793796Y-122316431D01*
X147844091Y-122181583D01*
X147850500Y-122121973D01*
X147850499Y-120326228D01*
X147844091Y-120266617D01*
X147840431Y-120256805D01*
X147793797Y-120131771D01*
X147793793Y-120131764D01*
X147707547Y-120016555D01*
X147707544Y-120016552D01*
X147592335Y-119930306D01*
X147592328Y-119930302D01*
X147457482Y-119880008D01*
X147457483Y-119880008D01*
X147397883Y-119873601D01*
X147397881Y-119873600D01*
X147397873Y-119873600D01*
X147397864Y-119873600D01*
X145602129Y-119873600D01*
X145602123Y-119873601D01*
X145542516Y-119880008D01*
X145407671Y-119930302D01*
X145407664Y-119930306D01*
X145292455Y-120016552D01*
X145292452Y-120016555D01*
X145206206Y-120131764D01*
X145206202Y-120131771D01*
X145155908Y-120266617D01*
X145149555Y-120325713D01*
X145149501Y-120326223D01*
X145149500Y-120326235D01*
X145149500Y-122121970D01*
X145149501Y-122121976D01*
X145155908Y-122181583D01*
X145206202Y-122316428D01*
X145206206Y-122316435D01*
X145292452Y-122431644D01*
X145292455Y-122431647D01*
X145407664Y-122517893D01*
X145407671Y-122517897D01*
X145539082Y-122566910D01*
X145595016Y-122608781D01*
X145619433Y-122674245D01*
X145604582Y-122742518D01*
X145583430Y-122770773D01*
X145481500Y-122872703D01*
X145420177Y-122906188D01*
X145350485Y-122901204D01*
X145306138Y-122872703D01*
X144505890Y-122072455D01*
X144505888Y-122072452D01*
X144387017Y-121953581D01*
X144387016Y-121953580D01*
X144300204Y-121903460D01*
X144300204Y-121903459D01*
X144300200Y-121903458D01*
X144250085Y-121874523D01*
X144097357Y-121833599D01*
X143939243Y-121833599D01*
X143931647Y-121833599D01*
X143931631Y-121833600D01*
X124014500Y-121833600D01*
X123947461Y-121813915D01*
X123901706Y-121761111D01*
X123890500Y-121709600D01*
X123890499Y-120326229D01*
X123890498Y-120326223D01*
X123890497Y-120326216D01*
X123884091Y-120266617D01*
X123880431Y-120256805D01*
X123833797Y-120131771D01*
X123833793Y-120131764D01*
X123747547Y-120016555D01*
X123747544Y-120016552D01*
X123632335Y-119930306D01*
X123632328Y-119930302D01*
X123497482Y-119880008D01*
X123497483Y-119880008D01*
X123437883Y-119873601D01*
X123437881Y-119873600D01*
X123437873Y-119873600D01*
X123437864Y-119873600D01*
X121642129Y-119873600D01*
X121642123Y-119873601D01*
X121582516Y-119880008D01*
X121447671Y-119930302D01*
X121447664Y-119930306D01*
X121332455Y-120016552D01*
X121332452Y-120016555D01*
X121288723Y-120074970D01*
X121232789Y-120116841D01*
X121163098Y-120121825D01*
X121101776Y-120088340D01*
X115125890Y-114112455D01*
X115125888Y-114112452D01*
X115007017Y-113993581D01*
X115007016Y-113993580D01*
X114920204Y-113943460D01*
X114920204Y-113943459D01*
X114920200Y-113943458D01*
X114870085Y-113914523D01*
X114717357Y-113873599D01*
X114559243Y-113873599D01*
X114551647Y-113873599D01*
X114551631Y-113873600D01*
X114541692Y-113873600D01*
X114474653Y-113853915D01*
X114440119Y-113820725D01*
X114310047Y-113634961D01*
X114310045Y-113634958D01*
X114149141Y-113474054D01*
X113962734Y-113343532D01*
X113962732Y-113343531D01*
X113756497Y-113247361D01*
X113756488Y-113247358D01*
X113536697Y-113188466D01*
X113536693Y-113188465D01*
X113536692Y-113188465D01*
X113536691Y-113188464D01*
X113536686Y-113188464D01*
X113310002Y-113168632D01*
X113309998Y-113168632D01*
X113083313Y-113188464D01*
X113083302Y-113188466D01*
X112863511Y-113247358D01*
X112863502Y-113247361D01*
X112657267Y-113343531D01*
X112657265Y-113343532D01*
X112470858Y-113474054D01*
X112309954Y-113634958D01*
X112179432Y-113821365D01*
X112179431Y-113821367D01*
X112083261Y-114027602D01*
X112083258Y-114027611D01*
X112024366Y-114247402D01*
X112024364Y-114247413D01*
X112004532Y-114474098D01*
X112004532Y-114474101D01*
X112024364Y-114700786D01*
X112024366Y-114700797D01*
X112083258Y-114920588D01*
X112083261Y-114920597D01*
X112179431Y-115126832D01*
X112179432Y-115126834D01*
X112309954Y-115313241D01*
X112470858Y-115474145D01*
X112470861Y-115474147D01*
X112657266Y-115604668D01*
X112863504Y-115700839D01*
X113083308Y-115759735D01*
X113245230Y-115773901D01*
X113309998Y-115779568D01*
X113310000Y-115779568D01*
X113310002Y-115779568D01*
X113366673Y-115774609D01*
X113536692Y-115759735D01*
X113756496Y-115700839D01*
X113962734Y-115604668D01*
X114149139Y-115474147D01*
X114310047Y-115313239D01*
X114356313Y-115247162D01*
X114410889Y-115203538D01*
X114480387Y-115196344D01*
X114542742Y-115227866D01*
X114545569Y-115230605D01*
X115466283Y-116151318D01*
X115499768Y-116212641D01*
X115494784Y-116282332D01*
X115452912Y-116338266D01*
X115387448Y-116362683D01*
X115378602Y-116362999D01*
X115338147Y-116362999D01*
X115338131Y-116363000D01*
X81268969Y-116363000D01*
X81268953Y-116362999D01*
X81261357Y-116362999D01*
X81103243Y-116362999D01*
X80995887Y-116391765D01*
X80950510Y-116403924D01*
X80950509Y-116403925D01*
X80900396Y-116432859D01*
X80900395Y-116432860D01*
X80856989Y-116457920D01*
X80813585Y-116482979D01*
X80813582Y-116482981D01*
X80701778Y-116594786D01*
X78766818Y-118529745D01*
X78705495Y-118563230D01*
X78635803Y-118558246D01*
X78579871Y-118516376D01*
X78561289Y-118491554D01*
X78557546Y-118486554D01*
X78557544Y-118486553D01*
X78557544Y-118486552D01*
X78442335Y-118400306D01*
X78442328Y-118400302D01*
X78307482Y-118350008D01*
X78307483Y-118350008D01*
X78247883Y-118343601D01*
X78247881Y-118343600D01*
X78247873Y-118343600D01*
X78247864Y-118343600D01*
X75752129Y-118343600D01*
X75752123Y-118343601D01*
X75692516Y-118350008D01*
X75557671Y-118400302D01*
X75557664Y-118400306D01*
X75442455Y-118486552D01*
X75442452Y-118486555D01*
X75356206Y-118601764D01*
X75356202Y-118601771D01*
X75305908Y-118736617D01*
X75299501Y-118796216D01*
X75299500Y-118796235D01*
X75299500Y-120491970D01*
X75299501Y-120491976D01*
X75305908Y-120551583D01*
X75356202Y-120686428D01*
X75356206Y-120686435D01*
X75442452Y-120801644D01*
X75442455Y-120801647D01*
X75557664Y-120887893D01*
X75557671Y-120887897D01*
X75602618Y-120904661D01*
X75692517Y-120938191D01*
X75729441Y-120942160D01*
X75793989Y-120968896D01*
X75833838Y-121026288D01*
X75836333Y-121096113D01*
X75800681Y-121156202D01*
X75789071Y-121165766D01*
X75752784Y-121192130D01*
X75608028Y-121336886D01*
X75487715Y-121502486D01*
X75394781Y-121684876D01*
X75331522Y-121879565D01*
X75299500Y-122081748D01*
X75299500Y-122286451D01*
X75331522Y-122488634D01*
X75394781Y-122683323D01*
X75487715Y-122865713D01*
X75608028Y-123031313D01*
X75752786Y-123176071D01*
X75907749Y-123288656D01*
X75918390Y-123296387D01*
X76009840Y-123342983D01*
X76011080Y-123343615D01*
X76061876Y-123391590D01*
X76078671Y-123459411D01*
X76056134Y-123525546D01*
X76011080Y-123564585D01*
X75918386Y-123611815D01*
X75752786Y-123732128D01*
X75608028Y-123876886D01*
X75487715Y-124042486D01*
X75394781Y-124224876D01*
X75331522Y-124419565D01*
X75299500Y-124621748D01*
X75299500Y-124826451D01*
X75331522Y-125028634D01*
X75394781Y-125223323D01*
X75449860Y-125331419D01*
X75483457Y-125397358D01*
X75487715Y-125405713D01*
X75608028Y-125571313D01*
X75752786Y-125716071D01*
X75863330Y-125796384D01*
X75918390Y-125836387D01*
X76009196Y-125882655D01*
X76011080Y-125883615D01*
X76061876Y-125931590D01*
X76078671Y-125999411D01*
X76056134Y-126065546D01*
X76011080Y-126104585D01*
X75918386Y-126151815D01*
X75752786Y-126272128D01*
X75608028Y-126416886D01*
X75487715Y-126582486D01*
X75394781Y-126764876D01*
X75331522Y-126959565D01*
X75299500Y-127161748D01*
X75299500Y-127366451D01*
X75331522Y-127568634D01*
X75353503Y-127636281D01*
X75355498Y-127706122D01*
X75319418Y-127765955D01*
X75256717Y-127796784D01*
X75235572Y-127798600D01*
X68789091Y-127798600D01*
X68722052Y-127778915D01*
X68676711Y-127727009D01*
X68674037Y-127721275D01*
X68674034Y-127721270D01*
X68674033Y-127721269D01*
X68538495Y-127527699D01*
X68538494Y-127527697D01*
X68371402Y-127360606D01*
X68371401Y-127360605D01*
X68185405Y-127230369D01*
X68141781Y-127175792D01*
X68134588Y-127106293D01*
X68166110Y-127043939D01*
X68185405Y-127027219D01*
X68371082Y-126897205D01*
X68538105Y-126730182D01*
X68673600Y-126536678D01*
X68773429Y-126322592D01*
X68773432Y-126322586D01*
X68830636Y-126109100D01*
X67933012Y-126109100D01*
X67965925Y-126052093D01*
X68000000Y-125924926D01*
X68000000Y-125793274D01*
X67965925Y-125666107D01*
X67933012Y-125609100D01*
X68830636Y-125609100D01*
X68830635Y-125609099D01*
X68773432Y-125395613D01*
X68773429Y-125395607D01*
X68673600Y-125181522D01*
X68673599Y-125181520D01*
X68538113Y-124988026D01*
X68538108Y-124988020D01*
X68416053Y-124865965D01*
X68382568Y-124804642D01*
X68387552Y-124734950D01*
X68429424Y-124679017D01*
X68460400Y-124662102D01*
X68592331Y-124612896D01*
X68707546Y-124526646D01*
X68793796Y-124411431D01*
X68844091Y-124276583D01*
X68850500Y-124216973D01*
X68850499Y-122421228D01*
X68844091Y-122361617D01*
X68838793Y-122347413D01*
X68793797Y-122226771D01*
X68793793Y-122226764D01*
X68707547Y-122111555D01*
X68707544Y-122111552D01*
X68592335Y-122025306D01*
X68592328Y-122025302D01*
X68457482Y-121975008D01*
X68457483Y-121975008D01*
X68397883Y-121968601D01*
X68397881Y-121968600D01*
X68397873Y-121968600D01*
X68397864Y-121968600D01*
X66602129Y-121968600D01*
X66602123Y-121968601D01*
X66542516Y-121975008D01*
X66407671Y-122025302D01*
X66407664Y-122025306D01*
X66292455Y-122111552D01*
X66292452Y-122111555D01*
X66206206Y-122226764D01*
X66206202Y-122226771D01*
X66155908Y-122361617D01*
X66149501Y-122421216D01*
X66149501Y-122421223D01*
X66149500Y-122421235D01*
X66149500Y-124216970D01*
X66149501Y-124216976D01*
X66155908Y-124276583D01*
X66206202Y-124411428D01*
X66206206Y-124411435D01*
X66292452Y-124526644D01*
X66292455Y-124526647D01*
X66407664Y-124612893D01*
X66407671Y-124612897D01*
X66407827Y-124612955D01*
X66539598Y-124662102D01*
X66595531Y-124703973D01*
X66619949Y-124769437D01*
X66605098Y-124837710D01*
X66583947Y-124865965D01*
X66461886Y-124988026D01*
X66326400Y-125181520D01*
X66326399Y-125181522D01*
X66226570Y-125395607D01*
X66226567Y-125395613D01*
X66169364Y-125609099D01*
X66169364Y-125609100D01*
X67066988Y-125609100D01*
X67034075Y-125666107D01*
X67000000Y-125793274D01*
X67000000Y-125924926D01*
X67034075Y-126052093D01*
X67066988Y-126109100D01*
X66169364Y-126109100D01*
X66226567Y-126322586D01*
X66226570Y-126322592D01*
X66326399Y-126536678D01*
X66461894Y-126730182D01*
X66628917Y-126897205D01*
X66814595Y-127027219D01*
X66858219Y-127081796D01*
X66865412Y-127151295D01*
X66833890Y-127213649D01*
X66814595Y-127230369D01*
X66628594Y-127360608D01*
X66461505Y-127527697D01*
X66325965Y-127721269D01*
X66325964Y-127721271D01*
X66226098Y-127935435D01*
X66226094Y-127935444D01*
X66164938Y-128163686D01*
X66164936Y-128163696D01*
X66144341Y-128399099D01*
X57500500Y-128399099D01*
X57500500Y-114474098D01*
X104384532Y-114474098D01*
X104384532Y-114474101D01*
X104404364Y-114700786D01*
X104404366Y-114700797D01*
X104463258Y-114920588D01*
X104463261Y-114920597D01*
X104559431Y-115126832D01*
X104559432Y-115126834D01*
X104689954Y-115313241D01*
X104850858Y-115474145D01*
X104850861Y-115474147D01*
X105037266Y-115604668D01*
X105243504Y-115700839D01*
X105463308Y-115759735D01*
X105625230Y-115773901D01*
X105689998Y-115779568D01*
X105690000Y-115779568D01*
X105690002Y-115779568D01*
X105746673Y-115774609D01*
X105916692Y-115759735D01*
X106136496Y-115700839D01*
X106342734Y-115604668D01*
X106529139Y-115474147D01*
X106690047Y-115313239D01*
X106820568Y-115126834D01*
X106916739Y-114920596D01*
X106975635Y-114700792D01*
X106995468Y-114474100D01*
X106975635Y-114247408D01*
X106916739Y-114027604D01*
X106820568Y-113821366D01*
X106690047Y-113634961D01*
X106690045Y-113634958D01*
X106529141Y-113474054D01*
X106342734Y-113343532D01*
X106342732Y-113343531D01*
X106136497Y-113247361D01*
X106136488Y-113247358D01*
X105916697Y-113188466D01*
X105916693Y-113188465D01*
X105916692Y-113188465D01*
X105916691Y-113188464D01*
X105916686Y-113188464D01*
X105690002Y-113168632D01*
X105689998Y-113168632D01*
X105463313Y-113188464D01*
X105463302Y-113188466D01*
X105243511Y-113247358D01*
X105243502Y-113247361D01*
X105037267Y-113343531D01*
X105037265Y-113343532D01*
X104850858Y-113474054D01*
X104689954Y-113634958D01*
X104559432Y-113821365D01*
X104559431Y-113821367D01*
X104463261Y-114027602D01*
X104463258Y-114027611D01*
X104404366Y-114247402D01*
X104404364Y-114247413D01*
X104384532Y-114474098D01*
X57500500Y-114474098D01*
X57500500Y-60624500D01*
X57520185Y-60557461D01*
X57572989Y-60511706D01*
X57624500Y-60500500D01*
X155375500Y-60500500D01*
X155442539Y-60520185D01*
G37*
%TD.AperFunction*%
%TD*%
M02*
