%TF.GenerationSoftware,KiCad,Pcbnew,8.0.5*%
%TF.CreationDate,2024-10-20T14:37:56+01:00*%
%TF.ProjectId,Matrix pcb,4d617472-6978-4207-9063-622e6b696361,rev?*%
%TF.SameCoordinates,Original*%
%TF.FileFunction,Soldermask,Top*%
%TF.FilePolarity,Negative*%
%FSLAX46Y46*%
G04 Gerber Fmt 4.6, Leading zero omitted, Abs format (unit mm)*
G04 Created by KiCad (PCBNEW 8.0.5) date 2024-10-20 14:37:56*
%MOMM*%
%LPD*%
G01*
G04 APERTURE LIST*
%ADD10R,1.700000X1.700000*%
%ADD11O,1.700000X1.700000*%
%ADD12C,1.600000*%
%ADD13O,1.600000X1.600000*%
%ADD14O,2.400000X1.600000*%
%ADD15R,2.400000X1.600000*%
G04 APERTURE END LIST*
D10*
%TO.C,J2*%
X146500000Y-121224100D03*
D11*
X146500000Y-123764100D03*
X146500000Y-126304100D03*
X146500000Y-128844100D03*
X146500000Y-131384100D03*
X146500000Y-133924100D03*
X146500000Y-136464100D03*
X146500000Y-139004100D03*
%TD*%
D12*
%TO.C,R3*%
X113310000Y-134724100D03*
D13*
X105690000Y-134724100D03*
%TD*%
D12*
%TO.C,R5*%
X113310000Y-126624100D03*
D13*
X105690000Y-126624100D03*
%TD*%
D12*
%TO.C,R2*%
X113310000Y-138774100D03*
D13*
X105690000Y-138774100D03*
%TD*%
D12*
%TO.C,R6*%
X113310000Y-122574100D03*
D13*
X105690000Y-122574100D03*
%TD*%
D14*
%TO.C,Rows1*%
X84620000Y-119644100D03*
X84620000Y-122184100D03*
X84620000Y-124724100D03*
X84620000Y-127264100D03*
X84620000Y-129804100D03*
X84620000Y-132344100D03*
X84620000Y-134884100D03*
X84620000Y-137424100D03*
X77000000Y-137424100D03*
X77000000Y-134884100D03*
X77000000Y-132344100D03*
X77000000Y-129804100D03*
X77000000Y-127264100D03*
X77000000Y-124724100D03*
X77000000Y-122184100D03*
D15*
X77000000Y-119644100D03*
%TD*%
D11*
%TO.C,J1*%
X67500000Y-133479100D03*
X67500000Y-130939100D03*
X67500000Y-128399100D03*
X67500000Y-125859100D03*
D10*
X67500000Y-123319100D03*
%TD*%
D12*
%TO.C,R8*%
X113310000Y-114474100D03*
D13*
X105690000Y-114474100D03*
%TD*%
D15*
%TO.C,Columns1*%
X90000000Y-119604100D03*
D14*
X90000000Y-122144100D03*
X90000000Y-124684100D03*
X90000000Y-127224100D03*
X90000000Y-129764100D03*
X90000000Y-132304100D03*
X90000000Y-134844100D03*
X90000000Y-137384100D03*
X97620000Y-137384100D03*
X97620000Y-134844100D03*
X97620000Y-132304100D03*
X97620000Y-129764100D03*
X97620000Y-127224100D03*
X97620000Y-124684100D03*
X97620000Y-122144100D03*
X97620000Y-119604100D03*
%TD*%
D10*
%TO.C,J3*%
X122540000Y-121224100D03*
D11*
X122540000Y-123764100D03*
X122540000Y-126304100D03*
X122540000Y-128844100D03*
X122540000Y-131384100D03*
X122540000Y-133924100D03*
X122540000Y-136464100D03*
X122540000Y-139004100D03*
%TD*%
D12*
%TO.C,R4*%
X113310000Y-130674100D03*
D13*
X105690000Y-130674100D03*
%TD*%
D12*
%TO.C,R7*%
X113310000Y-118524100D03*
D13*
X105690000Y-118524100D03*
%TD*%
D12*
%TO.C,R1*%
X113310000Y-142824100D03*
D13*
X105690000Y-142824100D03*
%TD*%
M02*
